<?xml version="1.0" standalone="no"?>
<!DOCTYPE svg PUBLIC "-//W3C//DTD SVG 1.1//EN" "http://www.w3.org/Graphics/SVG/1.1/DTD/svg11.dtd" >
<svg xmlns="http://www.w3.org/2000/svg">
<metadata></metadata>
<defs>
<font id="bmw_type_web_light_allregular" horiz-adv-x="1003" vert-adv-y="2048" >
<font-face units-per-em="2048" ascent="1638" descent="-410" />
<missing-glyph horiz-adv-x="507" />
<glyph unicode="fi" horiz-adv-x="989" vert-adv-y="1404" d="M36 954v105h165v184q0 291 265 291q50 0 90 -6q6 -1 22 -3q12 -2 26 -4l-12 -110q-65 8 -103 8q-83 0 -121.5 -46.5t-38.5 -148.5v-165h251v-105h-251v-954h-128v954h-165zM720 0v1059h129v-1059h-129zM720 1308v205h129v-205h-129z" />
<glyph unicode="fl" horiz-adv-x="989" vert-adv-y="1404" d="M36 954v105h165v184q0 291 265 291q50 0 90 -6q6 -1 22 -3q12 -2 26 -4l-12 -110q-65 8 -103 8q-83 0 -121.5 -46.5t-38.5 -148.5v-165h251v-105h-251v-954h-128v954h-165zM720 0v1513h129v-1513h-129z" />
<glyph unicode="&#x651;&#x64c;" horiz-adv-x="0" vert-adv-y="1404" arabic-form="isolated" d="M124 1686q54 20 85 20q51 0 80 -52t29 -143q0 -14 -1 -32q72 11 108.5 27.5t88.5 61.5q-82 24 -116 54t-34 76q0 86 52.5 164.5t109.5 78.5q42 0 67 -46t25 -122q0 -61 -20 -141l48 -18l-39 -77l-41 13q-46 -81 -98 -115.5t-171 -59.5l-36 18q5 42 5 70q0 147 -68 147 q-26 0 -64 -16zM248 1334l40 3q13 -126 34 -171t67 -45q64 0 64 67q0 45 -18 146l43 3q20 -82 27 -126q8 -49 23.5 -67t48.5 -18q67 0 67 58q0 16 -8 66q-7 39 -9 90l45 -2q2 -39 19 -101q15 -56 15 -96q0 -61 -33.5 -96.5t-92.5 -35.5q-71 0 -99 70q-23 -73 -91 -73 q-75 0 -109 77.5t-33 250.5zM430 1743q0 -25 21 -41.5t95 -49.5q4 27 4 49q0 129 -56 129q-26 0 -45 -25.5t-19 -61.5z" />
<glyph unicode="&#x651;&#x64d;" horiz-adv-x="0" vert-adv-y="1404" arabic-form="isolated" d="M216 1801l41 3q12 -124 33 -169.5t67 -45.5q63 0 63 66q0 39 -17 146l43 3q20 -82 27 -125q8 -49 23.5 -67.5t48.5 -18.5q67 0 67 58q0 16 -8 66q-7 40 -9 90l45 -2q3 -39 19 -101q14 -55 14 -96q0 -62 -33 -96.5t-92 -34.5q-71 0 -99 69q-24 -72 -90 -72 q-77 0 -110.5 77.5t-32.5 249.5zM244 902l50 123l345 210l9 -21l-50 -123l-345 -211zM269 1130l49 122l345 211l9 -20l-50 -124l-345 -211z" />
<glyph unicode="&#x651;&#x64e;" horiz-adv-x="0" vert-adv-y="1404" arabic-form="isolated" d="M249 1334l41 3q12 -126 33 -171t67 -45q64 0 64 67q0 40 -18 146l43 3q20 -82 28 -126q7 -49 22.5 -67t48.5 -18q67 0 67 58q0 16 -8 66q-7 40 -9 90l45 -2q3 -40 19 -101q15 -55 15 -96q0 -61 -33.5 -96.5t-92.5 -35.5q-70 0 -99 70q-23 -73 -90 -73q-76 0 -110 77.5 t-33 250.5zM252 1412l50 122l345 207l9 -20l-49 -122l-346 -206z" />
<glyph unicode="&#x651;&#x64f;" horiz-adv-x="0" vert-adv-y="1404" arabic-form="isolated" d="M249 1334l41 3q12 -126 33 -171t67 -45q64 0 64 67q0 40 -18 146l43 3q20 -82 28 -126q7 -49 22.5 -67t48.5 -18q67 0 67 58q0 16 -8 66q-7 40 -9 90l45 -2q3 -40 19 -101q15 -55 15 -96q0 -61 -33.5 -96.5t-92.5 -35.5q-70 0 -99 70q-23 -73 -90 -73q-76 0 -110 77.5 t-33 250.5zM290 1399l44 105q125 49 185 91q-83 27 -116 57t-33 81q0 87 51.5 161t112.5 74q41 0 65.5 -46.5t24.5 -125.5q0 -62 -20 -133l53 -15l-36 -80l-52 14q-37 -70 -97.5 -114t-175.5 -87zM426 1782q0 -57 128 -102q2 15 2 27q0 84 -14.5 121t-47.5 37q-28 0 -48 -25 t-20 -58z" />
<glyph unicode="&#x651;&#x650;" horiz-adv-x="0" vert-adv-y="1404" arabic-form="isolated" d="M206 1725l41 2q12 -125 33 -170.5t67 -45.5q64 0 64 68q0 39 -18 146l43 2q20 -82 28 -126q7 -49 22.5 -67t48.5 -18q67 0 67 58q0 16 -8 66q-7 41 -9 91l45 -3q3 -38 19 -101q14 -55 14 -96q0 -61 -33 -96.5t-92 -35.5q-72 0 -99 71q-23 -74 -90 -74q-77 0 -110.5 78 t-32.5 251zM249 1052l50 121l345 208l9 -21l-50 -121l-345 -207z" />
<glyph unicode="&#xfedf;&#xfee0;&#x6c1;" horiz-adv-x="2257" vert-adv-y="1404" arabic-form="isolated" d="M132 300l23 114q8 37 16 48.5t42 28.5q233 122 367 320q-10 95 -37 155l129 136h34q8 -166 11 -229q24 -523 61 -617q26 -63 71 -89.5t128 -26.5h116q152 0 216 13q-73 774 -153 894l117 195h39q11 -96 32 -145t66 -92l-62 -106q5 -53 27 -270q33 -352 52 -409 q15 -48 50.5 -64t122.5 -16h123q149 0 215 13q-70 905 -160 1037l108 199h46q12 -100 32 -147t67 -90l-62 -107q23 -197 47.5 -501.5t24.5 -393.5q0 -56 -19.5 -83.5t-72.5 -42.5q-77 -24 -307 -24h-83q-123 0 -177 58q-45 -34 -120 -46t-249 -12h-71q-109 0 -169 25t-91 85 q-47 89 -71 407q-9 115 -13 158q-108 -147 -328 -261q145 -65 303 -164l-81 -142q-177 116 -360 192zM997 1657l40 4q13 -125 33.5 -170.5t66.5 -45.5q63 0 63 66q0 41 -13 130l-3 16l43 4q20 -81 26 -126q8 -49 24 -67.5t49 -18.5q67 0 67 58q0 16 -8 66q-7 40 -9 90l45 -2 q2 -38 19 -101q14 -56 14 -96q0 -61 -33 -96t-91 -35q-73 0 -100 69q-25 -72 -91 -72q-76 0 -109.5 77.5t-32.5 249.5zM1002 1731l50 121l344 208l9 -21l-49 -121l-346 -208z" />
<glyph unicode="&#xfedf;&#xfe82;" horiz-adv-x="1223" vert-adv-y="1404" arabic-form="isolated" d="M85 1482l35 19q424 -367 698 -855q18 105 18 211q0 139 -26 277.5t-62 189.5l120 200h39q14 -99 34.5 -146.5t67.5 -89.5l-64 -117q1 -54 1 -79q0 -214 -16 -338.5t-54 -219.5q7 -14 40 -82q63 -126 63 -201q0 -59 -27 -123.5t-63 -94.5q-27 -21 -58 -25.5t-174 -7.5 h-363v24l50 142q154 42 276.5 143t170.5 225q-204 367 -517 620l32 -61l-32 -33q-84 108 -177 190v43q0 78 -12 189zM263 1535l122 213q133 -59 251 -59q75 0 153 59l32 -24q-76 -96 -121 -126.5t-110 -30.5q-88 0 -205 41l-69 -103zM484 140h115q161 0 212.5 5.5 t112.5 27.5q-18 97 -85 257l-6 15q-74 -108 -143.5 -168t-205.5 -137z" />
<glyph unicode="&#xfee0;&#xfe82;" horiz-adv-x="1320" vert-adv-y="1404" arabic-form="final" d="M157 1482l34 19q195 -174 292.5 -279.5t215.5 -266.5q220 -304 288 -512q-25 695 -128 885l93 196h38q14 -95 40.5 -144t85.5 -92l-80 -93l4 -59l7 -116l8 -131q25 -358 27 -433q4 -189 39 -252q39 -64 176 -64h73l-37 -140h-73q-230 -6 -258 183q-31 -108 -96.5 -155.5 t-184.5 -47.5q-193 0 -344 94q-53 32 -157 130l16 33q218 -109 437 -109q201 0 308 134q-41 194 -214.5 438t-420.5 455l31 -62l-31 -33q-82 107 -177 190q2 41 2 62q0 57 -14 170zM352 1535l121 213q135 -59 251 -59q76 0 154 59l31 -24q-76 -96 -120.5 -126.5 t-110.5 -30.5q-88 0 -205 41l-69 -103z" />
<glyph unicode="&#xfedf;&#xfe84;" horiz-adv-x="1223" vert-adv-y="1404" arabic-form="isolated" d="M85 1482l35 19q424 -367 698 -855q18 105 18 211q0 139 -26 277.5t-62 189.5l120 200h39q14 -99 34.5 -146.5t67.5 -89.5l-64 -117q1 -54 1 -79q0 -214 -16 -338.5t-54 -219.5q7 -14 40 -82q63 -126 63 -201q0 -59 -27 -123.5t-63 -94.5q-27 -21 -58 -25.5t-174 -7.5 h-363v24l50 142q154 42 276.5 143t170.5 225q-204 367 -517 620l32 -61l-32 -33q-84 108 -177 190v43q0 78 -12 189zM358 1639q0 75 63.5 136.5t142.5 61.5q45 0 75 -19.5t30 -47.5q0 -25 -33 -75h-22q-16 52 -88 52q-60 0 -107 -39q5 -80 154 -109q79 32 154 55l7 -29 l-38 -71q-178 -54 -313 -136l-12 14l38 84l31 18q-82 42 -82 105zM484 140h115q161 0 212.5 5.5t112.5 27.5q-18 97 -85 257l-6 15q-74 -108 -143.5 -168t-205.5 -137z" />
<glyph unicode="&#xfee0;&#xfe84;" horiz-adv-x="1320" vert-adv-y="1404" arabic-form="final" d="M157 1482l34 19q195 -174 292.5 -279.5t215.5 -266.5q220 -304 288 -512q-25 695 -128 885l93 196h38q14 -95 40.5 -144t85.5 -92l-80 -93l4 -59l7 -116l8 -131q25 -358 27 -433q4 -189 39 -252q39 -64 176 -64h73l-37 -140h-73q-230 -6 -258 183q-31 -108 -96.5 -155.5 t-184.5 -47.5q-193 0 -344 94q-53 32 -157 130l16 33q218 -109 437 -109q201 0 308 134q-41 194 -214.5 438t-420.5 455l31 -62l-31 -33q-82 107 -177 190q2 41 2 62q0 57 -14 170zM458 1639q0 75 63.5 136.5t142.5 61.5q46 0 76 -19.5t30 -47.5q0 -26 -33 -75h-23 q-16 52 -87 52q-61 0 -107 -39q4 -80 154 -109q79 32 154 55l6 -29l-38 -71q-178 -54 -312 -136l-12 14l38 84l31 18q-83 42 -83 105z" />
<glyph unicode="&#xfedf;&#xfe88;" horiz-adv-x="1223" vert-adv-y="1404" arabic-form="isolated" d="M85 1482l35 19q424 -367 698 -855q18 105 18 211q0 139 -26 277.5t-62 189.5l120 200h39q14 -99 34.5 -146.5t67.5 -89.5l-64 -117q1 -54 1 -79q0 -214 -16 -338.5t-54 -219.5q7 -14 40 -82q63 -126 63 -201q0 -59 -27 -123.5t-63 -94.5q-27 -21 -58 -25.5t-174 -7.5 h-363v24l50 142q154 42 276.5 143t170.5 225q-204 367 -517 620l32 -61l-32 -33q-84 108 -177 190v43q0 78 -12 189zM359 -355q0 77 63.5 138t141.5 61q46 0 76 -19t30 -47q0 -27 -33 -76h-22q-16 53 -88 53q-60 0 -107 -40q5 -81 154 -108q99 37 200 69l6 -29l-37 -71 q-207 -62 -359 -151l-12 14l38 84l31 18q-82 43 -82 104zM484 140h115q161 0 212.5 5.5t112.5 27.5q-18 97 -85 257l-6 15q-74 -108 -143.5 -168t-205.5 -137z" />
<glyph unicode="&#xfee0;&#xfe88;" horiz-adv-x="1320" vert-adv-y="1404" arabic-form="final" d="M157 1482l34 19q195 -174 292.5 -279.5t215.5 -266.5q220 -304 288 -512q-25 695 -128 885l93 196h38q14 -95 40.5 -144t85.5 -92l-80 -93l4 -59l7 -116l8 -131q25 -358 27 -433q4 -189 39 -252q39 -64 176 -64h73l-37 -140h-73q-230 -6 -258 183q-31 -108 -96.5 -155.5 t-184.5 -47.5q-193 0 -344 94q-53 32 -157 130l16 33q218 -109 437 -109q201 0 308 134q-41 194 -214.5 438t-420.5 455l31 -62l-31 -33q-82 107 -177 190q2 41 2 62q0 57 -14 170zM432 -355q0 77 64 138t142 61q45 0 75.5 -19t30.5 -47q0 -27 -34 -76h-21q-17 53 -88 53 q-60 0 -107 -40q5 -81 154 -108q99 37 200 69l6 -29l-39 -71q-205 -62 -357 -151l-12 14l37 84l31 18q-82 42 -82 104z" />
<glyph unicode="&#xfedf;&#xfe8e;" horiz-adv-x="1223" vert-adv-y="1404" arabic-form="isolated" d="M85 1482l35 19q424 -367 698 -855q18 105 18 211q0 139 -26 277.5t-62 189.5l120 200h39q14 -99 34.5 -146.5t67.5 -89.5l-64 -117q1 -54 1 -79q0 -214 -16 -338.5t-54 -219.5q7 -14 40 -82q63 -126 63 -201q0 -59 -27 -123.5t-63 -94.5q-27 -21 -58 -25.5t-174 -7.5 h-363v24l50 142q154 42 276.5 143t170.5 225q-204 367 -517 620l32 -61l-32 -33q-84 108 -177 190v43q0 78 -12 189zM484 140h115q161 0 212.5 5.5t112.5 27.5q-18 97 -85 257l-6 15q-74 -108 -143.5 -168t-205.5 -137z" />
<glyph unicode="&#xfee0;&#xfe8e;" horiz-adv-x="1320" vert-adv-y="1404" arabic-form="final" d="M157 1482l34 19q195 -174 292.5 -279.5t215.5 -266.5q220 -304 288 -512q-25 695 -128 885l93 196h38q14 -95 40.5 -144t85.5 -92l-80 -93l4 -59l7 -116l8 -131q25 -358 27 -433q4 -189 39 -252q39 -64 176 -64h73l-37 -140h-73q-230 -6 -258 183q-31 -108 -96.5 -155.5 t-184.5 -47.5q-193 0 -344 94q-53 32 -157 130l16 33q218 -109 437 -109q201 0 308 134q-41 194 -214.5 438t-420.5 455l31 -62l-31 -33q-82 107 -177 190q2 41 2 62q0 57 -14 170z" />
<glyph unicode="&#x671;" vert-adv-y="1404" arabic-form="isolated" d="M370 1215l133 132l131 -132l-131 -131z" />
<glyph unicode="&#x671;" vert-adv-y="1404" arabic-form="final" d="M370 1215l133 132l131 -132l-131 -131z" />
<glyph unicode="&#x67b;" vert-adv-y="1404" arabic-form="isolated" d="M370 1215l133 132l131 -132l-131 -131z" />
<glyph unicode="&#x67b;" vert-adv-y="1404" arabic-form="final" d="M370 1215l133 132l131 -132l-131 -131z" />
<glyph unicode="&#x67b;" vert-adv-y="1404" arabic-form="initial" d="M370 1215l133 132l131 -132l-131 -131z" />
<glyph unicode="&#x67b;" vert-adv-y="1404" arabic-form="medial" d="M370 1215l133 132l131 -132l-131 -131z" />
<glyph unicode="&#x67e;" horiz-adv-x="1909" vert-adv-y="1404" arabic-form="isolated" d="M190 256q0 166 128 359l26 -11q-64 -125 -64 -241q0 -140 130 -200q130 -61 438 -61q350 0 586 45q126 25 186 69q-13 171 -162 365l61 154l43 18q157 -235 157 -432q0 -107 -69.5 -189.5t-186.5 -111.5q-105 -26 -294 -43t-376 -17q-333 0 -480 76q-123 64 -123 220z M710 -263l124 124l121 -121l121 121l124 -124l-124 -122l-121 120l-121 -120zM830 -491l125 123l125 -123l-125 -124z" />
<glyph unicode="&#x67e;" horiz-adv-x="1970" vert-adv-y="1404" arabic-form="final" d="M190 255q0 166 128 360l26 -12q-64 -124 -64 -240q0 -161 178 -219q130 -43 423 -43q269 0 468.5 22t270.5 60q-6 193 -162 398l61 154l43 17q112 -164 164 -420q24 -112 71.5 -152t156.5 -40h60l-36 -140h-72q-93 0 -143.5 31.5t-85.5 110.5q-67 -90 -193 -123 q-96 -25 -292.5 -42t-395.5 -17q-346 0 -479 74q-127 71 -127 221zM716 -263l124 124l120 -121l122 121l122 -124l-122 -122l-122 120l-120 -120zM836 -491l124 123l126 -123l-126 -124z" />
<glyph unicode="&#x67e;" horiz-adv-x="675" vert-adv-y="1404" arabic-form="initial" d="M-44 0l36 140h32q266 0 363 48q-12 191 -163 393l61 154l43 17q157 -244 157 -456q0 -102 -54 -172t-156 -99q-87 -25 -277 -25h-42zM3 -263l123 124l121 -121l121 121l123 -124l-123 -122l-121 120l-121 -120zM122 -491l125 123l124 -123l-124 -124z" />
<glyph unicode="&#x67e;" horiz-adv-x="734" vert-adv-y="1404" arabic-form="medial" d="M-44 0l36 140h23q270 0 372 48q-1 85 -45 192t-118 201l61 154l43 17q111 -162 149 -353q32 -152 65 -197q44 -62 177 -62h61l-36 -140h-72q-96 0 -149.5 33.5t-78.5 107.5q-33 -78 -121 -109q-92 -32 -335 -32h-32zM3 -263l123 124l121 -121l121 121l123 -124l-123 -122 l-121 120l-121 -120zM122 -491l125 123l124 -123l-124 -124z" />
<glyph unicode="&#x680;" vert-adv-y="1404" arabic-form="isolated" d="M370 1215l133 132l131 -132l-131 -131z" />
<glyph unicode="&#x680;" vert-adv-y="1404" arabic-form="final" d="M370 1215l133 132l131 -132l-131 -131z" />
<glyph unicode="&#x680;" vert-adv-y="1404" arabic-form="initial" d="M370 1215l133 132l131 -132l-131 -131z" />
<glyph unicode="&#x680;" vert-adv-y="1404" arabic-form="medial" d="M370 1215l133 132l131 -132l-131 -131z" />
<glyph unicode="&#x67a;" vert-adv-y="1404" arabic-form="isolated" d="M370 1215l133 132l131 -132l-131 -131z" />
<glyph unicode="&#x67a;" vert-adv-y="1404" arabic-form="final" d="M370 1215l133 132l131 -132l-131 -131z" />
<glyph unicode="&#x67a;" vert-adv-y="1404" arabic-form="initial" d="M370 1215l133 132l131 -132l-131 -131z" />
<glyph unicode="&#x67a;" vert-adv-y="1404" arabic-form="medial" d="M370 1215l133 132l131 -132l-131 -131z" />
<glyph unicode="&#x67f;" vert-adv-y="1404" arabic-form="isolated" d="M370 1215l133 132l131 -132l-131 -131z" />
<glyph unicode="&#x67f;" vert-adv-y="1404" arabic-form="final" d="M370 1215l133 132l131 -132l-131 -131z" />
<glyph unicode="&#x67f;" vert-adv-y="1404" arabic-form="initial" d="M370 1215l133 132l131 -132l-131 -131z" />
<glyph unicode="&#x67f;" vert-adv-y="1404" arabic-form="medial" d="M370 1215l133 132l131 -132l-131 -131z" />
<glyph unicode="&#x679;" vert-adv-y="1404" arabic-form="isolated" d="M370 1215l133 132l131 -132l-131 -131z" />
<glyph unicode="&#x679;" vert-adv-y="1404" arabic-form="final" d="M370 1215l133 132l131 -132l-131 -131z" />
<glyph unicode="&#x679;" vert-adv-y="1404" arabic-form="initial" d="M370 1215l133 132l131 -132l-131 -131z" />
<glyph unicode="&#x679;" vert-adv-y="1404" arabic-form="medial" d="M370 1215l133 132l131 -132l-131 -131z" />
<glyph unicode="&#x6a4;" horiz-adv-x="2262" vert-adv-y="1404" arabic-form="isolated" d="M190 259q0 176 146 382l24 -12q-80 -137 -80 -265q0 -165 196 -223q124 -37 453 -37q228 0 519 14t387 30q133 23 152 117q-147 1 -255 32q-209 59 -209 211q0 97 71 222q97 172 208 172q110 0 193 -139t83 -322q0 -332 -211 -418q-144 -60 -896 -60q-269 0 -401.5 12 t-214.5 45q-165 64 -165 239zM1457 1156l124 124l121 -122l121 122l123 -124l-123 -122l-121 120l-121 -120zM1577 1386l125 123l125 -123l-125 -124zM1612 641q0 -189 373 -221q-25 147 -95 241t-155 94q-53 0 -88 -32.5t-35 -81.5z" />
<glyph unicode="&#x6a4;" horiz-adv-x="2313" vert-adv-y="1404" arabic-form="final" d="M242 258q0 176 146 382l24 -11q-80 -137 -80 -266q0 -165 196 -224q124 -36 437 -36q470 0 713 37q-170 117 -170 284q0 143 122 289q111 134 218 134q106 0 178 -150q53 -112 53 -231q0 -176 -103 -293q131 -33 321 -33h61l-36 -140h-62q-229 0 -424 73 q-100 -47 -181 -62q-239 -48 -687 -48q-418 0 -561 57q-165 64 -165 238zM1531 1169l123 124l121 -122l121 122l124 -124l-124 -122l-121 120l-121 -120zM1598 512q0 -173 300 -309q81 62 81 163q0 106 -56 223q-54 111 -137 111q-78 0 -133 -55.5t-55 -132.5zM1650 1398 l125 125l125 -125l-125 -123z" />
<glyph unicode="&#x6a4;" horiz-adv-x="931" vert-adv-y="1404" arabic-form="initial" d="M-44 0l36 140h137q286 0 396.5 26t127.5 98q-146 2 -256 33q-208 59 -208 211q0 125 94 259t183 134q111 0 194 -138.5t83 -321.5q0 -282 -169 -379q-108 -62 -479 -62h-139zM182 1156l124 124l120 -122l122 122l123 -124l-123 -122l-122 120l-120 -120zM278 640 q0 -188 373 -221q-26 147 -96 241t-154 94q-54 0 -88.5 -32.5t-34.5 -81.5zM302 1386l124 123l126 -123l-126 -124z" />
<glyph unicode="&#x6a4;" horiz-adv-x="1016" vert-adv-y="1404" arabic-form="medial" d="M-44 0l36 140h388q-170 119 -170 285q0 142 121 288q112 134 220 134q105 0 176 -150q53 -111 53 -232q0 -176 -102 -292q131 -33 321 -33h61l-37 -140h-62q-221 0 -418 70q-84 -45 -153.5 -57.5t-229.5 -12.5h-204zM232 1169l124 124l121 -122l121 122l123 -124 l-123 -122l-121 120l-121 -120zM300 512q0 -173 300 -309q80 62 80 163q0 106 -56 223q-54 111 -138 111q-76 0 -131 -55.5t-55 -132.5zM353 1398l124 125l125 -125l-125 -123z" />
<glyph unicode="&#x6a6;" vert-adv-y="1404" arabic-form="isolated" d="M370 1215l133 132l131 -132l-131 -131z" />
<glyph unicode="&#x6a6;" vert-adv-y="1404" arabic-form="final" d="M370 1215l133 132l131 -132l-131 -131z" />
<glyph unicode="&#x6a6;" vert-adv-y="1404" arabic-form="initial" d="M370 1215l133 132l131 -132l-131 -131z" />
<glyph unicode="&#x6a6;" vert-adv-y="1404" arabic-form="medial" d="M370 1215l133 132l131 -132l-131 -131z" />
<glyph unicode="&#x684;" vert-adv-y="1404" arabic-form="isolated" d="M370 1215l133 132l131 -132l-131 -131z" />
<glyph unicode="&#x684;" vert-adv-y="1404" arabic-form="final" d="M370 1215l133 132l131 -132l-131 -131z" />
<glyph unicode="&#x684;" vert-adv-y="1404" arabic-form="initial" d="M370 1215l133 132l131 -132l-131 -131z" />
<glyph unicode="&#x684;" vert-adv-y="1404" arabic-form="medial" d="M370 1215l133 132l131 -132l-131 -131z" />
<glyph unicode="&#x683;" vert-adv-y="1404" arabic-form="isolated" d="M370 1215l133 132l131 -132l-131 -131z" />
<glyph unicode="&#x683;" vert-adv-y="1404" arabic-form="final" d="M370 1215l133 132l131 -132l-131 -131z" />
<glyph unicode="&#x683;" vert-adv-y="1404" arabic-form="initial" d="M370 1215l133 132l131 -132l-131 -131z" />
<glyph unicode="&#x683;" vert-adv-y="1404" arabic-form="medial" d="M370 1215l133 132l131 -132l-131 -131z" />
<glyph unicode="&#x686;" vert-adv-y="1404" arabic-form="isolated" d="M370 1215l133 132l131 -132l-131 -131z" />
<glyph unicode="&#x686;" vert-adv-y="1404" arabic-form="final" d="M370 1215l133 132l131 -132l-131 -131z" />
<glyph unicode="&#x686;" vert-adv-y="1404" arabic-form="initial" d="M370 1215l133 132l131 -132l-131 -131z" />
<glyph unicode="&#x686;" vert-adv-y="1404" arabic-form="medial" d="M370 1215l133 132l131 -132l-131 -131z" />
<glyph unicode="&#x687;" vert-adv-y="1404" arabic-form="isolated" d="M370 1215l133 132l131 -132l-131 -131z" />
<glyph unicode="&#x687;" vert-adv-y="1404" arabic-form="final" d="M370 1215l133 132l131 -132l-131 -131z" />
<glyph unicode="&#x687;" vert-adv-y="1404" arabic-form="initial" d="M370 1215l133 132l131 -132l-131 -131z" />
<glyph unicode="&#x687;" vert-adv-y="1404" arabic-form="medial" d="M370 1215l133 132l131 -132l-131 -131z" />
<glyph unicode="&#x68d;" vert-adv-y="1404" arabic-form="isolated" d="M370 1215l133 132l131 -132l-131 -131z" />
<glyph unicode="&#x68d;" vert-adv-y="1404" arabic-form="final" d="M370 1215l133 132l131 -132l-131 -131z" />
<glyph unicode="&#x68c;" vert-adv-y="1404" arabic-form="isolated" d="M370 1215l133 132l131 -132l-131 -131z" />
<glyph unicode="&#x68c;" vert-adv-y="1404" arabic-form="final" d="M370 1215l133 132l131 -132l-131 -131z" />
<glyph unicode="&#x68e;" vert-adv-y="1404" arabic-form="isolated" d="M370 1215l133 132l131 -132l-131 -131z" />
<glyph unicode="&#x68e;" vert-adv-y="1404" arabic-form="final" d="M370 1215l133 132l131 -132l-131 -131z" />
<glyph unicode="&#x688;" vert-adv-y="1404" arabic-form="isolated" d="M370 1215l133 132l131 -132l-131 -131z" />
<glyph unicode="&#x688;" vert-adv-y="1404" arabic-form="final" d="M370 1215l133 132l131 -132l-131 -131z" />
<glyph unicode="&#x698;" vert-adv-y="1404" arabic-form="isolated" d="M370 1215l133 132l131 -132l-131 -131z" />
<glyph unicode="&#x698;" vert-adv-y="1404" arabic-form="final" d="M370 1215l133 132l131 -132l-131 -131z" />
<glyph unicode="&#x691;" vert-adv-y="1404" arabic-form="isolated" d="M370 1215l133 132l131 -132l-131 -131z" />
<glyph unicode="&#x691;" vert-adv-y="1404" arabic-form="final" d="M370 1215l133 132l131 -132l-131 -131z" />
<glyph unicode="&#x6a9;" vert-adv-y="1404" arabic-form="isolated" d="M370 1215l133 132l131 -132l-131 -131z" />
<glyph unicode="&#x6a9;" vert-adv-y="1404" arabic-form="final" d="M370 1215l133 132l131 -132l-131 -131z" />
<glyph unicode="&#x6a9;" vert-adv-y="1404" arabic-form="initial" d="M370 1215l133 132l131 -132l-131 -131z" />
<glyph unicode="&#x6a9;" vert-adv-y="1404" arabic-form="medial" d="M370 1215l133 132l131 -132l-131 -131z" />
<glyph unicode="&#x6af;" vert-adv-y="1404" arabic-form="isolated" d="M370 1215l133 132l131 -132l-131 -131z" />
<glyph unicode="&#x6af;" vert-adv-y="1404" arabic-form="final" d="M370 1215l133 132l131 -132l-131 -131z" />
<glyph unicode="&#x6af;" vert-adv-y="1404" arabic-form="initial" d="M370 1215l133 132l131 -132l-131 -131z" />
<glyph unicode="&#x6af;" vert-adv-y="1404" arabic-form="medial" d="M370 1215l133 132l131 -132l-131 -131z" />
<glyph unicode="&#x6b3;" vert-adv-y="1404" arabic-form="isolated" d="M370 1215l133 132l131 -132l-131 -131z" />
<glyph unicode="&#x6b3;" vert-adv-y="1404" arabic-form="final" d="M370 1215l133 132l131 -132l-131 -131z" />
<glyph unicode="&#x6b3;" vert-adv-y="1404" arabic-form="initial" d="M370 1215l133 132l131 -132l-131 -131z" />
<glyph unicode="&#x6b3;" vert-adv-y="1404" arabic-form="medial" d="M370 1215l133 132l131 -132l-131 -131z" />
<glyph unicode="&#x6b1;" vert-adv-y="1404" arabic-form="isolated" d="M370 1215l133 132l131 -132l-131 -131z" />
<glyph unicode="&#x6b1;" vert-adv-y="1404" arabic-form="final" d="M370 1215l133 132l131 -132l-131 -131z" />
<glyph unicode="&#x6b1;" vert-adv-y="1404" arabic-form="initial" d="M370 1215l133 132l131 -132l-131 -131z" />
<glyph unicode="&#x6b1;" vert-adv-y="1404" arabic-form="medial" d="M370 1215l133 132l131 -132l-131 -131z" />
<glyph unicode="&#x6ba;" vert-adv-y="1404" arabic-form="isolated" d="M370 1215l133 132l131 -132l-131 -131z" />
<glyph unicode="&#x6ba;" vert-adv-y="1404" arabic-form="final" d="M370 1215l133 132l131 -132l-131 -131z" />
<glyph unicode="&#x6bb;" vert-adv-y="1404" arabic-form="isolated" d="M370 1215l133 132l131 -132l-131 -131z" />
<glyph unicode="&#x6bb;" vert-adv-y="1404" arabic-form="final" d="M370 1215l133 132l131 -132l-131 -131z" />
<glyph unicode="&#x6bb;" vert-adv-y="1404" arabic-form="initial" d="M370 1215l133 132l131 -132l-131 -131z" />
<glyph unicode="&#x6bb;" vert-adv-y="1404" arabic-form="medial" d="M370 1215l133 132l131 -132l-131 -131z" />
<glyph unicode="&#x6c0;" vert-adv-y="1404" arabic-form="isolated" d="M370 1215l133 132l131 -132l-131 -131z" />
<glyph unicode="&#x6c0;" vert-adv-y="1404" arabic-form="final" d="M370 1215l133 132l131 -132l-131 -131z" />
<glyph unicode="&#x6c1;" vert-adv-y="1404" arabic-form="isolated" d="M370 1215l133 132l131 -132l-131 -131z" />
<glyph unicode="&#x6c1;" vert-adv-y="1404" arabic-form="final" d="M370 1215l133 132l131 -132l-131 -131z" />
<glyph unicode="&#x6c1;" vert-adv-y="1404" arabic-form="initial" d="M370 1215l133 132l131 -132l-131 -131z" />
<glyph unicode="&#x6c1;" vert-adv-y="1404" arabic-form="medial" d="M370 1215l133 132l131 -132l-131 -131z" />
<glyph unicode="&#x6be;" vert-adv-y="1404" arabic-form="isolated" d="M370 1215l133 132l131 -132l-131 -131z" />
<glyph unicode="&#x6be;" vert-adv-y="1404" arabic-form="final" d="M370 1215l133 132l131 -132l-131 -131z" />
<glyph unicode="&#x6be;" vert-adv-y="1404" arabic-form="initial" d="M370 1215l133 132l131 -132l-131 -131z" />
<glyph unicode="&#x6be;" vert-adv-y="1404" arabic-form="medial" d="M370 1215l133 132l131 -132l-131 -131z" />
<glyph unicode="&#x6d2;" vert-adv-y="1404" arabic-form="isolated" d="M370 1215l133 132l131 -132l-131 -131z" />
<glyph unicode="&#x6d2;" vert-adv-y="1404" arabic-form="final" d="M370 1215l133 132l131 -132l-131 -131z" />
<glyph unicode="&#x6d3;" vert-adv-y="1404" arabic-form="isolated" d="M370 1215l133 132l131 -132l-131 -131z" />
<glyph unicode="&#x6d3;" vert-adv-y="1404" arabic-form="final" d="M370 1215l133 132l131 -132l-131 -131z" />
<glyph unicode="&#x6ad;" vert-adv-y="1404" arabic-form="isolated" d="M370 1215l133 132l131 -132l-131 -131z" />
<glyph unicode="&#x6ad;" vert-adv-y="1404" arabic-form="final" d="M370 1215l133 132l131 -132l-131 -131z" />
<glyph unicode="&#x6ad;" vert-adv-y="1404" arabic-form="initial" d="M370 1215l133 132l131 -132l-131 -131z" />
<glyph unicode="&#x6ad;" vert-adv-y="1404" arabic-form="medial" d="M370 1215l133 132l131 -132l-131 -131z" />
<glyph unicode="&#x6c7;" vert-adv-y="1404" arabic-form="isolated" d="M370 1215l133 132l131 -132l-131 -131z" />
<glyph unicode="&#x6c7;" vert-adv-y="1404" arabic-form="final" d="M370 1215l133 132l131 -132l-131 -131z" />
<glyph unicode="&#x6c6;" vert-adv-y="1404" arabic-form="isolated" d="M370 1215l133 132l131 -132l-131 -131z" />
<glyph unicode="&#x6c6;" vert-adv-y="1404" arabic-form="final" d="M370 1215l133 132l131 -132l-131 -131z" />
<glyph unicode="&#x6c8;" vert-adv-y="1404" arabic-form="isolated" d="M370 1215l133 132l131 -132l-131 -131z" />
<glyph unicode="&#x6c8;" vert-adv-y="1404" arabic-form="final" d="M370 1215l133 132l131 -132l-131 -131z" />
<glyph unicode="&#x677;" vert-adv-y="1404" arabic-form="isolated" d="M370 1215l133 132l131 -132l-131 -131z" />
<glyph unicode="&#x6cb;" vert-adv-y="1404" arabic-form="isolated" d="M370 1215l133 132l131 -132l-131 -131z" />
<glyph unicode="&#x6cb;" vert-adv-y="1404" arabic-form="final" d="M370 1215l133 132l131 -132l-131 -131z" />
<glyph unicode="&#x6c5;" vert-adv-y="1404" arabic-form="isolated" d="M370 1215l133 132l131 -132l-131 -131z" />
<glyph unicode="&#x6c5;" vert-adv-y="1404" arabic-form="final" d="M370 1215l133 132l131 -132l-131 -131z" />
<glyph unicode="&#x6c9;" vert-adv-y="1404" arabic-form="isolated" d="M370 1215l133 132l131 -132l-131 -131z" />
<glyph unicode="&#x6c9;" vert-adv-y="1404" arabic-form="final" d="M370 1215l133 132l131 -132l-131 -131z" />
<glyph unicode="&#x6d0;" vert-adv-y="1404" arabic-form="isolated" d="M370 1215l133 132l131 -132l-131 -131z" />
<glyph unicode="&#x6d0;" vert-adv-y="1404" arabic-form="final" d="M370 1215l133 132l131 -132l-131 -131z" />
<glyph unicode="&#x6d0;" vert-adv-y="1404" arabic-form="initial" d="M370 1215l133 132l131 -132l-131 -131z" />
<glyph unicode="&#x6d0;" vert-adv-y="1404" arabic-form="medial" d="M370 1215l133 132l131 -132l-131 -131z" />
<glyph unicode="&#x649;" horiz-adv-x="675" vert-adv-y="1404" arabic-form="initial" d="M-44 0l36 140h32q266 0 363 48q-12 191 -163 393l61 154l43 17q157 -244 157 -456q0 -102 -54 -172t-156 -99q-87 -25 -277 -25h-42z" />
<glyph unicode="&#x649;" horiz-adv-x="735" vert-adv-y="1404" arabic-form="medial" d="M-44 0l36 140h23q270 0 372 48q-1 85 -45 192t-118 201l61 154l43 17q111 -162 149 -353q32 -152 65 -197q44 -62 177 -62h61l-36 -140h-72q-96 0 -149.5 33.5t-78.5 107.5q-33 -78 -121 -109q-92 -32 -335 -32h-32z" />
<glyph unicode="&#xfbea;" vert-adv-y="1404" arabic-form="isolated" d="M370 1215l133 132l131 -132l-131 -131z" />
<glyph unicode="&#xfbeb;" vert-adv-y="1404" arabic-form="final" d="M370 1215l133 132l131 -132l-131 -131z" />
<glyph unicode="&#xfbec;" vert-adv-y="1404" arabic-form="isolated" d="M370 1215l133 132l131 -132l-131 -131z" />
<glyph unicode="&#xfbed;" vert-adv-y="1404" arabic-form="final" d="M370 1215l133 132l131 -132l-131 -131z" />
<glyph unicode="&#xfbee;" vert-adv-y="1404" arabic-form="isolated" d="M370 1215l133 132l131 -132l-131 -131z" />
<glyph unicode="&#xfbef;" vert-adv-y="1404" arabic-form="final" d="M370 1215l133 132l131 -132l-131 -131z" />
<glyph unicode="&#xfbf0;" vert-adv-y="1404" arabic-form="isolated" d="M370 1215l133 132l131 -132l-131 -131z" />
<glyph unicode="&#xfbf1;" vert-adv-y="1404" arabic-form="final" d="M370 1215l133 132l131 -132l-131 -131z" />
<glyph unicode="&#xfbf2;" vert-adv-y="1404" arabic-form="isolated" d="M370 1215l133 132l131 -132l-131 -131z" />
<glyph unicode="&#xfbf3;" vert-adv-y="1404" arabic-form="final" d="M370 1215l133 132l131 -132l-131 -131z" />
<glyph unicode="&#xfbf4;" vert-adv-y="1404" arabic-form="isolated" d="M370 1215l133 132l131 -132l-131 -131z" />
<glyph unicode="&#xfbf5;" vert-adv-y="1404" arabic-form="final" d="M370 1215l133 132l131 -132l-131 -131z" />
<glyph unicode="&#xfbf6;" vert-adv-y="1404" arabic-form="isolated" d="M370 1215l133 132l131 -132l-131 -131z" />
<glyph unicode="&#xfbf7;" vert-adv-y="1404" arabic-form="final" d="M370 1215l133 132l131 -132l-131 -131z" />
<glyph unicode="&#xfbf8;" vert-adv-y="1404" arabic-form="initial" d="M370 1215l133 132l131 -132l-131 -131z" />
<glyph unicode="&#xfbf9;" vert-adv-y="1404" arabic-form="isolated" d="M370 1215l133 132l131 -132l-131 -131z" />
<glyph unicode="&#xfbfa;" vert-adv-y="1404" arabic-form="final" d="M370 1215l133 132l131 -132l-131 -131z" />
<glyph unicode="&#xfbfb;" vert-adv-y="1404" arabic-form="initial" d="M370 1215l133 132l131 -132l-131 -131z" />
<glyph unicode="&#x6cc;" vert-adv-y="1404" arabic-form="isolated" d="M370 1215l133 132l131 -132l-131 -131z" />
<glyph unicode="&#x6cc;" vert-adv-y="1404" arabic-form="final" d="M370 1215l133 132l131 -132l-131 -131z" />
<glyph unicode="&#x6cc;" vert-adv-y="1404" arabic-form="initial" d="M370 1215l133 132l131 -132l-131 -131z" />
<glyph unicode="&#x6cc;" vert-adv-y="1404" arabic-form="medial" d="M370 1215l133 132l131 -132l-131 -131z" />
<glyph unicode="&#xfe70;" horiz-adv-x="0" vert-adv-y="1404" arabic-form="isolated" d="M228 907l50 120l345 204l9 -20l-50 -119l-345 -204zM257 1139l50 119l345 204l9 -19l-50 -120l-345 -204z" />
<glyph unicode="&#xfe71;" horiz-adv-x="770" vert-adv-y="1404" arabic-form="medial" d="M-44 0l36 140h822l-36 -140h-822zM168 663l52 125l345 204l9 -20l-53 -123l-345 -205zM196 900l53 123l345 205l9 -21l-53 -123l-345 -204z" />
<glyph unicode="&#xfe72;" horiz-adv-x="0" vert-adv-y="1404" arabic-form="isolated" d="M122 1280q54 21 84 21q51 0 80 -51.5t29 -143.5q0 -14 -1 -32q72 11 108.5 27t88.5 62q-82 24 -116 54t-34 76q0 85 52.5 164t109.5 79q42 0 67 -46t25 -123q0 -61 -20 -141l48 -17l-39 -78l-40 14q-47 -82 -99 -115.5t-171 -60.5l-36 18q5 43 5 70q0 148 -68 148 q-25 0 -64 -15zM427 1339q0 -27 21 -43.5t95 -48.5q4 26 4 49q0 128 -56 128q-25 0 -44.5 -25.5t-19.5 -59.5z" />
<glyph unicode="&#xfe74;" horiz-adv-x="0" vert-adv-y="1404" arabic-form="isolated" d="M228 -692l50 119l345 205l9 -20l-50 -120l-345 -203zM257 -462l50 120l345 205l9 -20l-50 -119l-345 -205z" />
<glyph unicode="&#xfe76;" horiz-adv-x="0" vert-adv-y="1404" arabic-form="isolated" d="M224 1061l50 119l345 205l9 -20l-50 -119l-345 -204z" />
<glyph unicode="&#xfe77;" horiz-adv-x="770" vert-adv-y="1404" arabic-form="medial" d="M-44 0l36 140h822l-36 -140h-822zM182 807l52 124l345 204l9 -20l-52 -123l-345 -205z" />
<glyph unicode="&#xfe78;" horiz-adv-x="0" vert-adv-y="1404" arabic-form="isolated" d="M327 991l44 105q125 49 186 91q-85 26 -117.5 56.5t-32.5 81.5q0 87 51.5 161t112.5 74q41 0 66 -47t25 -125q0 -60 -22 -133l53 -14l-35 -82l-52 14q-38 -69 -98 -113.5t-176 -87.5zM463 1373q0 -58 128 -102q2 17 2 29q0 84 -14.5 120.5t-48.5 36.5q-27 0 -47 -25 t-20 -59z" />
<glyph unicode="&#xfe79;" horiz-adv-x="770" vert-adv-y="1404" arabic-form="medial" d="M-44 0l36 140h822l-36 -140h-822zM202 750l44 106q124 48 185 90q-83 26 -116 56.5t-33 81.5q0 87 51.5 161t112.5 74q41 0 65.5 -46.5t24.5 -124.5q0 -63 -22 -134l54 -14l-35 -82l-53 14q-36 -69 -97 -113.5t-175 -87.5zM338 1132q0 -57 128 -102q1 16 1 27 q0 86 -14 122.5t-47 36.5q-28 0 -48 -25t-20 -59z" />
<glyph unicode="&#xfe7a;" horiz-adv-x="0" vert-adv-y="1404" arabic-form="isolated" d="M236 -469l50 119l345 204l9 -20l-50 -119l-345 -204z" />
<glyph unicode="&#xfe7b;" horiz-adv-x="770" vert-adv-y="1404" arabic-form="medial" d="M-44 0l36 140h822l-36 -140h-822zM183 -469l50 119l345 204l9 -20l-50 -119l-345 -204z" />
<glyph unicode="&#xfe7c;" horiz-adv-x="0" vert-adv-y="1404" arabic-form="isolated" d="M249 1334l41 3q12 -126 33 -171t67 -45q64 0 64 67q0 40 -18 146l43 3q20 -82 28 -126q7 -49 22.5 -67t48.5 -18q67 0 67 58q0 16 -8 66q-7 40 -9 90l45 -2q3 -40 19 -101q15 -55 15 -96q0 -61 -33.5 -96.5t-92.5 -35.5q-70 0 -99 70q-23 -73 -90 -73q-76 0 -110 77.5 t-33 250.5z" />
<glyph unicode="&#xfe7d;" horiz-adv-x="770" vert-adv-y="1404" arabic-form="medial" d="M-44 0l36 140h822l-36 -140h-822zM156 1093l41 4q12 -126 33 -171.5t67 -45.5q64 0 64 68q0 42 -17 145l43 4q20 -82 27 -127q7 -48 23 -66.5t49 -18.5q67 0 67 58q0 16 -9 65q-6 41 -8 91l44 -2q3 -39 20 -101q14 -56 14 -96q0 -61 -33 -96.5t-92 -35.5q-72 0 -99 70 q-24 -73 -91 -73q-76 0 -110 77.5t-33 250.5z" />
<glyph unicode="&#xfe7e;" horiz-adv-x="0" vert-adv-y="1404" arabic-form="isolated" d="M260 1121q0 70 66 179t132 109q56 0 116 -55t60 -107q0 -77 -58 -165q-57 -85 -164 -85q-68 0 -110 34.5t-42 89.5zM333 1253q3 -151 123 -151q57 0 105 40q-8 62 -55.5 110.5t-101.5 48.5q-43 0 -71 -48z" />
<glyph unicode="&#xfe7f;" horiz-adv-x="770" vert-adv-y="1404" arabic-form="medial" d="M-44 0l36 140h822l-36 -140h-822zM198 881q0 69 67 178q65 109 131 109q57 0 116.5 -55t59.5 -108q0 -76 -58 -164q-56 -85 -164 -85q-68 0 -110 34.5t-42 90.5zM271 1012q5 -152 123 -152q57 0 105 41q-8 62 -55.5 110.5t-101.5 48.5q-43 0 -71 -48z" />
<glyph unicode="&#x621;" horiz-adv-x="601" vert-adv-y="1404" arabic-form="isolated" d="M56 434q0 106 81 199q91 106 213 106q62 0 104 -27t42 -66q0 -41 -45 -113h-23q-33 82 -134 82q-87 0 -166 -69q-1 -135 238 -185q175 71 280 105l4 -16l-52 -107q-266 -82 -512 -233l-12 13l54 106l63 40q-135 61 -135 165z" />
<glyph unicode="&#x622;" horiz-adv-x="619" vert-adv-y="1404" arabic-form="isolated" d="M-23 1402l122 214q134 -60 251 -60q76 0 154 60l32 -24q-78 -98 -122.5 -127.5t-109.5 -29.5q-84 0 -205 41l-70 -103zM144 1093l109 199h44q13 -98 33 -146t66 -92l-61 -106q34 -243 34 -678q0 -78 -4 -161l-51 -125h-31q6 72 6 162q0 241 -69 677q-26 168 -76 270z" />
<glyph unicode="&#x622;" horiz-adv-x="621" vert-adv-y="1404" arabic-form="final" d="M-23 1402l122 214q134 -60 251 -60q76 0 154 60l32 -24q-78 -98 -122.5 -127.5t-109.5 -29.5q-84 0 -205 41l-70 -103zM171 1123l86 160l43 10q54 -128 66.5 -236.5t19.5 -511.5q4 -271 39.5 -338t171.5 -67h68l-36 -140h-69q-172 0 -215 47q-27 30 -36.5 86.5 t-19.5 243.5l-9 143l-6 94q-19 296 -35.5 377t-67.5 132z" />
<glyph unicode="&#x623;" horiz-adv-x="619" vert-adv-y="1404" arabic-form="isolated" d="M13 1522q0 76 63.5 137.5t143.5 61.5q45 0 75 -19t30 -48q0 -26 -34 -75h-21q-17 53 -89 53q-59 0 -107 -40q5 -81 155 -108q98 37 199 68l7 -28l-38 -72q-206 -61 -359 -151l-12 15l38 83l31 19q-82 42 -82 104zM143 1093l109 199h45q13 -100 32.5 -147t65.5 -91 l-61 -106q34 -242 34 -676q0 -79 -4 -163l-51 -125h-31q6 70 6 159q0 244 -68 680q-27 169 -77 270z" />
<glyph unicode="&#x623;" horiz-adv-x="621" vert-adv-y="1404" arabic-form="final" d="M13 1522q0 76 63.5 137.5t143.5 61.5q45 0 75 -19t30 -48q0 -26 -34 -75h-21q-17 53 -89 53q-59 0 -107 -40q5 -81 155 -108q98 37 199 68l7 -28l-38 -72q-206 -61 -359 -151l-12 15l38 83l31 19q-82 42 -82 104zM170 1123l87 160l42 10q54 -128 66.5 -236.5t19.5 -511.5 q5 -271 40 -338t172 -67h67l-36 -140h-69q-172 0 -215 47q-26 30 -35.5 86.5t-20.5 243.5l-9 143l-6 94q-19 296 -35.5 377t-67.5 132z" />
<glyph unicode="&#x624;" horiz-adv-x="1131" vert-adv-y="1404" arabic-form="isolated" d="M-121 -239l30 19q67 -88 121 -136q110 -99 273 -99q119 0 230.5 56t187.5 154q79 101 91 209q-149 6 -269 39q-102 28 -145.5 70.5t-43.5 113.5q0 120 101 267q90 131 188 131q103 0 188 -137q81 -132 81 -305q0 -124 -49 -259.5t-130 -238.5q-190 -236 -472 -236 q-234 0 -329 185q-29 57 -53 167zM390 1006q0 76 63.5 137t142.5 61q45 0 75.5 -19t30.5 -47q0 -26 -34 -75h-21q-17 52 -88 52q-61 0 -107 -39q4 -80 154 -109q99 38 200 70l5 -30l-38 -70q-206 -62 -357 -151l-12 14l37 84l31 19q-82 42 -82 103zM446 307q0 -97 149 -148 q99 -35 223 -46q-22 141 -91 233.5t-154 92.5q-53 0 -90 -38.5t-37 -93.5z" />
<glyph unicode="&#x624;" horiz-adv-x="1085" vert-adv-y="1404" arabic-form="final" d="M-121 -239l30 19q82 -125 170.5 -179t213.5 -54q188 0 337 117q86 67 139 156.5t61 179.5q-250 3 -365 51t-115 150q0 125 100 262.5t190 137.5q108 0 189.5 -137.5t84.5 -323.5h216l-36 -140h-193q-46 -204 -166 -353q-191 -238 -470 -238q-237 0 -333 185 q-29 57 -53 167zM390 1006q0 76 63.5 137t142.5 61q45 0 75.5 -19t30.5 -47q0 -27 -34 -75h-21q-17 52 -88 52q-61 0 -107 -39q5 -80 154 -109q99 38 200 70l5 -30l-38 -70q-206 -62 -357 -151l-12 14l37 84l31 19q-82 41 -82 103zM450 317q0 -81 88 -122.5t282 -51.5 q-24 136 -92.5 223.5t-153.5 87.5q-53 0 -88.5 -39.5t-35.5 -97.5z" />
<glyph unicode="&#x625;" horiz-adv-x="619" vert-adv-y="1404" arabic-form="isolated" d="M122 1327l109 198h45q13 -100 32.5 -147t66.5 -90l-61 -107q19 -143 36.5 -429.5t17.5 -473.5q0 -80 -3 -169l-51 -125h-31q5 71 5 162q0 282 -73 806q-23 162 -40.5 234t-52.5 141zM148 -354q0 76 63.5 137t143.5 61q45 0 75.5 -19t30.5 -47q0 -26 -34 -76h-22 q-17 53 -87 53q-61 0 -108 -40q5 -81 155 -108q99 37 199 69l6 -29l-38 -71q-206 -62 -358 -151l-12 14l37 84l31 18q-82 43 -82 105z" />
<glyph unicode="&#x625;" horiz-adv-x="621" vert-adv-y="1404" arabic-form="final" d="M154 -355q0 77 63.5 138t143.5 61q45 0 75 -19t30 -47q0 -27 -34 -76h-21q-17 53 -89 53q-59 0 -106 -40q4 -81 154 -108q98 37 199 69l7 -29l-38 -71q-206 -62 -359 -151l-11 14l37 84l31 18q-82 43 -82 104zM159 1364l86 160l43 11q56 -134 66 -221.5t19 -527.5 q11 -439 27 -516q20 -98 85 -117q39 -13 112 -13h67l-36 -140h-68q-108 0 -157 14.5t-70 52.5q-22 42 -26.5 82.5t-28.5 444.5q-30 507 -46 610t-73 160z" />
<glyph unicode="&#x626;" horiz-adv-x="1721" vert-adv-y="1404" arabic-form="isolated" d="M142 -137q0 137 43.5 266t144.5 290q72 114 160 213l26 -20q-147 -218 -208.5 -372t-61.5 -298q0 -210 162 -304q115 -66 318 -66q324 0 551 125q99 55 155 152q-21 29 -82 46.5t-268 52.5q-190 33 -210 45q-41 25 -41 78q0 78 49 173t129 173q99 97 230.5 154.5 t254.5 57.5q70 0 92 -31l-102 -203l-38 13q6 33 6 46q0 28 -46 28q-66 0 -160 -33t-169 -82q-65 -43 -108 -96.5t-43 -92.5q0 -24 37 -40t132 -31q277 -47 350 -74.5t73 -85.5q0 -131 -113 -251q-124 -133 -344 -206q-186 -61 -394 -61q-223 0 -354 76q-80 46 -116 111 q-55 98 -55 247zM910 1006q0 76 64 137t142 61q46 0 76.5 -19t30.5 -46q0 -26 -33 -76h-23q-16 52 -87 52q-61 0 -108 -39q5 -80 155 -109q99 38 200 70l6 -30l-38 -70q-206 -62 -359 -151l-12 14l37 84l32 19q-83 41 -83 103z" />
<glyph unicode="&#x626;" horiz-adv-x="1402" vert-adv-y="1404" arabic-form="final" d="M142 -160q0 282 211 611q61 95 137 180l25 -19q-18 -33 -90 -149q-180 -297 -180 -519q0 -196 121 -296.5t359 -100.5q235 0 382 41.5t167 111.5q-69 29 -194 46q-109 15 -137.5 21.5t-47.5 20.5q-24 17 -24 61q0 126 92 225q61 66 227 66h256l-37 -140h-398 q-52 0 -52 -50q0 -22 20.5 -30.5t108.5 -23.5q125 -22 170 -48q64 -37 64 -119q0 -125 -99 -203q-68 -54 -205 -86t-302 -32q-277 0 -424 100q-150 102 -150 332zM821 1006q0 76 64 137t142 61q46 0 76.5 -19t30.5 -47q0 -26 -33 -75h-23q-17 52 -87 52q-61 0 -107 -39 q4 -80 154 -109q99 38 200 70l6 -30l-39 -70q-205 -62 -357 -151l-12 14l37 84l32 19q-84 41 -84 103z" />
<glyph unicode="&#x626;" horiz-adv-x="675" vert-adv-y="1404" arabic-form="initial" d="M-44 0l36 140h32q266 0 363 48q-12 191 -163 393l61 154l43 17q157 -244 157 -456q0 -102 -54 -172t-156 -99q-87 -25 -277 -25h-42zM56 1006q0 76 63.5 137t142.5 61q45 0 75.5 -19t30.5 -47q0 -25 -34 -75h-21q-17 52 -89 52q-59 0 -106 -39q4 -80 153 -109 q99 38 200 70l6 -30l-37 -70q-207 -62 -359 -151l-11 14l37 84l31 19q-82 41 -82 103z" />
<glyph unicode="&#x626;" horiz-adv-x="735" vert-adv-y="1404" arabic-form="medial" d="M-44 0l36 140h23q270 0 372 48q-1 85 -45 192t-118 201l61 154l43 17q111 -162 149 -353q32 -152 65 -197q44 -62 177 -62h61l-36 -140h-72q-96 0 -149.5 33.5t-78.5 107.5q-33 -78 -121 -109q-92 -32 -335 -32h-32zM56 1006q0 76 63.5 137t142.5 61q45 0 75.5 -19 t30.5 -47q0 -25 -34 -75h-21q-17 52 -89 52q-59 0 -106 -39q4 -80 153 -109q99 38 200 70l6 -30l-37 -70q-207 -62 -359 -151l-11 14l37 84l31 19q-82 41 -82 103z" />
<glyph unicode="&#x627;" horiz-adv-x="619" vert-adv-y="1404" arabic-form="isolated" d="M122 1327l109 198h45q13 -100 32.5 -147t66.5 -90l-61 -107q19 -143 36.5 -429.5t17.5 -473.5q0 -80 -3 -169l-51 -125h-31q5 71 5 162q0 282 -73 806q-23 162 -40.5 234t-52.5 141z" />
<glyph unicode="&#x627;" horiz-adv-x="621" vert-adv-y="1404" arabic-form="final" d="M159 1364l86 160l43 11q56 -134 66 -221.5t19 -527.5q11 -439 28 -516q20 -98 84 -117q40 -13 112 -13h68l-36 -140h-69q-107 0 -156.5 14.5t-69.5 52.5q-23 42 -27 82.5t-29 444.5q-30 507 -46 610t-73 160z" />
<glyph unicode="&#x628;" horiz-adv-x="1909" vert-adv-y="1404" arabic-form="isolated" d="M190 256q0 166 128 359l26 -11q-64 -125 -64 -241q0 -140 130 -200q130 -61 438 -61q350 0 586 45q126 25 186 69q-13 171 -162 365l61 154l43 18q157 -235 157 -432q0 -107 -69.5 -189.5t-186.5 -111.5q-105 -26 -294 -43t-376 -17q-333 0 -480 76q-123 64 -123 220z M822 -324l133 132l132 -132l-132 -132z" />
<glyph unicode="&#x628;" horiz-adv-x="1970" vert-adv-y="1404" arabic-form="final" d="M190 255q0 166 128 360l26 -12q-64 -124 -64 -240q0 -161 178 -219q130 -43 423 -43q269 0 468.5 22t270.5 60q-6 193 -162 398l61 154l43 17q112 -164 164 -420q24 -112 71.5 -152t156.5 -40h60l-36 -140h-72q-93 0 -143.5 31.5t-85.5 110.5q-67 -90 -193 -123 q-96 -25 -292.5 -42t-395.5 -17q-346 0 -479 74q-127 71 -127 221zM822 -324l133 132l132 -132l-132 -132z" />
<glyph unicode="&#x628;" horiz-adv-x="675" vert-adv-y="1404" arabic-form="initial" d="M-44 0l36 140h32q266 0 363 48q-12 191 -163 393l61 154l43 17q157 -244 157 -456q0 -102 -54 -172t-156 -99q-87 -25 -277 -25h-42zM115 -324l132 132l132 -132l-132 -132z" />
<glyph unicode="&#x628;" horiz-adv-x="735" vert-adv-y="1404" arabic-form="medial" d="M-44 0l36 140h23q270 0 372 48q-1 85 -45 192t-118 201l61 154l43 17q111 -162 149 -353q32 -152 65 -197q44 -62 177 -62h61l-36 -140h-72q-96 0 -149.5 33.5t-78.5 107.5q-33 -78 -121 -109q-92 -32 -335 -32h-32zM115 -324l132 132l132 -132l-132 -132z" />
<glyph unicode="&#x629;" horiz-adv-x="1101" vert-adv-y="1404" arabic-form="isolated" d="M180 237q0 88 50 182.5t164 224.5l-84 50l66 111l32 10q288 -170 400.5 -284.5t112.5 -235.5q0 -126 -95 -235q-45 -52 -103 -72.5t-158 -20.5q-176 0 -267 57q-118 72 -118 213zM283 1066l127 126l118 -118l119 118l125 -126l-125 -125l-119 117l-118 -117zM292 317 q0 -114 102 -165q93 -46 226 -46q150 0 214 66q0 74 -24.5 126t-84.5 107q-130 119 -277 208q-156 -178 -156 -296z" />
<glyph unicode="&#x629;" horiz-adv-x="977" vert-adv-y="1404" arabic-form="final" d="M131 300l23 114q8 37 16 48.5t42 28.5q233 122 367 320q-10 95 -37 155l129 136h34q8 -166 11 -229q24 -523 61 -617q26 -63 71 -89.5t128 -26.5h45l-43 -140h-37q-109 0 -169 25t-91 85q-47 89 -71 407q-9 115 -13 158q-108 -147 -327 -261q144 -65 302 -164l-81 -142 q-177 116 -360 192zM285 1323l127 125l117 -117l119 117l126 -125l-126 -125l-119 117l-117 -117z" />
<glyph unicode="&#x62a;" horiz-adv-x="1909" vert-adv-y="1404" arabic-form="isolated" d="M190 256q0 166 128 359l26 -11q-64 -125 -64 -241q0 -140 130 -200q130 -61 438 -61q350 0 586 45q126 25 186 69q-13 171 -162 365l61 154l43 18q157 -235 157 -432q0 -107 -69.5 -189.5t-186.5 -111.5q-105 -26 -294 -43t-376 -17q-333 0 -480 76q-123 64 -123 220z M693 970l126 126l119 -118l118 118l127 -126l-127 -126l-118 118l-119 -118z" />
<glyph unicode="&#x62a;" horiz-adv-x="1970" vert-adv-y="1404" arabic-form="final" d="M190 255q0 166 128 360l26 -12q-64 -124 -64 -240q0 -161 178 -219q130 -43 423 -43q269 0 468.5 22t270.5 60q-6 193 -162 398l61 154l43 17q112 -164 164 -420q24 -112 71.5 -152t156.5 -40h60l-36 -140h-72q-93 0 -143.5 31.5t-85.5 110.5q-67 -90 -193 -123 q-96 -25 -292.5 -42t-395.5 -17q-346 0 -479 74q-127 71 -127 221zM688 970l126 126l119 -118l119 118l125 -126l-125 -126l-119 118l-119 -118z" />
<glyph unicode="&#x62a;" horiz-adv-x="676" vert-adv-y="1404" arabic-form="initial" d="M-44 0l36 140h32q266 0 363 48q-12 191 -163 393l61 154l43 17q157 -244 157 -456q0 -102 -54 -172t-156 -99q-87 -25 -277 -25h-42zM-19 970l127 126l118 -118l119 118l126 -126l-126 -126l-119 118l-118 -118z" />
<glyph unicode="&#x62a;" horiz-adv-x="735" vert-adv-y="1404" arabic-form="medial" d="M-44 0l36 140h23q270 0 372 48q-1 85 -45 192t-118 201l61 154l43 17q111 -162 149 -353q32 -152 65 -197q44 -62 177 -62h61l-36 -140h-72q-96 0 -149.5 33.5t-78.5 107.5q-33 -78 -121 -109q-92 -32 -335 -32h-32zM-19 970l127 126l118 -118l119 118l126 -126 l-126 -126l-119 118l-118 -118z" />
<glyph unicode="&#x62b;" horiz-adv-x="1909" vert-adv-y="1404" arabic-form="isolated" d="M190 256q0 166 128 359l26 -11q-64 -125 -64 -241q0 -140 130 -200q130 -61 438 -61q350 0 586 45q126 25 186 69q-13 171 -162 365l61 154l43 18q157 -235 157 -432q0 -107 -69.5 -189.5t-186.5 -111.5q-105 -26 -294 -43t-376 -17q-333 0 -480 76q-123 64 -123 220z M694 923l122 123l122 -121l121 121l124 -123l-124 -123l-121 121l-122 -121zM813 1152l125 124l124 -124l-124 -124z" />
<glyph unicode="&#x62b;" horiz-adv-x="1970" vert-adv-y="1404" arabic-form="final" d="M190 255q0 166 128 360l26 -12q-64 -124 -64 -240q0 -161 178 -219q130 -43 423 -43q269 0 468.5 22t270.5 60q-6 193 -162 398l61 154l43 17q112 -164 164 -420q24 -112 71.5 -152t156.5 -40h60l-36 -140h-72q-93 0 -143.5 31.5t-85.5 110.5q-67 -90 -193 -123 q-96 -25 -292.5 -42t-395.5 -17q-346 0 -479 74q-127 71 -127 221zM688 923l123 123l122 -121l121 121l123 -123l-123 -123l-121 121l-122 -121zM808 1152l125 124l124 -124l-124 -124z" />
<glyph unicode="&#x62b;" horiz-adv-x="675" vert-adv-y="1404" arabic-form="initial" d="M-44 0l36 140h32q266 0 363 48q-12 191 -161 393l59 154l43 17q157 -244 157 -456q0 -102 -54 -172t-156 -99q-87 -25 -277 -25h-42zM-19 923l124 123l121 -121l121 121l123 -123l-123 -123l-121 121l-121 -121zM101 1152l125 124l125 -124l-125 -124z" />
<glyph unicode="&#x62b;" horiz-adv-x="732" vert-adv-y="1404" arabic-form="medial" d="M-44 0l36 140h23q270 0 372 48q-1 85 -45 192t-116 201l59 154l43 17q111 -162 149 -353q32 -152 65 -197q44 -62 177 -62h61l-36 -140h-72q-96 0 -149.5 33.5t-78.5 107.5q-33 -78 -121 -109q-92 -32 -335 -32h-32zM-19 923l124 123l121 -121l121 121l123 -123 l-123 -123l-121 121l-121 -121zM101 1152l125 124l125 -124l-125 -124z" />
<glyph unicode="&#x62c;" horiz-adv-x="1467" vert-adv-y="1404" arabic-form="isolated" d="M190 -344q0 325 246 535q88 75 192 121.5t314 104.5q-70 37 -156 84q-129 72 -166.5 87.5t-86.5 15.5q-146 0 -257 -151l-32 21q130 264 322 264q58 0 109.5 -19.5t164.5 -85.5q141 -82 198.5 -104.5t125.5 -22.5q74 0 170 12q-43 -110 -84 -168q-397 -13 -624 -128 q-224 -112 -303 -294q-42 -98 -42 -200q0 -227 159 -367q159 -141 446 -141q288 0 576 160l14 -21q-86 -111 -166 -161q-194 -120 -476 -120q-238 0 -391 87q-253 144 -253 491zM739 -213l132 132l133 -132l-133 -131z" />
<glyph unicode="&#x62c;" horiz-adv-x="1528" vert-adv-y="1404" arabic-form="final" d="M190 -344q0 325 246 535q88 75 192 121.5t314 103.5q-65 35 -156 85q-129 71 -166.5 86.5t-87.5 15.5q-145 0 -256 -150l-32 20q130 264 322 264q59 0 109 -19.5t165 -86.5q140 -81 198.5 -103.5t126.5 -22.5q71 0 169 13q-43 -110 -84 -168q-83 -3 -136 -7 q-6 -28 -6 -51q0 -80 62 -116t200 -36h203l-36 -140h-222q-154 0 -225 48.5t-71 152.5q0 60 24 135q-292 -34 -481 -150q-281 -170 -281 -458q0 -227 159 -367q159 -141 446 -141q288 0 576 160l14 -21q-86 -111 -166 -161q-194 -120 -476 -120q-238 0 -391 87 q-253 144 -253 491zM706 -274l132 132l132 -132l-132 -132z" />
<glyph unicode="&#x62c;" horiz-adv-x="1482" vert-adv-y="1404" arabic-form="initial" d="M-44 0l36 140h206q287 0 459 13t376 50q-72 61 -260 234q-94 86 -162.5 124.5t-130.5 38.5q-70 0 -119.5 -32.5t-137.5 -135.5l-32 22q81 147 158.5 210.5t174.5 63.5q96 0 163.5 -41t256.5 -216q169 -157 259.5 -219t219.5 -109l-66 -135q-90 48 -134 62.5t-96 14.5 q-35 0 -111 -15q-336 -70 -875 -70h-185zM458 -324l132 132l132 -132l-132 -132z" />
<glyph unicode="&#x62c;" horiz-adv-x="1339" vert-adv-y="1404" arabic-form="medial" d="M-44 0l36 140h1036q-63 59 -162 170q-155 171 -227 224.5t-150 53.5q-75 0 -133.5 -32t-146.5 -121l-29 16q60 128 151.5 197.5t199.5 69.5q104 0 186 -58.5t275 -270.5q150 -164 210.5 -206.5t145.5 -42.5h36l-36 -140h-53q-122 0 -188 77q-38 -39 -74 -52 q-71 -25 -195 -25h-882zM399 -324l132 132l131 -132l-131 -132z" />
<glyph unicode="&#x62d;" horiz-adv-x="1467" vert-adv-y="1404" arabic-form="isolated" d="M190 -344q0 325 246 535q88 75 192 121.5t314 104.5q-70 37 -156 84q-129 72 -166.5 87.5t-86.5 15.5q-146 0 -257 -151l-32 21q130 264 322 264q58 0 109.5 -19.5t164.5 -85.5q141 -82 198.5 -104.5t125.5 -22.5q74 0 170 12q-43 -110 -84 -168q-397 -13 -624 -128 q-224 -112 -303 -294q-42 -98 -42 -200q0 -227 159 -367q159 -141 446 -141q288 0 576 160l14 -21q-86 -111 -166 -161q-194 -120 -476 -120q-238 0 -391 87q-253 144 -253 491z" />
<glyph unicode="&#x62d;" horiz-adv-x="1528" vert-adv-y="1404" arabic-form="final" d="M190 -344q0 325 246 535q88 75 192 121.5t314 103.5q-65 35 -156 85q-129 71 -166.5 86.5t-87.5 15.5q-145 0 -256 -150l-32 20q130 264 322 264q59 0 109 -19.5t165 -86.5q140 -81 198.5 -103.5t126.5 -22.5q71 0 169 13q-43 -110 -84 -168q-83 -3 -136 -7 q-6 -28 -6 -51q0 -80 62 -116t200 -36h203l-36 -140h-222q-154 0 -225 48.5t-71 152.5q0 60 24 135q-292 -34 -481 -150q-281 -170 -281 -458q0 -227 159 -367q159 -141 446 -141q288 0 576 160l14 -21q-86 -111 -166 -161q-194 -120 -476 -120q-238 0 -391 87 q-253 144 -253 491z" />
<glyph unicode="&#x62d;" horiz-adv-x="1482" vert-adv-y="1404" arabic-form="initial" d="M-44 0l36 140h206q287 0 459 13t376 50q-72 61 -260 234q-94 86 -162.5 124.5t-130.5 38.5q-70 0 -119.5 -32.5t-137.5 -135.5l-32 22q81 147 158.5 210.5t174.5 63.5q96 0 163.5 -41t256.5 -216q169 -157 259.5 -219t219.5 -109l-66 -135q-90 48 -134 62.5t-96 14.5 q-35 0 -111 -15q-336 -70 -875 -70h-185z" />
<glyph unicode="&#x62d;" horiz-adv-x="1339" vert-adv-y="1404" arabic-form="medial" d="M-44 0l36 140h1036q-63 59 -162 170q-155 171 -227 224.5t-150 53.5q-75 0 -133.5 -32t-146.5 -121l-29 16q60 128 151.5 197.5t199.5 69.5q104 0 186 -58.5t275 -270.5q150 -164 210.5 -206.5t145.5 -42.5h36l-36 -140h-53q-122 0 -188 77q-38 -39 -74 -52 q-71 -25 -195 -25h-882z" />
<glyph unicode="&#x62e;" horiz-adv-x="1467" vert-adv-y="1404" arabic-form="isolated" d="M190 -344q0 325 246 535q88 75 192 121.5t314 104.5q-70 37 -156 84q-129 72 -166.5 87.5t-86.5 15.5q-146 0 -257 -151l-32 21q130 264 322 264q58 0 109.5 -19.5t164.5 -85.5q141 -82 198.5 -104.5t125.5 -22.5q74 0 170 12q-43 -110 -84 -168q-397 -13 -624 -128 q-224 -112 -303 -294q-42 -98 -42 -200q0 -227 159 -367q159 -141 446 -141q288 0 576 160l14 -21q-86 -111 -166 -161q-194 -120 -476 -120q-238 0 -391 87q-253 144 -253 491zM645 1065l132 133l131 -133l-131 -131z" />
<glyph unicode="&#x62e;" horiz-adv-x="1528" vert-adv-y="1404" arabic-form="final" d="M190 -344q0 325 246 535q88 75 192 121.5t314 103.5q-65 35 -156 85q-129 71 -166.5 86.5t-87.5 15.5q-145 0 -256 -150l-32 20q130 264 322 264q59 0 109 -19.5t165 -86.5q140 -81 198.5 -103.5t126.5 -22.5q71 0 169 13q-43 -110 -84 -168q-83 -3 -136 -7 q-6 -28 -6 -51q0 -80 62 -116t200 -36h203l-36 -140h-222q-154 0 -225 48.5t-71 152.5q0 60 24 135q-292 -34 -481 -150q-281 -170 -281 -458q0 -227 159 -367q159 -141 446 -141q288 0 576 160l14 -21q-86 -111 -166 -161q-194 -120 -476 -120q-238 0 -391 87 q-253 144 -253 491zM631 1065l132 133l132 -133l-132 -131z" />
<glyph unicode="&#x62e;" horiz-adv-x="1482" vert-adv-y="1404" arabic-form="initial" d="M-44 0l36 140h206q287 0 459 13t376 50q-72 61 -260 234q-94 86 -162.5 124.5t-130.5 38.5q-70 0 -119.5 -32.5t-137.5 -135.5l-32 22q81 147 158.5 210.5t174.5 63.5q96 0 163.5 -41t256.5 -216q169 -157 259.5 -219t219.5 -109l-66 -135q-90 48 -134 62.5t-96 14.5 q-35 0 -111 -15q-336 -70 -875 -70h-185zM396 1065l131 133l133 -133l-133 -131z" />
<glyph unicode="&#x62e;" horiz-adv-x="1339" vert-adv-y="1404" arabic-form="medial" d="M-44 0l36 140h1036q-63 59 -162 170q-155 171 -227 224.5t-150 53.5q-75 0 -133.5 -32t-146.5 -121l-29 16q60 128 151.5 197.5t199.5 69.5q104 0 186 -58.5t275 -270.5q150 -164 210.5 -206.5t145.5 -42.5h36l-36 -140h-53q-122 0 -188 77q-38 -39 -74 -52 q-71 -25 -195 -25h-882zM334 1065l132 133l132 -133l-132 -131z" />
<glyph unicode="&#x62f;" horiz-adv-x="1213" vert-adv-y="1404" arabic-form="isolated" d="M186 113q0 98 77 238l24 -8q-15 -56 -15 -99q0 -88 45.5 -121.5t165.5 -33.5q330 0 471 67q-3 251 -190 578l72 154l43 18q81 -170 127.5 -342.5t46.5 -309.5q0 -146 -109 -230q-96 -76 -473 -76q-285 0 -285 165z" />
<glyph unicode="&#x62f;" horiz-adv-x="1299" vert-adv-y="1404" arabic-form="final" d="M186 113q0 97 77 238l24 -9q-15 -55 -15 -98q0 -88 45.5 -121.5t164.5 -33.5q329 0 472 66q-3 252 -190 579l72 154l43 18q116 -236 169 -541q25 -135 71 -180t157 -45h68l-36 -140h-62q-90 0 -139.5 24t-87.5 86q-38 -69 -95 -100q-114 -62 -453 -62q-285 0 -285 165z " />
<glyph unicode="&#x630;" horiz-adv-x="1213" vert-adv-y="1404" arabic-form="isolated" d="M186 113q0 98 77 238l24 -8q-15 -56 -15 -99q0 -88 45.5 -121.5t165.5 -33.5q330 0 471 67q-3 251 -190 578l72 154l43 18q81 -170 127.5 -342.5t46.5 -309.5q0 -146 -109 -230q-96 -76 -473 -76q-285 0 -285 165zM561 1185l132 131l132 -131l-132 -131z" />
<glyph unicode="&#x630;" horiz-adv-x="1299" vert-adv-y="1404" arabic-form="final" d="M186 113q0 97 77 238l24 -9q-15 -55 -15 -98q0 -88 45.5 -121.5t164.5 -33.5q329 0 472 66q-3 252 -190 579l72 154l43 18q116 -236 169 -541q25 -135 71 -180t157 -45h68l-36 -140h-62q-90 0 -139.5 24t-87.5 86q-38 -69 -95 -100q-114 -62 -453 -62q-285 0 -285 165z M523 1185l132 131l132 -131l-132 -131z" />
<glyph unicode="&#x631;" horiz-adv-x="1093" vert-adv-y="1404" arabic-form="isolated" d="M-149 -180l33 19q85 -115 177 -166.5t215 -51.5q179 0 354 152q184 159 184 316q0 89 -53.5 214t-142.5 241l61 154l43 17q64 -96 114 -210q89 -205 89 -303q0 -116 -74 -263t-190 -262q-107 -106 -207 -152t-224 -46q-154 0 -244.5 81t-134.5 260z" />
<glyph unicode="&#x631;" horiz-adv-x="1119" vert-adv-y="1404" arabic-form="final" d="M-149 -180l33 19q85 -115 177 -166.5t215 -51.5q179 0 354 152q184 159 184 316q0 89 -53.5 214t-142.5 241l61 154l43 17q127 -191 189 -430q22 -82 64 -109q57 -36 168 -36h20l-36 -140h-46q-96 0 -184 51q-72 -198 -202 -339q-116 -125 -224 -179t-241 -54 q-154 0 -244.5 81t-134.5 260z" />
<glyph unicode="&#x632;" horiz-adv-x="1093" vert-adv-y="1404" arabic-form="isolated" d="M-149 -180l33 19q85 -115 177 -166.5t215 -51.5q179 0 354 152q184 159 184 316q0 89 -53.5 214t-142.5 241l61 154l43 17q64 -96 114 -210q89 -205 89 -303q0 -116 -74 -263t-190 -262q-107 -106 -207 -152t-224 -46q-154 0 -244.5 81t-134.5 260zM340 971l125 125 l124 -125l-124 -123z" />
<glyph unicode="&#x632;" horiz-adv-x="1119" vert-adv-y="1404" arabic-form="final" d="M-149 -180l33 19q85 -115 177 -166.5t215 -51.5q179 0 354 152q184 159 184 316q0 89 -53.5 214t-142.5 241l61 154l43 17q127 -191 189 -430q22 -82 64 -109q57 -36 168 -36h20l-36 -140h-46q-96 0 -184 51q-72 -198 -202 -339q-116 -125 -224 -179t-241 -54 q-154 0 -244.5 81t-134.5 260zM458 971l125 125l125 -125l-125 -123z" />
<glyph unicode="&#x633;" horiz-adv-x="2519" vert-adv-y="1404" arabic-form="isolated" d="M123 -184q0 296 280 586l21 -15q-190 -257 -190 -483q0 -158 91 -234q51 -42 139.5 -67.5t184.5 -25.5q187 0 356.5 60.5t260.5 161.5q6 31 6 57q0 283 -165 577l58 152l45 20q122 -236 156 -465h35q218 0 310 43q11 42 11 81q0 87 -48 183l64 126l47 10q34 -94 34 -165 q0 -115 -47 -230q116 -54 277 -54q118 0 184 21q-6 168 -129 428l66 157l48 9q66 -187 88.5 -281.5t22.5 -188.5q0 -93 -49 -178q-32 -56 -72 -77q-58 -32 -168 -32q-223 0 -360 65q-84 -57 -273 -57h-27q-2 -92 -43.5 -186.5t-112.5 -164.5q-96 -97 -271 -155.5t-363 -58.5 q-118 0 -221.5 34.5t-158.5 92.5q-87 91 -87 254z" />
<glyph unicode="&#x633;" horiz-adv-x="2568" vert-adv-y="1404" arabic-form="final" d="M123 -184q0 296 280 586l21 -15q-190 -257 -190 -483q0 -158 91 -234q51 -42 139.5 -67.5t184.5 -25.5q187 0 356.5 60.5t260.5 161.5q6 31 6 57q0 283 -165 577l58 152l45 20q122 -236 156 -465h45q208 0 299 43q12 43 12 80q0 85 -41 180l60 131l44 9q33 -95 33 -165 q0 -115 -47 -230q117 -54 277 -54q119 0 185 21q-6 168 -129 428l65 157l49 9q57 -154 77.5 -233t32.5 -198q12 -100 57 -134q59 -44 216 -44h12l-37 -140h-56q-185 0 -232 117q-38 -73 -92 -99t-166 -26q-213 0 -351 65q-83 -57 -272 -57h-27q-2 -92 -43.5 -186.5 t-112.5 -164.5q-96 -97 -271 -155.5t-363 -58.5q-118 0 -221.5 34.5t-158.5 92.5q-87 91 -87 254z" />
<glyph unicode="&#x633;" horiz-adv-x="1596" vert-adv-y="1404" arabic-form="initial" d="M-44 0l36 140h130q90 0 161 27q7 39 7 72q0 64 -24 208l71 156l42 14q29 -92 29 -174q0 -158 -57 -293q59 -10 142 -10q203 0 295 43q12 42 12 80q0 84 -41 180l60 131l42 9q35 -95 35 -164q0 -117 -47 -231q116 -54 276 -54q119 0 185 21q-6 168 -128 428l65 157l48 9 q66 -185 88.5 -280.5t22.5 -190.5q0 -60 -24.5 -124.5t-62.5 -103.5q-56 -58 -211 -58q-214 0 -351 65q-84 -57 -263 -57q-143 0 -222 52q-73 -52 -192 -52h-124z" />
<glyph unicode="&#x633;" horiz-adv-x="1645" vert-adv-y="1404" arabic-form="medial" d="M-44 0l36 140h130q90 0 161 27q7 39 7 72q0 64 -24 208l71 156l42 14q29 -92 29 -174q0 -158 -57 -293q59 -10 142 -10q203 0 295 43q12 42 12 80q0 84 -41 180l60 131l42 9q35 -95 35 -164q0 -117 -47 -231q116 -54 276 -54q119 0 185 21q-6 168 -128 428l65 157l48 9 q57 -154 77.5 -233t33.5 -198q11 -100 56 -134q60 -44 216 -44h12l-37 -140h-56q-185 0 -231 117q-38 -73 -92 -99t-167 -26q-213 0 -350 65q-84 -57 -263 -57q-143 0 -222 52q-73 -52 -192 -52h-124z" />
<glyph unicode="&#x634;" horiz-adv-x="2519" vert-adv-y="1404" arabic-form="isolated" d="M123 -184q0 296 280 586l21 -15q-190 -257 -190 -483q0 -158 91 -234q51 -42 139.5 -67.5t184.5 -25.5q187 0 356.5 60.5t260.5 161.5q6 31 6 57q0 283 -165 577l58 152l45 20q122 -236 156 -465h35q218 0 310 43q11 42 11 81q0 87 -48 183l64 126l47 10q34 -94 34 -165 q0 -115 -47 -230q116 -54 277 -54q118 0 184 21q-6 168 -129 428l66 157l48 9q66 -187 88.5 -281.5t22.5 -188.5q0 -93 -49 -178q-32 -56 -72 -77q-58 -32 -168 -32q-223 0 -360 65q-84 -57 -273 -57h-27q-2 -92 -43.5 -186.5t-112.5 -164.5q-96 -97 -271 -155.5t-363 -58.5 q-118 0 -221.5 34.5t-158.5 92.5q-87 91 -87 254zM1498 935l123 123l121 -121l122 121l123 -123l-123 -123l-122 121l-121 -121zM1618 1164l124 124l126 -124l-126 -123z" />
<glyph unicode="&#x634;" horiz-adv-x="2568" vert-adv-y="1404" arabic-form="final" d="M123 -184q0 296 280 586l21 -15q-190 -257 -190 -483q0 -158 91 -234q51 -42 139.5 -67.5t184.5 -25.5q187 0 356.5 60.5t260.5 161.5q6 31 6 57q0 283 -165 577l58 152l45 20q122 -236 156 -465h45q208 0 299 43q12 43 12 80q0 85 -41 180l60 131l44 9q33 -95 33 -165 q0 -115 -47 -230q117 -54 277 -54q119 0 185 21q-6 168 -129 428l65 157l49 9q57 -154 77.5 -233t32.5 -198q12 -100 57 -134q59 -44 216 -44h12l-37 -140h-56q-185 0 -232 117q-38 -73 -92 -99t-166 -26q-213 0 -351 65q-83 -57 -272 -57h-27q-2 -92 -43.5 -186.5 t-112.5 -164.5q-96 -97 -271 -155.5t-363 -58.5q-118 0 -221.5 34.5t-158.5 92.5q-87 91 -87 254zM1525 962l126 127l127 -127l127 127l127 -127l-127 -127l-127 127l-127 -127zM1649 1192l129 127l128 -127l-128 -129z" />
<glyph unicode="&#x634;" horiz-adv-x="1596" vert-adv-y="1404" arabic-form="initial" d="M-44 0l36 140h130q90 0 161 27q7 39 7 72q0 64 -24 208l71 156l42 14q29 -92 29 -174q0 -158 -57 -293q59 -10 142 -10q203 0 295 43q12 42 12 80q0 84 -41 180l61 131l41 9q35 -95 35 -164q0 -117 -47 -231q116 -54 276 -54q119 0 185 21q-6 168 -128 428l65 157l48 9 q66 -185 88.5 -280.5t22.5 -190.5q0 -60 -24.5 -124.5t-62.5 -103.5q-56 -58 -211 -58q-214 0 -351 65q-84 -57 -263 -57q-143 0 -222 52q-73 -52 -192 -52h-124zM575 935l124 123l121 -121l121 121l123 -123l-123 -123l-121 121l-121 -121zM695 1164l125 124l125 -124 l-125 -123z" />
<glyph unicode="&#x634;" horiz-adv-x="1645" vert-adv-y="1404" arabic-form="medial" d="M-44 0l36 140h130q90 0 161 27q7 39 7 72q0 64 -24 208l71 156l42 14q29 -92 29 -174q0 -158 -57 -293q59 -10 142 -10q203 0 295 43q12 42 12 80q0 84 -41 180l60 131l42 9q35 -95 35 -164q0 -117 -47 -231q116 -54 276 -54q119 0 185 21q-6 168 -128 428l65 157l48 9 q57 -154 77.5 -233t33.5 -198q11 -100 56 -134q60 -44 216 -44h12l-37 -140h-56q-185 0 -231 117q-38 -73 -92 -99t-167 -26q-213 0 -350 65q-84 -57 -263 -57q-143 0 -222 52q-73 -52 -192 -52h-124zM485 962l127 127l127 -127l126 127l127 -127l-127 -127l-126 127 l-127 -127zM611 1192l128 127l128 -127l-128 -129z" />
<glyph unicode="&#x635;" horiz-adv-x="2975" vert-adv-y="1404" arabic-form="isolated" d="M123 -184q0 296 280 586l21 -15q-190 -257 -190 -484q0 -181 113 -259q98 -67 300 -67q188 0 358 60.5t261 161.5q6 32 6 55q0 271 -165 546l58 154l45 18q70 -126 102 -215t54 -217h222l394 292q132 97 212 135.5t152 38.5q154 0 308 -118q152 -117 152 -255 q0 -65 -32 -125t-82 -87q-67 -38 -224 -38q-68 0 -221 4q-114 3 -500 9l-189 4h-178q0 -107 -56.5 -217t-147.5 -181q-100 -79 -246.5 -123t-305.5 -44q-501 0 -501 381zM1694 136q290 -11 551 -11h57q161 2 205 1q146 -4 207 25q-15 77 -106 162q-162 148 -345 148 q-76 0 -162.5 -47t-316.5 -213l-69 -50z" />
<glyph unicode="&#x635;" horiz-adv-x="2970" vert-adv-y="1404" arabic-form="final" d="M123 -184q0 296 280 586l21 -15q-190 -257 -190 -484q0 -181 113 -259q98 -67 300 -67q188 0 358 60.5t261 161.5q6 32 6 54q0 272 -165 547l58 154l45 18q70 -126 102.5 -216t53.5 -216h220l50 38q333 256 416 312q175 116 295 116q97 0 207 -55.5t182 -141.5 q34 -41 49 -76t32 -120q8 -41 39.5 -57t107.5 -16h50l-36 -140h-51q-129 -2 -167 87q-36 -53 -88 -70t-180 -17h-1112q0 -81 -36.5 -171.5t-94.5 -158.5q-95 -109 -263.5 -172t-361.5 -63q-501 0 -501 381zM1692 140h769q200 0 251 11q-16 89 -130 182q-155 128 -316 128 q-80 0 -165.5 -46t-318.5 -211l-69 -49z" />
<glyph unicode="&#x635;" horiz-adv-x="1881" vert-adv-y="1404" arabic-form="initial" d="M-44 0l36 140h424q-40 195 -146 324l33 89l52 34q113 -121 145 -442l388 287q133 98 213 136t154 38q151 0 305 -118q152 -117 152 -255q0 -65 -32 -125t-82 -87q-67 -38 -223 -38q-64 0 -222 4q-105 3 -499 8q-214 5 -406 5h-292zM601 136q289 -11 551 -11h56 q161 2 205 1q146 -4 207 25q-15 77 -106 162q-162 148 -345 148q-75 0 -162 -47t-318 -213l-68 -50z" />
<glyph unicode="&#x635;" horiz-adv-x="1878" vert-adv-y="1404" arabic-form="medial" d="M-44 0l36 140h424q-40 195 -146 324l33 89l52 34q113 -121 145 -442l43 33q334 256 417 312q175 116 294 116q98 0 208 -55.5t182 -141.5q35 -41 49.5 -76t31.5 -120q9 -41 40 -57t108 -16h50l-37 -140h-51q-130 -2 -167 87q-36 -53 -88.5 -70t-180.5 -17h-1443zM601 140 h767q201 0 252 11q-17 89 -130 182q-155 128 -316 128q-79 0 -165 -46t-320 -211l-68 -49z" />
<glyph unicode="&#x636;" horiz-adv-x="2975" vert-adv-y="1404" arabic-form="isolated" d="M123 -184q0 296 280 586l21 -15q-190 -257 -190 -484q0 -181 113 -259q98 -67 300 -67q188 0 358 60.5t261 161.5q6 32 6 55q0 271 -165 546l58 154l45 18q70 -126 102 -215t54 -217h222l394 292q132 97 212 135.5t152 38.5q154 0 308 -118q152 -117 152 -255 q0 -65 -32 -125t-82 -87q-67 -38 -224 -38q-68 0 -221 4q-114 3 -500 9l-189 4h-178q0 -107 -56.5 -217t-147.5 -181q-100 -79 -246.5 -123t-305.5 -44q-501 0 -501 381zM1694 136q290 -11 551 -11h57q161 2 205 1q146 -4 207 25q-15 77 -106 162q-162 148 -345 148 q-76 0 -162.5 -47t-316.5 -213l-69 -50zM2011 971l132 131l132 -131l-132 -131z" />
<glyph unicode="&#x636;" horiz-adv-x="2970" vert-adv-y="1404" arabic-form="final" d="M123 -184q0 296 280 586l21 -15q-190 -257 -190 -484q0 -181 113 -259q98 -67 300 -67q188 0 358 60.5t261 161.5q6 32 6 54q0 272 -165 547l58 154l45 18q70 -126 102.5 -216t53.5 -216h220l50 38q333 256 416 312q175 116 295 116q97 0 207 -55.5t182 -141.5 q34 -41 49 -76t32 -120q8 -41 39.5 -57t107.5 -16h50l-36 -140h-51q-129 -2 -167 87q-36 -53 -88 -70t-180 -17h-1112q0 -81 -36.5 -171.5t-94.5 -158.5q-95 -109 -263.5 -172t-361.5 -63q-501 0 -501 381zM1692 140h769q200 0 251 11q-16 89 -130 182q-155 128 -316 128 q-80 0 -165.5 -46t-318.5 -211l-69 -49zM2033 971l132 131l132 -131l-132 -131z" />
<glyph unicode="&#x636;" horiz-adv-x="1881" vert-adv-y="1404" arabic-form="initial" d="M-44 0l36 140h424q-40 195 -146 324l33 89l52 34q113 -121 145 -442l388 287q133 98 213 136t154 38q151 0 305 -118q152 -117 152 -255q0 -65 -32 -125t-82 -87q-67 -38 -223 -38q-64 0 -222 4q-105 3 -499 8q-214 5 -406 5h-292zM601 136q289 -11 551 -11h56 q161 2 205 1q146 -4 207 25q-15 77 -106 162q-162 148 -345 148q-75 0 -162 -47t-318 -213l-68 -50zM941 971l132 131l132 -131l-132 -131z" />
<glyph unicode="&#x636;" horiz-adv-x="1878" vert-adv-y="1404" arabic-form="medial" d="M-44 0l36 140h424q-40 195 -146 324l33 89l52 34q113 -121 145 -442l43 33q334 256 417 312q175 116 294 116q98 0 208 -55.5t182 -141.5q35 -41 49.5 -76t31.5 -120q9 -41 40 -57t108 -16h50l-37 -140h-51q-130 -2 -167 87q-36 -53 -88.5 -70t-180.5 -17h-1443zM601 140 h767q201 0 252 11q-17 89 -130 182q-155 128 -316 128q-79 0 -165 -46t-320 -211l-68 -49zM941 971l132 131l132 -131l-132 -131z" />
<glyph unicode="&#x637;" horiz-adv-x="1780" vert-adv-y="1404" arabic-form="isolated" d="M73 150l25 30q80 -40 211 -40h83l84 65q23 245 23 404q0 485 -107 723l111 192h39q10 -97 31 -148.5t68 -93.5l-63 -109q27 -195 27 -437q0 -239 -27 -451q295 217 388 269t186 52q150 0 301 -114q158 -119 158 -261q0 -108 -79 -190q-36 -37 -96 -49t-213 -12 q-522 0 -841 17q-83 5 -126.5 19t-95.5 54q-41 31 -87 80zM499 136q289 -11 549 -11h58q162 2 205 1q146 -4 207 25q-14 76 -104 159q-163 151 -341 151q-85 0 -180 -53.5t-394 -271.5z" />
<glyph unicode="&#x637;" horiz-adv-x="1779" vert-adv-y="1404" arabic-form="final" d="M73 150l25 30q80 -40 211 -40h85l82 65q23 191 23 404q0 482 -108 723l112 192h39q13 -103 33 -152t66 -91l-63 -108q27 -200 27 -440q0 -248 -27 -452q103 82 279 202q178 123 296 123q98 0 209 -55.5t183 -141.5q35 -41 49 -76t32 -120q9 -41 40 -57t107 -16h51 l-36 -140h-52q-130 -2 -167 87q-36 -53 -88.5 -70t-180.5 -17h-862q-132 0 -205 30t-160 120zM502 140h767q201 0 251 11q-16 89 -129 182q-155 128 -316 128q-79 0 -165 -46t-320 -211l-69 -49z" />
<glyph unicode="&#x637;" horiz-adv-x="1602" vert-adv-y="1404" arabic-form="initial" d="M-44 0l36 140h224l83 65q22 190 22 405q0 480 -107 722l111 192h39q12 -103 32 -152t67 -91l-62 -108q26 -195 26 -439q0 -234 -26 -449l41 30q230 165 300 210q126 81 234 81q113 0 231 -69q226 -130 226 -304q0 -64 -32.5 -124.5t-81.5 -87.5q-68 -38 -226 -38 q-61 0 -189 3q-135 4 -564 10l-182 4h-202zM321 136q271 -11 554 -11h54h220q139 0 192 26q-15 84 -123 176q-159 134 -322 134q-107 0 -260 -101q-73 -49 -270 -191z" />
<glyph unicode="&#x637;" horiz-adv-x="1601" vert-adv-y="1404" arabic-form="medial" d="M-44 0l36 140h225l82 65q22 190 22 405q0 480 -107 722l111 192h39q12 -103 32 -152t67 -91l-63 -108q27 -204 27 -440q0 -245 -27 -452q103 82 279 202q178 123 296 123q99 0 210 -55.5t182 -141.5q34 -41 49 -76t31 -120q9 -41 40.5 -57t107.5 -16h51l-36 -140h-52 q-129 -2 -167 87q-36 -53 -88.5 -70t-179.5 -17h-1167zM323 140h769q200 0 251 11q-16 89 -130 182q-155 128 -315 128q-81 0 -166.5 -46t-318.5 -211l-69 -49z" />
<glyph unicode="&#x638;" horiz-adv-x="1780" vert-adv-y="1404" arabic-form="isolated" d="M73 150l25 30q80 -40 211 -40h83l84 65q23 245 23 404q0 485 -107 723l111 192h39q10 -97 31 -148.5t68 -93.5l-63 -109q27 -195 27 -437q0 -239 -27 -451q295 217 388 269t186 52q150 0 301 -114q158 -119 158 -261q0 -108 -79 -190q-36 -37 -96 -49t-213 -12 q-522 0 -841 17q-83 5 -126.5 19t-95.5 54q-41 31 -87 80zM499 136q289 -11 549 -11h58q162 2 205 1q146 -4 207 25q-14 76 -104 159q-163 151 -341 151q-85 0 -180 -53.5t-394 -271.5zM979 971l131 131l133 -131l-133 -131z" />
<glyph unicode="&#x638;" horiz-adv-x="1779" vert-adv-y="1404" arabic-form="final" d="M73 150l25 30q80 -40 211 -40h85l82 65q23 191 23 404q0 482 -108 723l112 192h39q13 -103 33 -152t66 -91l-63 -108q27 -200 27 -440q0 -248 -27 -452q103 82 279 202q178 123 296 123q98 0 209 -55.5t183 -141.5q35 -41 49 -76t32 -120q9 -41 40 -57t107 -16h51 l-36 -140h-52q-130 -2 -167 87q-36 -53 -88.5 -70t-180.5 -17h-862q-132 0 -205 30t-160 120zM502 140h767q201 0 251 11q-16 89 -129 182q-155 128 -316 128q-79 0 -165 -46t-320 -211l-69 -49zM979 971l131 131l133 -131l-133 -131z" />
<glyph unicode="&#x638;" horiz-adv-x="1602" vert-adv-y="1404" arabic-form="initial" d="M-44 0l36 140h224l83 65q22 190 22 405q0 480 -107 722l111 192h39q12 -103 32 -152t67 -91l-62 -108q26 -195 26 -439q0 -234 -26 -449l41 30q230 165 300 210q126 81 234 81q113 0 231 -69q226 -130 226 -304q0 -64 -32.5 -124.5t-81.5 -87.5q-68 -38 -226 -38 q-61 0 -189 3q-135 4 -564 10l-182 4h-202zM321 136q271 -11 554 -11h54h220q139 0 192 26q-15 84 -123 176q-159 134 -322 134q-107 0 -260 -101q-73 -49 -270 -191zM832 971l132 131l132 -131l-132 -131z" />
<glyph unicode="&#x638;" horiz-adv-x="1601" vert-adv-y="1404" arabic-form="medial" d="M-44 0l36 140h222l85 65q22 255 22 393q0 490 -107 734l111 192h39q12 -100 32 -150t67 -93l-62 -108q26 -199 26 -431q0 -241 -26 -457l41 30q237 171 305 213q123 78 241 78q149 0 276.5 -97t168.5 -241q20 -75 36 -95q27 -33 126 -33h51l-37 -140h-61q-126 0 -161 97 q-45 -56 -105.5 -76.5t-180.5 -20.5h-1145zM332 140h1006q-9 57 -60 122q-158 198 -374 198q-93 0 -184.5 -51.5t-387.5 -268.5zM832 971l132 131l132 -131l-132 -131z" />
<glyph unicode="&#x639;" horiz-adv-x="1279" vert-adv-y="1404" arabic-form="isolated" d="M134 -424q0 394 335 686q-105 45 -169.5 120.5t-64.5 154.5q0 141 110 284q127 165 300 165q106 0 180 -50.5t74 -122.5q0 -37 -17 -103h-26q-37 53 -114.5 89t-155.5 36q-87 0 -152 -36q-109 -63 -109 -166q0 -81 84.5 -154t213.5 -104q116 62 182.5 91.5t288.5 114.5 l33 13l8 -22l-58 -120q-54 -19 -303 -124q-339 -144 -462 -350q-88 -147 -88 -300q0 -226 165 -346q154 -112 415 -112q171 0 342 51t309 143l14 -21q-78 -110 -189 -181q-219 -138 -525 -138q-291 0 -447 115q-174 127 -174 387z" />
<glyph unicode="&#x639;" horiz-adv-x="1114" vert-adv-y="1404" arabic-form="final" d="M162 -401q0 461 514 703q-11 51 -57 107q-56 66 -194 66q-14 0 -48 -1l-23 55q41 74 81 119q90 101 218 101q124 0 203 -86q60 -66 60 -159q0 -136 -136 -233q21 -69 69.5 -100t136.5 -31h172l-36 -140h-180q-131 0 -183 46.5t-73 178.5q-203 -95 -311.5 -237 t-108.5 -312q0 -213 139 -335q140 -121 387 -121q253 0 478 83l15 -18q-171 -207 -557 -207q-230 0 -374 97q-192 130 -192 424z" />
<glyph unicode="&#x639;" horiz-adv-x="1145" vert-adv-y="1404" arabic-form="initial" d="M-44 0l36 140h294q-70 92 -70 206q0 122 68 244q104 183 280 183q111 0 195 -64.5t84 -151.5q0 -54 -29 -147l-27 -3q-40 86 -66 115q-97 111 -238 111q-92 0 -140 -56q-45 -51 -45 -122q0 -109 136 -200q82 -54 208 -89q170 7 421 61l4 -21l-63 -127q-422 -79 -897 -79 h-151z" />
<glyph unicode="&#x639;" horiz-adv-x="975" vert-adv-y="1404" arabic-form="medial" d="M-44 0l36 140h22q201 0 323.5 36.5t199.5 118.5q-33 180 -252 180q-15 0 -47 -1l-24 55q123 220 297 220q101 0 165.5 -62.5t64.5 -162.5q0 -143 -95 -269q20 -63 70 -89t149 -26h154l-36 -140h-164q-124 0 -186.5 38t-75.5 123q-195 -161 -576 -161h-25z" />
<glyph unicode="&#x63a;" horiz-adv-x="1279" vert-adv-y="1404" arabic-form="isolated" d="M134 -424q0 394 335 686q-105 45 -169.5 120.5t-64.5 154.5q0 141 110 284q127 165 300 165q106 0 180 -50.5t74 -122.5q0 -37 -17 -103h-26q-37 53 -114.5 89t-155.5 36q-87 0 -152 -36q-109 -63 -109 -166q0 -81 84.5 -154t213.5 -104q116 62 182.5 91.5t288.5 114.5 l33 13l8 -22l-58 -120q-54 -19 -303 -124q-339 -144 -462 -350q-88 -147 -88 -300q0 -226 165 -346q154 -112 415 -112q171 0 342 51t309 143l14 -21q-78 -110 -189 -181q-219 -138 -525 -138q-291 0 -447 115q-174 127 -174 387zM460 1286l132 132l131 -132l-131 -132z" />
<glyph unicode="&#x63a;" horiz-adv-x="1114" vert-adv-y="1404" arabic-form="final" d="M162 -401q0 461 514 703q-11 51 -57 107q-56 66 -194 66q-14 0 -48 -1l-23 55q41 74 81 119q90 101 218 101q124 0 203 -86q60 -66 60 -159q0 -136 -136 -233q21 -69 69.5 -100t136.5 -31h172l-36 -140h-180q-131 0 -183 46.5t-73 178.5q-203 -95 -311.5 -237 t-108.5 -312q0 -213 139 -335q140 -121 387 -121q253 0 478 83l15 -18q-171 -207 -557 -207q-230 0 -374 97q-192 130 -192 424zM477 1065l132 133l132 -133l-132 -131z" />
<glyph unicode="&#x63a;" horiz-adv-x="1145" vert-adv-y="1404" arabic-form="initial" d="M-44 0l36 140h294q-70 92 -70 206q0 122 68 244q104 183 280 183q111 0 195 -64.5t84 -151.5q0 -54 -29 -147l-27 -3q-40 86 -66 115q-97 111 -238 111q-92 0 -140 -56q-45 -51 -45 -122q0 -109 136 -200q82 -54 208 -89q170 7 421 61l4 -21l-63 -127q-422 -79 -897 -79 h-151zM396 1066l131 133l133 -133l-133 -131z" />
<glyph unicode="&#x63a;" horiz-adv-x="975" vert-adv-y="1404" arabic-form="medial" d="M-44 0l36 140h22q201 0 323.5 36.5t199.5 118.5q-33 180 -252 180q-15 0 -47 -1l-24 55q123 220 297 220q101 0 165.5 -62.5t64.5 -162.5q0 -143 -95 -269q20 -63 70 -89t149 -26h154l-36 -140h-164q-124 0 -186.5 38t-75.5 123q-195 -161 -576 -161h-25zM337 1065 l131 133l133 -133l-133 -131z" />
<glyph unicode="&#x641;" horiz-adv-x="2262" vert-adv-y="1404" arabic-form="isolated" d="M190 259q0 176 146 382l24 -12q-80 -137 -80 -265q0 -165 196 -223q124 -37 453 -37q228 0 519 14t387 30q133 23 152 117q-147 1 -255 32q-209 59 -209 211q0 97 71 222q97 172 208 172q110 0 193 -139t83 -322q0 -332 -211 -418q-144 -60 -896 -60q-269 0 -401.5 12 t-214.5 45q-165 64 -165 239zM1517 1179l131 131l133 -131l-133 -132zM1612 641q0 -189 373 -221q-25 147 -95 241t-155 94q-53 0 -88 -32.5t-35 -81.5z" />
<glyph unicode="&#x641;" horiz-adv-x="2313" vert-adv-y="1404" arabic-form="final" d="M242 258q0 176 146 382l24 -11q-80 -137 -80 -266q0 -165 196 -224q124 -36 437 -36q470 0 713 37q-170 117 -170 284q0 143 122 289q111 134 218 134q106 0 178 -150q53 -112 53 -231q0 -176 -103 -293q131 -33 321 -33h61l-36 -140h-62q-229 0 -424 73 q-100 -47 -181 -62q-239 -48 -687 -48q-418 0 -561 57q-165 64 -165 238zM1598 512q0 -173 300 -309q81 62 81 163q0 106 -56 223q-54 111 -137 111q-78 0 -133 -55.5t-55 -132.5zM1643 1133l132 131l132 -131l-132 -131z" />
<glyph unicode="&#x641;" horiz-adv-x="927" vert-adv-y="1404" arabic-form="initial" d="M-44 0l36 140h137q286 0 396.5 26t127.5 98q-146 2 -256 33q-208 59 -208 211q0 125 94 259t183 134q111 0 194 -138.5t83 -321.5q0 -282 -169 -379q-108 -62 -479 -62h-139zM182 1179l132 131l132 -131l-132 -132zM278 640q0 -188 373 -221q-26 147 -96 241t-154 94 q-54 0 -88.5 -32.5t-34.5 -81.5z" />
<glyph unicode="&#x641;" horiz-adv-x="1016" vert-adv-y="1404" arabic-form="medial" d="M-44 0l36 140h388q-170 119 -170 285q0 142 121 288q112 134 220 134q105 0 176 -150q53 -111 53 -232q0 -176 -102 -292q131 -33 321 -33h61l-37 -140h-62q-221 0 -418 70q-84 -45 -153.5 -57.5t-229.5 -12.5h-204zM300 512q0 -173 300 -309q80 62 80 163q0 106 -56 223 q-54 111 -138 111q-76 0 -131 -55.5t-55 -132.5zM345 1133l132 131l132 -131l-132 -131z" />
<glyph unicode="&#x642;" horiz-adv-x="1587" vert-adv-y="1404" arabic-form="isolated" d="M120 -220q0 284 137 529l28 -14q-80 -222 -80 -397q0 -413 429 -413q197 0 381 76t296 206l9 14q2 23 2 44q0 82 -15 177q-98 -11 -165 -11q-351 0 -351 179q0 108 84 252q93 160 191 160q141 0 237 -200q44 -90 71 -214t27 -230q0 -235 -244 -415q-243 -181 -579 -181 q-234 0 -347 106q-111 105 -111 332zM776 967l124 125l118 -119l119 119l124 -125l-124 -124l-119 118l-118 -118zM879 293q0 -157 332 -157l56 1q-44 130 -94 194q-83 107 -174 107q-53 0 -86.5 -40.5t-33.5 -104.5z" />
<glyph unicode="&#x642;" horiz-adv-x="1584" vert-adv-y="1404" arabic-form="final" d="M120 -220q0 284 137 529l28 -14q-80 -221 -80 -397q0 -413 429 -413q197 0 381 76t296 206l9 14q2 23 2 43q0 83 -15 176h-131q-207 0 -296 39t-89 131q0 108 84 252q93 160 190 160q106 0 189 -116t126 -326h249l-37 -140h-194q3 -34 3 -58q0 -239 -244 -419 q-243 -181 -579 -181q-234 0 -347 106q-111 105 -111 332zM776 967l124 125l118 -119l119 119l124 -125l-124 -124l-119 118l-118 -118zM879 295q0 -155 324 -155h64q-44 128 -94 192q-83 106 -174 106q-53 0 -86.5 -40t-33.5 -103z" />
<glyph unicode="&#x642;" horiz-adv-x="927" vert-adv-y="1404" arabic-form="initial" d="M-44 0l36 140h137q286 0 396.5 26t127.5 98q-146 2 -256 33q-208 59 -208 211q0 125 94 259t183 134q111 0 194 -138.5t83 -321.5q0 -282 -169 -379q-108 -62 -479 -62h-139zM121 1179l124 123l118 -118l118 118l125 -123l-125 -125l-118 119l-118 -119zM278 640 q0 -188 373 -221q-26 147 -96 241t-154 94q-54 0 -88.5 -32.5t-34.5 -81.5z" />
<glyph unicode="&#x642;" horiz-adv-x="1016" vert-adv-y="1404" arabic-form="medial" d="M-44 0l36 140h388q-170 119 -170 285q0 142 121 288q112 134 220 134q105 0 176 -150q53 -111 53 -232q0 -176 -102 -292q131 -33 321 -33h61l-37 -140h-62q-221 0 -418 70q-84 -45 -153.5 -57.5t-229.5 -12.5h-204zM234 1141l125 123l118 -117l119 117l124 -123 l-124 -125l-119 119l-118 -119zM300 512q0 -173 300 -309q80 62 80 163q0 106 -56 223q-54 111 -138 111q-76 0 -131 -55.5t-55 -132.5z" />
<glyph unicode="&#x643;" horiz-adv-x="1913" vert-adv-y="1404" arabic-form="isolated" d="M169 267q0 169 149 424l26 -15q-89 -188 -89 -298q0 -151 152 -211t532 -60q440 0 652 52q-2 172 -66 696q-26 204 -46.5 297.5t-59.5 176.5l113 195h39q11 -94 32.5 -145t66.5 -91l-61 -106q15 -101 28 -277q19 -273 29 -383q13 -144 13 -194q0 -108 -46 -190.5 t-128 -119.5q-49 -21 -232 -37t-382 -16q-394 0 -545 59q-94 37 -135.5 93.5t-41.5 149.5zM716 416l56 114q229 35 303 121q-34 -3 -63 -3q-81 0 -111.5 13t-30.5 49q0 67 69 185.5t134 160.5l7 -20l-92 -191q-46 -16 -46 -38q0 -30 109 -30q18 0 28 1q35 2 42 2 q27 0 27 -23q0 -53 -48 -140.5t-99 -127.5q-74 -58 -281 -95z" />
<glyph unicode="&#x643;" horiz-adv-x="1900" vert-adv-y="1404" arabic-form="final" d="M169 267q0 169 149 423l26 -14q-89 -189 -89 -299q0 -151 152 -211t533 -60q439 0 651 53q-2 172 -66 696q-26 204 -46.5 297.5t-59.5 176.5l113 195h39q11 -95 32.5 -145.5t66.5 -90.5l-61 -106q15 -102 28 -277q39 -546 56 -633q17 -85 50.5 -108.5t136.5 -23.5h64 l-36 -140h-135q-128 0 -158 110q-60 -80 -131 -99q-68 -20 -242 -33t-351 -13q-394 0 -545 59q-94 37 -135.5 93.5t-41.5 149.5zM716 416l56 114q229 35 303 121q-34 -3 -63 -3q-81 0 -111.5 13t-30.5 49q0 67 69 185.5t134 160.5l7 -20l-92 -191q-46 -16 -46 -38 q0 -30 109 -30q18 0 28 1q35 2 42 2q27 0 27 -23q0 -53 -48 -140.5t-99 -127.5q-74 -58 -281 -95z" />
<glyph unicode="&#x643;" horiz-adv-x="1131" vert-adv-y="1404" arabic-form="initial" d="M-44 0l36 140h659q147 0 222 10v18q0 210 -279 422q-196 149 -558 324q4 100 77 220q317 125 437 178t437 208l7 -26l-59 -119l-792 -355q255 -119 467 -264q194 -133 284 -282q70 -116 70 -214q0 -75 -28.5 -135t-76.5 -88q-44 -25 -87.5 -31t-188.5 -6h-627z" />
<glyph unicode="&#x643;" horiz-adv-x="1185" vert-adv-y="1404" arabic-form="medial" d="M-44 0l36 140h659q147 0 222 10v18q0 178 -199 356t-638 390q4 100 77 220q317 125 437 178t437 208l7 -26l-59 -119l-792 -355q400 -186 591.5 -362t239.5 -399q16 -74 58 -93q56 -26 141 -26h57l-36 -140h-60q-85 0 -133 23t-75 78q-25 -65 -86 -83t-257 -18h-627z" />
<glyph unicode="&#x644;" horiz-adv-x="1611" vert-adv-y="1404" arabic-form="isolated" d="M172 -21q0 291 174 515l19 -16q-101 -186 -101 -374q0 -210 138 -317q112 -86 322 -86q317 0 570 278q-4 315 -50 704q-38 310 -63 436t-66 209l115 196h39q12 -96 32.5 -145.5t66.5 -90.5l-62 -107q29 -260 51 -597.5t22 -509.5q0 -170 -159 -312q-109 -97 -254.5 -150 t-302.5 -53q-236 0 -363.5 109.5t-127.5 310.5z" />
<glyph unicode="&#x644;" horiz-adv-x="1597" vert-adv-y="1404" arabic-form="final" d="M172 -21q0 291 174 515l19 -16q-101 -186 -101 -374q0 -210 138 -317q112 -86 322 -86q317 0 570 278v31q-4 266 -50 673q-38 310 -63 436t-66 209l115 196h39q12 -96 32.5 -145.5t66.5 -90.5l-62 -107q23 -211 56 -618q26 -343 48 -379q24 -44 144 -44h88l-37 -140h-84 q-83 0 -145 23q-22 -141 -156 -260q-109 -97 -254.5 -150.5t-302.5 -53.5q-236 0 -363.5 109.5t-127.5 310.5z" />
<glyph unicode="&#x644;" horiz-adv-x="595" vert-adv-y="1404" arabic-form="initial" d="M-44 0l36 140h108q152 0 213 12q-3 182 -60 635q-33 261 -54 361t-61 180l114 196h40q12 -96 32.5 -145.5t65.5 -90.5l-61 -107q25 -234 48.5 -576.5t23.5 -479.5q0 -89 -50 -107q-46 -18 -227 -18h-168z" />
<glyph unicode="&#x644;" horiz-adv-x="634" vert-adv-y="1404" arabic-form="medial" d="M-44 0l36 140h108q151 0 213 12q-23 365 -77 766q-24 178 -43.5 259.5t-54.5 150.5l114 196h40q11 -95 32 -145t66 -91l-61 -107q25 -228 49 -586q17 -233 26 -302.5t24 -97.5q18 -31 52 -43t110 -12h88l-36 -140h-93q-72 0 -107 11.5t-71 46.5q-42 -34 -118.5 -46 t-249.5 -12h-47z" />
<glyph unicode="&#x645;" horiz-adv-x="1082" vert-adv-y="1404" arabic-form="isolated" d="M96 -121q0 49 23 110.5t55 99.5q60 71 199 71q12 0 32 -1l338 -9q-107 164 -157.5 217t-98.5 53q-95 0 -213 -202l-39 16q72 160 150.5 247t150.5 87q127 0 304 -293q55 -89 80 -112t82 -35l-39 -128q-513 16 -681 16q-60 0 -81 -12t-21 -45q0 -34 35 -174 q14 -57 43 -201q17 -89 40 -199q25 -122 28 -187l-57 -120h-23q-10 116 -121 612q-29 135 -29 189z" />
<glyph unicode="&#x645;" horiz-adv-x="1043" vert-adv-y="1404" arabic-form="final" d="M96 -120q0 98 65 193q60 87 202 87q5 0 42 -1l338 -9q-106 164 -157 217t-99 53q-96 0 -213 -202l-39 16q150 334 299 334q66 0 127.5 -59t178.5 -234q56 -82 98.5 -108.5t118.5 -26.5h31l-41 -140q-571 16 -784 16q-83 0 -83 -56q0 -35 35 -175q14 -56 43 -201 q15 -82 38 -191q26 -124 30 -195l-57 -120h-23q-11 131 -77 421q-73 316 -73 381z" />
<glyph unicode="&#x645;" horiz-adv-x="1008" vert-adv-y="1404" arabic-form="initial" d="M-44 0l36 140h28q117 0 144 21q20 15 33.5 45t68.5 185q57 163 93.5 213.5t95.5 50.5q137 0 277 -180q110 -141 110 -278q0 -64 -41 -137.5t-77 -73.5q-16 0 -67 21q-134 57 -422 83q-33 -57 -77 -73.5t-161 -16.5h-41zM289 224q87 -2 218 -26t239 -58q-40 139 -117 233 q-106 131 -183 131q-40 0 -65.5 -44t-82.5 -212z" />
<glyph unicode="&#x645;" horiz-adv-x="1052" vert-adv-y="1404" arabic-form="medial" d="M-44 0l36 140h28q117 0 144 21q20 15 33.5 44.5t68.5 185.5q58 164 94 214t95 50q137 0 277 -180q54 -68 107 -205q32 -85 66.5 -107.5t127.5 -22.5h64l-37 -140h-52q-145 0 -205 66q-29 -49 -44 -64.5t-35 -15.5q-16 0 -66 21q-163 64 -423 83q-33 -57 -77 -73.5 t-161 -16.5h-41zM289 224q87 -2 218 -26t239 -58q-40 139 -117 233q-106 131 -183 131q-40 0 -65.5 -44t-82.5 -212z" />
<glyph unicode="&#x646;" horiz-adv-x="1570" vert-adv-y="1404" arabic-form="isolated" d="M123 -181q0 293 280 584l21 -15q-190 -258 -190 -486q0 -325 415 -325q187 0 356.5 60.5t258.5 159.5q7 37 7 62q0 276 -164 568l60 152l43 17q167 -322 167 -588q0 -193 -133 -340q-94 -105 -270.5 -169t-369.5 -64q-236 0 -366 102q-115 92 -115 282zM672 970l133 132 l131 -132l-131 -131z" />
<glyph unicode="&#x646;" horiz-adv-x="1563" vert-adv-y="1404" arabic-form="final" d="M123 -181q0 293 280 584l21 -15q-190 -258 -190 -486q0 -325 415 -325q187 0 356.5 60.5t258.5 159.5q7 37 7 62q0 276 -164 568l60 152l43 17q70 -130 116 -267q39 -119 76 -150q48 -39 189 -39h17l-37 -140h-45q-88 0 -150 46q1 -27 1 -44q0 -186 -133 -334 q-93 -105 -270 -169t-370 -64q-236 0 -366 102q-115 92 -115 282zM672 970l133 132l131 -132l-131 -131z" />
<glyph unicode="&#x646;" horiz-adv-x="675" vert-adv-y="1404" arabic-form="initial" d="M-44 0l36 140h32q266 0 363 48q-12 191 -163 393l61 154l43 17q157 -244 157 -456q0 -102 -54 -172t-156 -99q-87 -25 -277 -25h-42zM94 971l132 131l133 -131l-133 -131z" />
<glyph unicode="&#x646;" horiz-adv-x="735" vert-adv-y="1404" arabic-form="medial" d="M-44 0l36 140h23q270 0 372 48q-1 85 -45 192t-118 201l61 154l43 17q111 -162 149 -353q32 -152 65 -197q44 -62 177 -62h61l-36 -140h-72q-96 0 -149.5 33.5t-78.5 107.5q-33 -78 -121 -109q-92 -32 -335 -32h-32zM94 971l132 131l133 -131l-133 -131z" />
<glyph unicode="&#x647;" horiz-adv-x="1101" vert-adv-y="1404" arabic-form="isolated" d="M180 237q0 88 50 182.5t164 224.5l-84 50l66 111l32 10q288 -170 400.5 -284.5t112.5 -235.5q0 -126 -95 -235q-45 -52 -103 -72.5t-158 -20.5q-176 0 -267 57q-118 72 -118 213zM292 317q0 -114 102 -165q93 -46 226 -46q150 0 214 66q0 74 -24.5 126t-84.5 107 q-130 119 -277 208q-156 -178 -156 -296z" />
<glyph unicode="&#x647;" horiz-adv-x="978" vert-adv-y="1404" arabic-form="final" d="M132 300l23 114q8 37 16 48.5t42 28.5q233 122 367 320q-10 95 -37 155l129 136h34q8 -166 11 -229q24 -523 61 -617q26 -63 71 -89.5t128 -26.5h45l-43 -140h-37q-109 0 -169 25t-91 85q-47 89 -71 407q-9 115 -13 158q-108 -147 -328 -261q145 -65 303 -164l-81 -142 q-177 116 -360 192z" />
<glyph unicode="&#x647;" horiz-adv-x="1235" vert-adv-y="1404" arabic-form="initial" d="M-44 0l36 140h321q-85 70 -115 121t-30 121q0 117 73.5 196t206.5 107l-119 106l42 117l32 12q673 -525 673 -714q0 -85 -93 -225q-69 -103 -142 -103q-48 0 -108 24t-201 98h-576zM294 453q0 -88 105 -174q17 -12 142 -101q102 92 102 218q0 87 -49.5 140t-131.5 53 q-72 0 -120 -39t-48 -97zM641 98q126 -79 236 -79q85 0 85 88q0 75 -65 163q-29 36 -135 139q1 -25 1 -36q0 -157 -122 -275z" />
<glyph unicode="&#x647;" horiz-adv-x="913" vert-adv-y="1404" arabic-form="medial" d="M-44 0l36 140h213q-4 53 -4 100q0 185 44.5 340.5t126.5 259.5l32 3q111 -61 176 -180q96 -175 96 -396q0 -34 -14 -64.5t-75 -127.5q-35 -56 -45 -65.5t-36 -9.5h-134q42 -104 184 -257q16 192 109 294.5t251 102.5h41l-36 -140h-11q-147 0 -208.5 -44.5t-61.5 -150.5 q0 -112 113 -249l-120 -120q-338 313 -401 564h-276zM318 327q0 -119 16 -187h238q5 28 5 45q0 138 -53 264.5t-142 203.5q-64 -130 -64 -326z" />
<glyph unicode="&#x648;" horiz-adv-x="1131" vert-adv-y="1404" arabic-form="isolated" d="M-121 -239l30 19q67 -88 121 -136q110 -99 273 -99q119 0 230.5 56t187.5 154q79 101 91 209q-149 6 -269 39q-102 28 -145.5 70.5t-43.5 113.5q0 120 101 267q90 131 188 131q103 0 188 -137q81 -132 81 -305q0 -124 -49 -259.5t-130 -238.5q-190 -236 -472 -236 q-234 0 -329 185q-29 57 -53 167zM446 307q0 -97 149 -148q99 -35 223 -46q-22 141 -91 233.5t-154 92.5q-53 0 -90 -38.5t-37 -93.5z" />
<glyph unicode="&#x648;" horiz-adv-x="1085" vert-adv-y="1404" arabic-form="final" d="M-121 -239l30 19q82 -125 170.5 -179t213.5 -54q188 0 337 117q86 67 139 156.5t61 179.5q-250 3 -365 51t-115 150q0 125 100 262.5t190 137.5q108 0 189.5 -137.5t84.5 -323.5h216l-36 -140h-193q-46 -204 -166 -353q-191 -238 -470 -238q-237 0 -333 185 q-29 57 -53 167zM450 317q0 -81 88 -122.5t282 -51.5q-24 136 -92.5 223.5t-153.5 87.5q-53 0 -88.5 -39.5t-35.5 -97.5z" />
<glyph unicode="&#x649;" horiz-adv-x="1721" vert-adv-y="1404" arabic-form="isolated" d="M142 -137q0 137 43.5 266t144.5 290q72 114 160 213l26 -20q-147 -218 -208.5 -372t-61.5 -298q0 -210 162 -304q115 -66 318 -66q324 0 551 125q99 55 155 152q-21 29 -82 46.5t-268 52.5q-190 33 -210 45q-41 25 -41 78q0 78 49 173t129 173q99 97 230.5 154.5 t254.5 57.5q70 0 92 -31l-102 -203l-38 13q6 33 6 46q0 28 -46 28q-66 0 -160 -33t-169 -82q-65 -43 -108 -96.5t-43 -92.5q0 -24 37 -40t132 -31q277 -47 350 -74.5t73 -85.5q0 -131 -113 -251q-124 -133 -344 -206q-186 -61 -394 -61q-223 0 -354 76q-80 46 -116 111 q-55 98 -55 247z" />
<glyph unicode="&#x649;" horiz-adv-x="1402" vert-adv-y="1404" arabic-form="final" d="M142 -160q0 282 211 611q61 95 137 180l25 -19q-18 -33 -90 -149q-180 -297 -180 -519q0 -196 121 -296.5t359 -100.5q235 0 382 41.5t167 111.5q-69 29 -194 46q-109 15 -137.5 21.5t-47.5 20.5q-24 17 -24 61q0 126 92 225q61 66 227 66h256l-37 -140h-398 q-52 0 -52 -50q0 -22 20.5 -30.5t108.5 -23.5q125 -22 170 -48q64 -37 64 -119q0 -125 -99 -203q-68 -54 -205 -86t-302 -32q-277 0 -424 100q-150 102 -150 332z" />
<glyph unicode="&#x64a;" horiz-adv-x="1721" vert-adv-y="1404" arabic-form="isolated" d="M142 -137q0 137 43.5 266t144.5 290q72 114 160 213l26 -20q-147 -218 -208.5 -372t-61.5 -298q0 -210 162 -304q115 -66 318 -66q324 0 551 125q99 55 155 152q-21 29 -82 46.5t-268 52.5q-190 33 -210 45q-41 25 -41 78q0 78 49 173t129 173q99 97 230.5 154.5 t254.5 57.5q70 0 92 -31l-102 -203l-38 13q6 33 6 46q0 28 -46 28q-66 0 -160 -33t-169 -82q-65 -43 -108 -96.5t-43 -92.5q0 -24 37 -40t132 -31q277 -47 350 -74.5t73 -85.5q0 -131 -113 -251q-124 -133 -344 -206q-186 -61 -394 -61q-223 0 -354 76q-80 46 -116 111 q-55 98 -55 247zM466 -782l126 125l118 -118l119 118l127 -125l-127 -126l-119 118l-118 -118z" />
<glyph unicode="&#x64a;" horiz-adv-x="1402" vert-adv-y="1404" arabic-form="final" d="M142 -160q0 282 211 611q61 95 137 180l25 -19q-18 -33 -90 -149q-180 -297 -180 -519q0 -196 121 -296.5t359 -100.5q235 0 382 41.5t167 111.5q-69 29 -194 46q-109 15 -137.5 21.5t-47.5 20.5q-24 17 -24 61q0 126 92 225q61 66 227 66h256l-37 -140h-398 q-52 0 -52 -50q0 -22 20.5 -30.5t108.5 -23.5q125 -22 170 -48q64 -37 64 -119q0 -125 -99 -203q-68 -54 -205 -86t-302 -32q-277 0 -424 100q-150 102 -150 332zM450 -782l126 125l119 -118l118 118l127 -125l-127 -126l-118 118l-119 -118z" />
<glyph unicode="&#x64a;" horiz-adv-x="675" vert-adv-y="1404" arabic-form="initial" d="M-44 0l36 140h32q266 0 363 48q-12 191 -163 393l61 154l43 17q157 -244 157 -456q0 -102 -54 -172t-156 -99q-87 -25 -277 -25h-42zM2 -324l126 126l119 -119l119 119l126 -126l-126 -126l-119 119l-119 -119z" />
<glyph unicode="&#x64a;" horiz-adv-x="735" vert-adv-y="1404" arabic-form="medial" d="M-44 0l36 140h23q270 0 372 48q-1 85 -45 192t-118 201l61 154l43 17q111 -162 149 -353q32 -152 65 -197q44 -62 177 -62h61l-36 -140h-72q-96 0 -149.5 33.5t-78.5 107.5q-33 -78 -121 -109q-92 -32 -335 -32h-32zM2 -324l126 126l119 -119l119 119l126 -126l-126 -126 l-119 119l-119 -119z" />
<glyph horiz-adv-x="0" vert-adv-y="0" />
<glyph horiz-adv-x="507" vert-adv-y="1404" />
<glyph unicode=" " horiz-adv-x="507" vert-adv-y="1404" />
<glyph unicode="!" horiz-adv-x="543" vert-adv-y="1404" d="M184 0v245h176v-245h-176zM189 1235v278h166v-278l-26 -733h-114z" />
<glyph unicode="&#x22;" horiz-adv-x="812" vert-adv-y="1404" d="M147 1352v161h166v-161l-34 -419h-97zM500 1352v161h166v-161l-34 -419h-96z" />
<glyph unicode="#" horiz-adv-x="1417" vert-adv-y="1404" d="M140 381v115h241l103 441h-214v115h240l88 379h112l-88 -379h330l88 379h112l-89 -379h211v-115h-236l-103 -441h209v-115h-235l-88 -381h-112l88 381h-330l-88 -381h-112l88 381h-215zM494 496h329l102 441h-329z" />
<glyph unicode="$" horiz-adv-x="1312" vert-adv-y="1404" d="M78 400l133 31q41 -156 107 -230q98 -107 280 -121v634l-92 19q-393 80 -393 403q0 204 157 317q122 87 328 96v119h112v-123q213 -18 327 -124q92 -86 139 -249l-124 -44q-56 160 -141 228q-74 61 -201 79v-608l119 -24q192 -41 282 -142q91 -102 91 -270 q0 -208 -148 -318q-124 -93 -344 -107v-152h-112v152q-234 12 -364 132q-107 100 -156 302zM249 1147q0 -115 72 -188q70 -69 223 -100l54 -10v590q-157 -8 -246 -75q-103 -76 -103 -217zM710 80q347 29 347 296q0 133 -78 207q-67 64 -213 97l-56 13v-613z" />
<glyph unicode="%" horiz-adv-x="1916" vert-adv-y="1404" d="M80 1014q0 453 333 453q338 0 338 -450q0 -451 -334 -451q-147 0 -226 78q-111 110 -111 370zM197 1017q0 -353 215 -353q222 0 222 356q0 349 -220 349q-217 0 -217 -352zM552 -36l689 1503h120l-689 -1503h-120zM1166 414q0 451 332 451q339 0 339 -449 q0 -452 -334 -452q-147 0 -226 78q-111 111 -111 372zM1283 416q0 -354 214 -354q223 0 223 358q0 346 -221 346q-216 0 -216 -350z" />
<glyph unicode="&#x26;" horiz-adv-x="1372" vert-adv-y="1404" d="M86 399q0 173 101 295q87 105 261 183q-72 80 -105 130q-64 96 -64 202q0 161 121 249q99 72 262 72q115 0 206 -48q158 -83 158 -261q0 -158 -148 -265q-84 -59 -232 -117l409 -479q105 136 201 318l105 -54q-98 -199 -229 -357l231 -267h-179l-144 171 q-88 -80 -176 -129q-138 -78 -297 -78q-185 0 -317 100q-164 124 -164 335zM215 403q0 -141 102 -235q100 -94 251 -94q116 0 213 47q91 43 186 136l-448 534q-151 -70 -225 -158q-79 -96 -79 -230zM410 1214q0 -63 34 -124q30 -53 96 -131l32 -38q153 57 234 118 q98 76 98 182q0 102 -89 163q-68 47 -162 47q-109 0 -178 -61q-65 -59 -65 -156z" />
<glyph unicode="'" horiz-adv-x="455" vert-adv-y="1404" d="M144 1352v161h167v-161l-34 -419h-97z" />
<glyph unicode="(" horiz-adv-x="539" vert-adv-y="1404" d="M80 566q0 542 307 945l101 -54q-262 -406 -262 -893q0 -225 69 -467q63 -219 193 -422l-101 -54q-307 403 -307 945z" />
<glyph unicode=")" horiz-adv-x="539" vert-adv-y="1404" d="M52 -325q261 413 261 899q0 472 -261 883l101 54q307 -404 307 -943q0 -544 -307 -947z" />
<glyph unicode="*" horiz-adv-x="965" vert-adv-y="1404" d="M113 971l260 149l-260 148l56 99l260 -157l-8 303h123l-8 -303l261 157l56 -99l-261 -148l261 -149l-56 -98l-261 157l8 -304h-123l8 304l-260 -157z" />
<glyph unicode="+" horiz-adv-x="1170" vert-adv-y="1404" d="M50 662v108h476v488h116v-488h476v-108h-476v-488h-116v488h-476z" />
<glyph unicode="," horiz-adv-x="455" vert-adv-y="1404" d="M86 -299q131 139 131 275v24h-77v245h176v-235q0 -203 -165 -372z" />
<glyph unicode="-" horiz-adv-x="766" vert-adv-y="1404" d="M121 460v140h525v-140h-525z" />
<glyph unicode="." horiz-adv-x="455" vert-adv-y="1404" d="M140 0v245h176v-245h-176z" />
<glyph unicode="/" horiz-adv-x="471" vert-adv-y="1404" d="M0 0l355 1513h116l-354 -1513h-117z" />
<glyph unicode="0" horiz-adv-x="1170" vert-adv-y="1404" d="M80 739q0 774 504 774q506 0 506 -774q0 -775 -504 -775q-506 0 -506 775zM222 739q0 -659 360 -659q179 0 274 160q92 156 92 508q0 648 -364 648q-362 0 -362 -657z" />
<glyph unicode="1" horiz-adv-x="1170" vert-adv-y="1404" d="M227 1190q225 137 393 287h137v-1477h-129v1327q-176 -135 -345 -233z" />
<glyph unicode="2" horiz-adv-x="1170" vert-adv-y="1404" d="M103 0v62q0 211 210 399q75 66 223 164q192 127 258 195q114 122 114 278q0 139 -85 218q-88 82 -237 82q-167 0 -259 -110q-57 -69 -94 -204l-126 28q107 401 487 401q229 0 354 -132q103 -110 103 -289q0 -201 -154 -351q-72 -70 -208 -161q-195 -130 -261 -185 q-159 -133 -176 -273h814v-122h-963z" />
<glyph unicode="3" horiz-adv-x="1170" vert-adv-y="1404" d="M89 379l132 21q17 -146 83 -223q86 -99 262 -99q161 0 255 68q111 79 111 235q0 201 -162 275q-91 41 -248 43v120q158 7 263 77q119 78 119 234q0 134 -84 205q-79 68 -234 68q-197 0 -281 -139q-36 -59 -55 -150l-128 20q68 379 475 379q228 0 347 -113 q101 -96 101 -262q0 -177 -120 -277q-67 -56 -177 -97q165 -22 252 -128q74 -90 74 -244q0 -186 -114 -300q-128 -128 -387 -128q-232 0 -353 113q-107 99 -131 302z" />
<glyph unicode="4" horiz-adv-x="1170" vert-adv-y="1404" d="M82 331v115l688 1031h129v-1031h168v-115h-166v-331h-133v331h-686zM220 446h546v837z" />
<glyph unicode="5" horiz-adv-x="1170" vert-adv-y="1404" d="M127 283l129 35q29 -104 84 -157q86 -85 235 -85q196 0 283 139q62 98 62 272q0 159 -76 265q-83 113 -256 113q-109 0 -191 -44q-57 -31 -113 -101l-118 17l120 740h729v-121h-633l-75 -477q71 52 129 73q81 29 185 29q171 0 288 -99q154 -128 154 -393 q0 -243 -126 -383q-129 -142 -359 -142q-364 0 -451 319z" />
<glyph unicode="6" horiz-adv-x="1170" vert-adv-y="1404" d="M79 686q0 409 147 624q138 203 399 203q310 0 416 -255l-118 -54q-87 197 -303 197q-222 0 -318 -229q-65 -153 -80 -446q55 106 157 166t237 60q178 0 296 -94q157 -127 157 -397q0 -208 -113 -341q-133 -156 -377 -156q-271 0 -393 198q-107 173 -107 524zM244 447 q0 -159 82 -261q91 -113 249 -113q148 0 241 87q111 105 111 303q0 177 -85 273q-87 99 -244 99q-172 0 -269 -118q-85 -105 -85 -270z" />
<glyph unicode="7" horiz-adv-x="1170" vert-adv-y="1404" d="M139 1354v123h929v-138q-235 -328 -353 -585q-141 -307 -233 -754h-149q94 439 238 755q127 278 361 599h-793z" />
<glyph unicode="8" horiz-adv-x="1170" vert-adv-y="1404" d="M56 392q0 270 269 374q-98 51 -147 118q-69 94 -69 230q0 198 143 307q123 92 340 92q163 0 280 -66q187 -104 187 -339q0 -230 -216 -342q269 -106 269 -379q0 -186 -129 -300q-141 -123 -397 -123q-236 0 -375 103q-155 114 -155 325zM197 391q0 -144 90 -226 q101 -92 293 -92q181 0 282 76q109 83 109 243q0 158 -113 243q-97 74 -279 74q-190 0 -291 -93q-91 -82 -91 -225zM245 1111q0 -134 78 -211q91 -88 260 -88q156 0 245 73q95 77 95 227q0 134 -79 210q-89 87 -260 87q-170 0 -260 -87q-79 -77 -79 -211z" />
<glyph unicode="9" horiz-adv-x="1170" vert-adv-y="1404" d="M104 1012q0 228 130 365q129 136 361 136q303 0 419 -254q80 -171 80 -466q0 -411 -144 -625q-137 -204 -393 -204q-313 0 -419 233l114 58q79 -175 305 -175q224 0 319 227q66 157 75 444q-53 -102 -146 -160q-107 -65 -246 -65q-238 0 -359 156q-96 124 -96 330z M246 1014q0 -175 84 -273q86 -99 238 -99q167 0 266 110q93 104 93 286q0 179 -109 283q-87 84 -228 84q-160 0 -253 -107q-91 -104 -91 -284z" />
<glyph unicode=":" horiz-adv-x="455" vert-adv-y="1404" d="M140 0v245h176v-245h-176zM140 814v245h176v-245h-176z" />
<glyph unicode=";" horiz-adv-x="455" vert-adv-y="1404" d="M86 -299q131 139 131 275v24h-77v245h176v-235q0 -203 -165 -372zM140 814v245h176v-245h-176z" />
<glyph unicode="&#x3c;" horiz-adv-x="1170" vert-adv-y="1404" d="M50 661v111l1068 486v-120l-925 -422l925 -421v-121z" />
<glyph unicode="=" horiz-adv-x="1170" vert-adv-y="1404" d="M50 425v113h1068v-113h-1068zM50 895v112h1068v-112h-1068z" />
<glyph unicode="&#x3e;" horiz-adv-x="1170" vert-adv-y="1404" d="M50 174v121l925 421l-925 422v120l1068 -486v-111z" />
<glyph unicode="?" horiz-adv-x="1028" vert-adv-y="1404" d="M60 1206q84 343 461 343q145 0 248 -60q158 -93 158 -298q0 -178 -155 -316q-57 -52 -140 -104q-64 -40 -81 -65q-27 -38 -27 -100v-110h-131v150q0 85 49 135q25 27 75 59l29 18q130 87 168 128q77 84 77 196q0 257 -290 257q-160 0 -242 -98q-45 -53 -75 -155zM371 0 v245h175v-245h-175z" />
<glyph unicode="@" horiz-adv-x="1844" vert-adv-y="1404" d="M96 755q0 294 186 519q239 291 649 291q319 0 545 -179q145 -116 220 -283q52 -115 52 -259q0 -253 -145 -394q-127 -125 -317 -125q-116 0 -165 48q-33 33 -43 93q-52 -63 -110 -95q-81 -46 -201 -46q-151 0 -233 91q-78 84 -78 234q0 132 58 261q62 141 173 223 q117 86 261 86q117 0 185 -55q42 -35 73 -91l24 116h126l-128 -576q-20 -87 -20 -109q0 -72 100 -72q121 0 205 84q117 117 117 330q0 301 -274 487q-180 123 -436 123q-296 0 -497 -191q-208 -198 -208 -516q0 -381 278 -574q172 -120 472 -120q199 0 356 65l40 -103 q-160 -70 -398 -70q-253 0 -416 72q-213 93 -332 288q-119 193 -119 447zM594 640q0 -207 199 -207q184 0 282 170q38 66 64 164q15 60 15 108q0 124 -61 186q-51 53 -146 53q-170 0 -274 -178q-79 -136 -79 -296z" />
<glyph unicode="A" horiz-adv-x="1330" vert-adv-y="1404" d="M0 0l576 1513h181l574 -1513h-153l-150 404h-741l-153 -404h-134zM333 524h648l-320 861z" />
<glyph unicode="B" horiz-adv-x="1358" vert-adv-y="1404" d="M151 0v1513h579q465 0 465 -361q0 -148 -75 -236q-43 -51 -118 -93q122 -39 186 -107q91 -98 91 -278q0 -438 -551 -438h-577zM291 122h418q197 0 298 67q119 80 119 252q0 177 -123 253q-89 55 -260 55h-452v-627zM291 871h397q356 0 356 261q0 147 -90 206 q-80 53 -245 53h-418v-520z" />
<glyph unicode="C" horiz-adv-x="1434" vert-adv-y="1404" d="M96 743q0 380 178 595q177 211 485 211q251 0 402 -125q135 -113 180 -319l-141 -37q-41 150 -117 233q-115 126 -323 126q-260 0 -394 -207q-117 -178 -117 -481q0 -291 123 -464q136 -187 382 -187q241 0 367 168q75 99 101 256l145 -22q-111 -526 -618 -526 q-265 0 -433 158q-220 207 -220 621z" />
<glyph unicode="D" horiz-adv-x="1432" vert-adv-y="1404" d="M151 0v1513h455q731 0 731 -745q0 -386 -186 -577t-545 -191h-455zM291 126h325q298 0 443 184q127 158 127 452q0 625 -570 625h-325v-1261z" />
<glyph unicode="E" horiz-adv-x="1278" vert-adv-y="1404" d="M151 0v1513h1015v-126h-875v-552h831v-126h-831v-583h908v-126h-1048z" />
<glyph unicode="F" horiz-adv-x="1222" vert-adv-y="1404" d="M151 0v1513h1019v-126h-879v-538h793v-127h-793v-722h-140z" />
<glyph unicode="G" horiz-adv-x="1451" vert-adv-y="1404" d="M96 742q0 381 178 596q177 211 486 211q247 0 399 -122q127 -103 176 -291l-140 -38q-52 166 -158 250q-102 79 -281 79q-256 0 -390 -207q-117 -178 -117 -482q0 -296 121 -465q133 -185 377 -185q190 0 315 92q137 101 137 268v166h-245v125h385v-739h-90l-41 161 q-183 -197 -463 -197q-265 0 -432 158q-217 206 -217 620z" />
<glyph unicode="H" horiz-adv-x="1457" vert-adv-y="1404" d="M151 0v1513h140v-646h875v646h140v-1513h-140v741h-875v-741h-140z" />
<glyph unicode="I" horiz-adv-x="441" vert-adv-y="1404" d="M151 0v1513h140v-1513h-140z" />
<glyph unicode="J" horiz-adv-x="1120" vert-adv-y="1404" d="M60 421l137 19q14 -153 76 -239q84 -115 241 -115q325 0 325 366v1061h140v-1051q0 -256 -131 -385q-117 -113 -324 -113q-223 0 -348 146q-96 113 -116 311z" />
<glyph unicode="K" horiz-adv-x="1332" vert-adv-y="1404" d="M151 0v1513h140v-754l779 754h171l-595 -586l687 -927h-181l-606 827l-255 -245v-582h-140z" />
<glyph unicode="L" horiz-adv-x="1166" vert-adv-y="1404" d="M151 0v1513h140v-1387h835v-126h-975z" />
<glyph unicode="M" horiz-adv-x="1780" vert-adv-y="1404" d="M151 0v1513h244l486 -1362l520 1362h229v-1513h-136v1393l-531 -1393h-178l-498 1407v-1407h-136z" />
<glyph unicode="N" horiz-adv-x="1443" vert-adv-y="1404" d="M151 0v1513h186l815 -1333v1333h141v-1513h-186l-816 1335v-1335h-140z" />
<glyph unicode="O" horiz-adv-x="1575" vert-adv-y="1404" d="M96 757q0 375 186 586q184 206 505 206q322 0 505 -206q187 -212 187 -586t-187 -585q-184 -208 -500 -208q-292 0 -473 169q-223 212 -223 624zM249 757q0 -291 136 -474q147 -195 398 -195q234 0 378 161q166 184 166 508q0 293 -137 472q-148 196 -403 196t-402 -196 q-136 -180 -136 -472z" />
<glyph unicode="P" horiz-adv-x="1278" vert-adv-y="1404" d="M151 0v1513h609q219 0 341 -120q117 -117 117 -327q0 -208 -131 -329q-134 -123 -367 -123h-429v-614h-140zM291 735h442q168 0 259 102q78 87 78 234q0 174 -115 259q-83 61 -216 61h-448v-656z" />
<glyph unicode="Q" horiz-adv-x="1575" vert-adv-y="1404" d="M96 757q0 374 186 586q184 206 505 206q322 0 505 -206q187 -212 187 -586q0 -457 -279 -669l156 -249l-109 -70l-159 254q-142 -59 -300 -59q-322 0 -506 208q-186 211 -186 585zM249 757q0 -291 136 -474q147 -195 399 -195q122 0 231 50l-180 289l111 71l178 -287 q203 190 203 545q0 293 -137 473q-147 196 -403 196q-255 0 -402 -196q-136 -181 -136 -472z" />
<glyph unicode="R" horiz-adv-x="1354" vert-adv-y="1404" d="M151 0v1513h613q238 0 360 -115q119 -110 119 -314q0 -156 -88 -276q-70 -98 -198 -144l330 -664h-165l-303 638q-15 -2 -26 -2h-15h-16h-471v-636h-140zM291 759h458q180 0 268 93q77 82 77 231q0 173 -115 251q-85 57 -230 57h-458v-632z" />
<glyph unicode="S" horiz-adv-x="1312" vert-adv-y="1404" d="M60 402l139 33q42 -150 103 -217q113 -128 345 -128q418 0 418 290q0 128 -76 199q-71 67 -219 95l-256 50q-410 81 -410 412q0 184 128 294q139 119 396 119q264 0 404 -114q110 -90 161 -267l-132 -42q-49 139 -123 205q-107 96 -310 96q-190 0 -289 -79 q-90 -72 -90 -204q0 -117 71 -185q72 -66 222 -96l293 -56q199 -39 291 -143q94 -104 94 -274q0 -193 -131 -302q-148 -124 -436 -124q-273 0 -420 125q-118 101 -173 313z" />
<glyph unicode="T" horiz-adv-x="1340" vert-adv-y="1404" d="M50 1387v126h1241v-126h-550v-1387h-141v1387h-550z" />
<glyph unicode="U" horiz-adv-x="1411" vert-adv-y="1404" d="M140 568v945h141v-933q0 -265 117 -385q103 -107 310 -107q204 0 307 107q115 120 115 385v933h140v-945q0 -604 -560 -604q-570 0 -570 604z" />
<glyph unicode="V" horiz-adv-x="1250" vert-adv-y="1404" d="M0 1513h149l481 -1387l480 1387h140l-541 -1513h-173z" />
<glyph unicode="W" horiz-adv-x="1868" vert-adv-y="1404" d="M0 1513h149l337 -1411l359 1411h168l352 -1400l357 1400h147l-400 -1513h-192l-348 1329l-359 -1329h-191z" />
<glyph unicode="X" horiz-adv-x="1196" vert-adv-y="1404" d="M0 0l521 781l-485 732h161l403 -618l409 618h145l-482 -720l525 -793h-159l-446 678l-448 -678h-144z" />
<glyph unicode="Y" horiz-adv-x="1198" vert-adv-y="1404" d="M0 1513h155l449 -799l446 799h149l-531 -933v-580h-140v580z" />
<glyph unicode="Z" horiz-adv-x="1227" vert-adv-y="1404" d="M74 0v128l914 1259h-884v126h1040v-128l-913 -1259h929v-126h-1086z" />
<glyph unicode="[" horiz-adv-x="591" vert-adv-y="1404" d="M151 -385v1898h375v-104h-237v-1690h237v-104h-375z" />
<glyph unicode="\" horiz-adv-x="471" vert-adv-y="1404" d="M0 1513h117l354 -1513h-116z" />
<glyph unicode="]" horiz-adv-x="591" vert-adv-y="1404" d="M67 -281h236v1690h-236v104h375v-1898h-375v104z" />
<glyph unicode="^" horiz-adv-x="1164" vert-adv-y="1404" d="M121 781l405 732h112l406 -732h-129l-333 614l-333 -614h-128z" />
<glyph unicode="_" vert-adv-y="1404" d="M0 -140h1004v-121h-1004v121z" />
<glyph unicode="`" horiz-adv-x="794" vert-adv-y="1404" d="M239 1513h150l161 -266h-121z" />
<glyph unicode="a" horiz-adv-x="999" vert-adv-y="1404" d="M73 269q0 173 112 263q83 67 242 90l339 50v87q0 229 -256 229q-140 0 -211 -70q-49 -47 -80 -139l-115 29q87 288 413 288q199 0 295 -97q83 -84 83 -233v-586q0 -73 28 -180h-126q-1 2 -3 11q-1 3 -4 11q-15 38 -15 129q-89 -112 -180 -154q-70 -33 -201 -33 q-137 0 -224 75q-97 84 -97 230zM205 273q0 -101 62 -153q53 -46 149 -46q125 0 217 61q133 88 133 252v175l-343 -54q-218 -35 -218 -235z" />
<glyph unicode="b" horiz-adv-x="1135" vert-adv-y="1404" d="M130 0v1513h129v-626q127 209 369 209q206 0 321 -157q106 -145 106 -397q0 -259 -109 -410q-122 -168 -352 -168q-116 0 -199 49q-73 42 -136 136v-149h-129zM255 517q0 -188 76 -304q88 -137 251 -137q146 0 229 88q108 113 108 361q0 459 -318 459q-175 0 -268 -148 q-78 -124 -78 -319z" />
<glyph unicode="c" horiz-adv-x="1026" vert-adv-y="1404" d="M80 530q0 254 114 403q123 163 355 163q334 0 412 -319l-128 -38q-30 118 -83 172q-72 75 -206 75q-165 0 -251 -134q-76 -118 -76 -322q0 -208 73 -320q86 -134 257 -134q168 0 245 122q36 56 57 145l124 -36q-101 -343 -422 -343q-210 0 -332 133q-139 150 -139 433z " />
<glyph unicode="d" horiz-adv-x="1135" vert-adv-y="1404" d="M80 512q0 260 110 413q122 171 345 171q214 0 342 -189v606h128v-1513h-128v167q-126 -203 -367 -203q-188 0 -300 126q-130 144 -130 422zM217 527q0 -451 319 -451q159 0 250 120q95 124 95 340q0 191 -76 309q-92 139 -258 139q-155 0 -240 -112q-90 -117 -90 -345z " />
<glyph unicode="e" horiz-adv-x="1093" vert-adv-y="1404" d="M80 526q0 249 122 403q130 167 363 167q226 0 348 -146q108 -131 108 -341v-21v-22v-13v-14q0 -18 -2 -31h-802q5 -180 70 -287q87 -145 267 -145q157 0 244 98q42 48 81 153l121 -44q-37 -111 -107 -186q-125 -133 -337 -133q-207 0 -333 131q-143 151 -143 431z M219 609h668q-1 151 -62 245q-87 136 -262 136q-184 0 -278 -154q-58 -95 -66 -227z" />
<glyph unicode="f" horiz-adv-x="580" vert-adv-y="1404" d="M36 954v105h165v184q0 291 265 291q50 0 90 -6q6 -1 22 -3q12 -2 26 -4l-12 -110q-65 8 -102 8q-85 0 -122 -47q-39 -47 -39 -148v-165h251v-105h-251v-954h-128v954h-165z" />
<glyph unicode="g" horiz-adv-x="1135" vert-adv-y="1404" d="M80 514q0 260 110 412q122 170 347 170q220 0 340 -187v150h128v-1013q0 -265 -126 -371q-106 -91 -328 -91q-220 0 -336 101q-69 58 -98 152l111 44q32 -88 92 -130q78 -54 230 -54q136 0 208 44q50 33 79 80q40 67 40 209v159q-127 -207 -371 -207q-206 0 -319 145 q-107 138 -107 387zM217 529q0 -435 320 -435q158 0 249 113q95 118 95 334q0 219 -100 339q-86 104 -237 104q-153 0 -237 -110q-90 -117 -90 -345z" />
<glyph unicode="h" horiz-adv-x="1107" vert-adv-y="1404" d="M130 0v1513h129v-634q60 101 126 149q91 68 238 68q168 0 263 -100q91 -96 91 -259v-737h-128v703q0 278 -256 278q-162 0 -256 -148q-78 -125 -78 -303v-530h-129z" />
<glyph unicode="i" horiz-adv-x="409" vert-adv-y="1404" d="M140 0v1059h129v-1059h-129zM140 1308v205h129v-205h-129z" />
<glyph unicode="j" horiz-adv-x="421" vert-adv-y="1404" d="M-115 -395l17 110q58 -14 115 -14q78 0 106 35q30 38 30 115v1208h128v-1243q0 -114 -59 -173q-57 -59 -164 -59h-15q-80 0 -158 21zM153 1310v203h128v-203h-128z" />
<glyph unicode="k" horiz-adv-x="980" vert-adv-y="1404" d="M130 0v1513h129v-913l492 459h164l-396 -371l456 -688h-158l-392 600l-166 -158v-442h-129z" />
<glyph unicode="l" horiz-adv-x="409" vert-adv-y="1404" d="M140 0v1513h129v-1513h-129z" />
<glyph unicode="m" horiz-adv-x="1715" vert-adv-y="1404" d="M130 0v1059h129v-184q59 104 115 149q90 72 228 72q225 0 302 -221q55 102 119 150q92 71 232 71q141 0 228 -79q103 -93 103 -270v-747h-129v707q0 274 -228 274q-162 0 -249 -173q-59 -116 -59 -278v-530h-128v703q0 278 -228 278q-145 0 -232 -145q-74 -124 -74 -306 v-530h-129z" />
<glyph unicode="n" horiz-adv-x="1107" vert-adv-y="1404" d="M130 0v1059h129v-184q59 103 122 150q95 71 242 71q167 0 263 -100q91 -96 91 -259v-737h-128v703q0 278 -256 278q-162 0 -256 -148q-78 -125 -78 -303v-530h-129z" />
<glyph unicode="o" horiz-adv-x="1116" vert-adv-y="1404" d="M80 530q0 256 117 405q127 161 361 161q233 0 360 -161q118 -151 118 -405q0 -255 -118 -405q-127 -161 -356 -161q-215 0 -340 132q-142 151 -142 434zM217 526q0 -200 77 -318q89 -134 261 -134q166 0 258 123q87 114 87 337q0 200 -80 318q-90 134 -261 134 q-192 0 -281 -158q-61 -111 -61 -302z" />
<glyph unicode="p" horiz-adv-x="1135" vert-adv-y="1404" d="M130 -385v1444h129v-170q126 207 368 207q207 0 322 -155q106 -144 106 -395q0 -260 -109 -412q-122 -170 -348 -170q-215 0 -339 187v-536h-129zM255 519q0 -188 75 -305q88 -138 250 -138q144 0 229 89q110 113 110 362q0 457 -322 457q-173 0 -265 -146 q-77 -125 -77 -319z" />
<glyph unicode="q" horiz-adv-x="1135" vert-adv-y="1404" d="M80 514q0 260 110 412q123 170 346 170q215 0 341 -187v150h128v-1444h-128v554q-69 -111 -167 -162q-83 -43 -203 -43q-205 0 -320 155q-107 144 -107 395zM217 529q0 -453 319 -453q159 0 250 120q95 125 95 344q0 220 -103 343q-85 101 -235 101q-152 0 -236 -110 q-90 -117 -90 -345z" />
<glyph unicode="r" horiz-adv-x="637" vert-adv-y="1404" d="M130 0v1059h129v-186q54 104 123 155q60 44 152 44q56 0 104 -13l-14 -111q-34 11 -88 11q-127 0 -196 -92q-81 -108 -81 -323v-544h-129z" />
<glyph unicode="s" horiz-adv-x="969" vert-adv-y="1404" d="M46 291l119 30q33 -116 80 -167q76 -81 232 -81q130 0 204 49q74 51 74 147q0 82 -47 128q-45 43 -140 63l-187 38q-295 61 -295 297q0 139 111 223q102 78 274 78q324 0 406 -288l-115 -31q-38 117 -116 169q-67 44 -184 44q-129 0 -194 -56q-55 -47 -55 -133 q0 -78 47 -122q48 -44 159 -67l203 -40q265 -53 265 -302q0 -149 -120 -233q-105 -73 -285 -73q-204 0 -314 101q-80 71 -122 226z" />
<glyph unicode="t" horiz-adv-x="626" vert-adv-y="1404" d="M56 954v105h145v302h128v-302h231v-105h-231v-707q0 -85 33 -120q27 -29 100 -29q57 0 108 9l10 -115q-107 -12 -164 -12q-96 0 -146 41q-69 55 -69 192v741h-145z" />
<glyph unicode="u" horiz-adv-x="1107" vert-adv-y="1404" d="M130 323v736h129v-701q0 -127 57 -198q65 -84 196 -84q163 0 257 150q80 126 80 302v531h128v-1059h-128v186q-59 -104 -124 -151q-96 -71 -245 -71q-127 0 -215 62q-135 96 -135 297z" />
<glyph unicode="v" horiz-adv-x="934" vert-adv-y="1404" d="M0 1059h134l335 -967l339 967h127l-373 -1059h-193z" />
<glyph unicode="w" horiz-adv-x="1467" vert-adv-y="1404" d="M0 1059h136l264 -977l257 977h162l257 -977l265 977h126l-301 -1059h-189l-242 935l-243 -935h-191z" />
<glyph unicode="x" horiz-adv-x="848" vert-adv-y="1404" d="M0 0l353 546l-330 513h144l258 -406l261 406h135l-329 -505l357 -554h-144l-286 450l-289 -450h-130z" />
<glyph unicode="y" horiz-adv-x="969" vert-adv-y="1404" d="M0 1059h138l370 -883l333 883h128l-479 -1270q-38 -100 -98 -151q-62 -54 -161 -54h-11q-79 0 -158 25l24 108q67 -18 117 -18q75 0 118 42q32 32 58 98l65 167z" />
<glyph unicode="z" horiz-adv-x="903" vert-adv-y="1404" d="M60 0v104l618 850h-592v105h735v-103l-620 -849h642v-107h-783z" />
<glyph unicode="{" horiz-adv-x="877" vert-adv-y="1404" d="M144 512v104q87 15 125 37q76 44 76 154v482q0 139 78 192q50 32 153 32h157v-104h-122q-82 0 -111 -51q-21 -36 -21 -128v-453q0 -186 -161 -213q161 -25 161 -213v-453q0 -106 31 -142q30 -37 101 -37h122v-104h-157q-112 0 -166 43q-65 52 -65 181v482q0 124 -99 164 q-37 16 -102 27z" />
<glyph unicode="|" horiz-adv-x="471" vert-adv-y="1404" d="M211 0v1513h114v-1513h-114z" />
<glyph unicode="}" horiz-adv-x="877" vert-adv-y="1404" d="M147 -281h122q87 0 113 58q18 37 18 121v453q0 187 162 213q-162 26 -162 213v453q0 106 -31 142q-31 37 -100 37h-122v104h156q128 0 181 -57q50 -54 50 -167v-482q0 -114 82 -157q37 -20 119 -34v-104q-100 -18 -139 -46q-62 -43 -62 -145v-482q0 -140 -78 -191 q-50 -33 -153 -33h-156v104z" />
<glyph unicode="~" horiz-adv-x="1388" vert-adv-y="1404" d="M121 471q32 193 100 289q74 101 204 101q135 0 263 -135l93 -98q74 -77 117 -96q23 -11 73 -11q100 0 148 119q27 66 45 185l104 -24q-27 -177 -85 -269q-77 -120 -214 -120q-152 0 -295 156l-60 66q-63 70 -95 90q-42 29 -98 29q-103 0 -152 -129q-24 -61 -45 -176z" />
<glyph unicode="&#xa0;" horiz-adv-x="507" vert-adv-y="1404" />
<glyph unicode="&#xa1;" horiz-adv-x="543" vert-adv-y="1404" d="M184 880v245h176v-245h-176zM189 -109l26 732h114l26 -732v-279h-166v279z" />
<glyph unicode="&#xa2;" horiz-adv-x="1026" vert-adv-y="1404" d="M80 716q0 273 131 424q103 119 275 141v186h116v-184q294 -33 359 -318l-128 -38q-32 124 -85 175q-53 52 -146 68v-905q117 19 179 101q44 57 68 162l124 -36q-54 -174 -153 -255q-87 -71 -218 -86v-187h-116v189q-183 23 -287 153q-119 149 -119 410zM217 717 q0 -399 269 -450v901q-124 -22 -193 -129q-76 -120 -76 -322z" />
<glyph unicode="&#xa3;" horiz-adv-x="1172" vert-adv-y="1404" d="M73 0v124q132 65 219 153q137 139 137 299v28h-262v105h235q-28 54 -105 145q-54 63 -88 122q-50 85 -50 193q0 109 58 200q114 180 386 180q223 0 346 -106q76 -68 129 -200l-122 -53q-49 126 -132 185q-82 58 -223 58q-160 0 -241 -83q-65 -65 -65 -180 q0 -109 121 -245q113 -127 138 -216h350v-105h-334v-4q0 -115 -56 -227q-60 -119 -225 -251h823v-122h-1039z" />
<glyph unicode="&#xa4;" horiz-adv-x="1187" vert-adv-y="1404" d="M74 329l110 111q-110 137 -110 319q0 177 110 319l-110 110l91 91l110 -111q142 111 319 111q176 0 319 -111l110 111l91 -91l-110 -110q110 -142 110 -319t-110 -319l110 -111l-91 -90l-110 110q-138 -110 -319 -110q-177 0 -319 110l-110 -110zM199 759 q0 -165 116 -286q115 -118 276 -118q149 0 260 98q139 122 139 306q0 119 -67 221q-63 96 -157 140q-88 42 -176 42q-160 0 -275 -118q-116 -121 -116 -285z" />
<glyph unicode="&#xa5;" horiz-adv-x="1198" vert-adv-y="1404" d="M0 1513h155l449 -799l446 799h149l-471 -829h243v-104h-303v-182h303v-105h-303v-293h-140v293h-304v105h304v182h-304v104h245z" />
<glyph unicode="&#xa6;" horiz-adv-x="471" vert-adv-y="1404" d="M211 0v504h114v-504h-114zM211 1009v504h114v-504h-114z" />
<glyph unicode="&#xa7;" horiz-adv-x="1068" vert-adv-y="1404" d="M90 74l119 43q45 -97 103 -146q86 -73 229 -73q136 0 210 45q82 51 82 151q0 94 -78 149q-48 33 -141 58l-214 57q-179 47 -250 126q-58 65 -58 174q0 132 95 215q53 47 144 84q-124 41 -181 102q-60 65 -60 172q0 135 99 215q109 88 304 88q225 0 340 -113 q63 -62 98 -172l-119 -39q-41 105 -96 152q-77 65 -222 65q-130 0 -202 -46q-77 -50 -77 -147q0 -83 67 -130q43 -27 155 -56l231 -60q188 -48 254 -148q37 -55 37 -152q0 -129 -95 -212q-52 -46 -144 -83q130 -47 186 -114q59 -67 59 -184q0 -153 -130 -237 q-108 -71 -294 -71q-344 0 -451 287zM219 672q0 -154 212 -203l127 -29q102 11 184 71q91 65 91 168q0 89 -69 140q-48 36 -144 60l-118 30q-99 -9 -174 -57q-109 -71 -109 -180z" />
<glyph unicode="&#xa8;" horiz-adv-x="794" vert-adv-y="1404" d="M167 1277v205h134v-205h-134zM492 1277v205h134v-205h-134z" />
<glyph unicode="&#xa9;" horiz-adv-x="1778" vert-adv-y="1404" d="M96 757q0 215 108 399q106 181 285 285q186 108 401 108q222 0 413 -118q202 -125 300 -329q79 -166 79 -348q0 -239 -138 -442q-131 -195 -350 -289q-138 -59 -304 -59q-306 0 -532 204q-123 111 -191 261q-71 157 -71 328zM220 757q0 -281 197 -481q92 -94 212 -147 q123 -53 256 -53q251 0 438 164q109 95 171 227q63 137 63 290q0 280 -196 481q-196 199 -472 199q-277 0 -472 -199q-197 -201 -197 -481zM484 749q0 207 101 325q101 119 279 119q278 0 338 -262l-114 -29q-23 84 -61 127q-56 63 -161 63q-144 0 -211 -122 q-46 -82 -46 -227q0 -141 63 -229q67 -91 189 -91q198 0 237 221l118 -16q-65 -307 -359 -307q-151 0 -248 89q-125 112 -125 339z" />
<glyph unicode="&#xaa;" horiz-adv-x="844" vert-adv-y="1404" d="M100 999q0 103 62 160q63 59 196 78l226 31v34q0 75 -41 107q-45 35 -132 35q-108 0 -156 -56q-20 -24 -36 -65l-95 24q62 187 297 187q270 0 270 -213v-365q0 -82 19 -135h-104q-13 32 -16 83q-44 -52 -93 -75q-65 -30 -165 -30q-103 0 -164 48q-68 53 -68 152z M209 1008q0 -119 146 -119q96 0 159 45q70 51 70 148v96l-218 -34q-157 -25 -157 -136z" />
<glyph unicode="&#xab;" horiz-adv-x="827" vert-adv-y="1404" d="M36 524l239 353h142l-239 -353l239 -353h-142zM410 524l239 353h142l-239 -353l239 -353h-142z" />
<glyph unicode="&#xac;" horiz-adv-x="1170" vert-adv-y="1404" d="M50 895v112h1068v-582h-113v470h-955z" />
<glyph unicode="&#xad;" horiz-adv-x="766" vert-adv-y="1404" d="M121 460v140h525v-140h-525z" />
<glyph unicode="&#xae;" horiz-adv-x="1778" vert-adv-y="1404" d="M96 757q0 215 108 399q106 181 285 285q186 108 401 108q222 0 413 -118q202 -125 300 -329q79 -166 79 -348q0 -239 -138 -442q-131 -195 -350 -289q-138 -59 -304 -59q-306 0 -532 204q-123 111 -191 261q-71 157 -71 328zM220 757q0 -281 197 -481q92 -94 212 -147 q123 -53 256 -53q251 0 438 164q109 95 171 227q63 137 63 290q0 280 -196 481q-196 199 -472 199q-277 0 -472 -199q-197 -201 -197 -481zM576 341v831h355q140 0 211 -65q70 -63 70 -173q0 -94 -59 -163q-37 -45 -96 -70l188 -360h-131l-166 337h-19h-238v-337h-115z M691 779h226q173 0 173 150q0 145 -173 145h-226v-295z" />
<glyph unicode="&#xaf;" horiz-adv-x="794" vert-adv-y="1404" d="M102 1325v110h591v-110h-591z" />
<glyph unicode="&#xb0;" horiz-adv-x="859" vert-adv-y="1404" d="M90 1197q0 141 99 238q100 99 240 99q102 0 188 -57q80 -51 118 -133q33 -72 33 -150q0 -139 -99 -238q-97 -97 -238 -97q-128 0 -223 81q-118 100 -118 257zM197 1197q0 -103 69 -174q67 -69 161 -69q92 0 165 67q70 66 70 179q0 114 -86 186q-63 53 -149 53 q-94 0 -161 -70q-69 -71 -69 -172z" />
<glyph unicode="&#xb1;" horiz-adv-x="1170" vert-adv-y="1404" d="M50 0v113h476v487h-476v109h476v488h116v-488h476v-109h-476v-487h476v-113h-1068z" />
<glyph unicode="&#xb2;" horiz-adv-x="831" vert-adv-y="1404" d="M84 586v50q0 164 236 303q170 100 206 133q68 64 68 145t-61 123q-47 31 -127 31q-161 0 -209 -167l-109 18q66 245 328 245q170 0 246 -91q50 -62 50 -163q0 -119 -100 -208q-48 -41 -137 -92q-184 -105 -230 -167q-17 -21 -28 -55h505v-105h-638z" />
<glyph unicode="&#xb3;" horiz-adv-x="831" vert-adv-y="1404" d="M78 808l115 17q16 -163 207 -163q218 0 218 157q0 108 -107 143q-47 15 -138 19v97q101 4 158 38q71 42 71 118q0 141 -193 141q-115 0 -168 -72q-22 -31 -32 -73l-107 17q52 220 315 220q148 0 228 -65q71 -58 71 -158q0 -161 -168 -216q189 -36 189 -212 q0 -103 -75 -170q-90 -80 -243 -80q-171 0 -254 62q-76 57 -87 180z" />
<glyph unicode="&#xb4;" horiz-adv-x="794" vert-adv-y="1404" d="M241 1247l161 266h150l-190 -266h-121z" />
<glyph unicode="&#xb5;" horiz-adv-x="1107" vert-adv-y="1404" d="M130 -385v1444h129v-701q0 -127 57 -198q65 -84 196 -84q163 0 257 150q80 126 80 302v531h128v-1059h-128v186q-55 -97 -117 -148q-92 -74 -219 -74q-101 0 -169 39q-43 23 -85 76v-464h-129z" />
<glyph unicode="&#xb6;" horiz-adv-x="1372" vert-adv-y="1404" d="M60 1034q0 221 119 350q120 129 329 129h792v-106h-126v-1792h-113v1792h-302v-1792h-113v935h-98q-218 0 -352 130q-136 132 -136 354z" />
<glyph unicode="&#xb7;" horiz-adv-x="455" vert-adv-y="1404" d="M140 594v245h176v-245h-176z" />
<glyph unicode="&#xb8;" horiz-adv-x="794" vert-adv-y="1404" d="M231 -385l190 266h121l-161 -266h-150z" />
<glyph unicode="&#xb9;" horiz-adv-x="831" vert-adv-y="1404" d="M174 1289q126 63 247 158h103v-861h-105v741q-85 -61 -202 -121z" />
<glyph unicode="&#xba;" horiz-adv-x="919" vert-adv-y="1404" d="M117 1166q0 190 106 287q88 81 241 81q163 0 255 -105q84 -95 84 -263q0 -166 -84 -262q-92 -105 -257 -105q-154 0 -244 87q-101 97 -101 280zM231 1166q0 -127 50 -197q58 -82 177 -82q230 0 230 284q0 139 -66 210q-59 63 -166 63q-116 0 -175 -82q-50 -67 -50 -196z " />
<glyph unicode="&#xbb;" horiz-adv-x="827" vert-adv-y="1404" d="M36 171l239 353l-239 353h142l239 -353l-239 -353h-142zM410 171l239 353l-239 353h142l239 -353l-239 -353h-142z" />
<glyph unicode="&#xbc;" horiz-adv-x="1916" vert-adv-y="1404" d="M169 1289q125 63 247 158h101v-861h-103v741q-97 -68 -203 -121zM552 -36l689 1503h120l-689 -1503h-120zM1144 157v96l448 592h116v-598h90v-90h-90v-173h-99v173h-465zM1250 247h357v471z" />
<glyph unicode="&#xbd;" horiz-adv-x="1916" vert-adv-y="1404" d="M169 1289q125 63 247 158h101v-861h-103v741q-97 -68 -203 -121zM542 -36l688 1503h120l-688 -1503h-120zM1186 -16v50q0 166 255 315q148 85 187 120q68 61 68 145q0 81 -60 122q-49 32 -130 32q-158 0 -208 -166l-108 18q65 245 329 245q169 0 244 -91q51 -61 51 -162 q0 -120 -98 -207q-47 -41 -138 -94q-187 -109 -231 -167q-17 -21 -28 -56h506v-104h-639z" />
<glyph unicode="&#xbe;" horiz-adv-x="1916" vert-adv-y="1404" d="M86 808l115 17q16 -163 208 -163q217 0 217 157q0 108 -108 143q-47 15 -137 19v97q101 4 158 38q72 42 72 118q0 141 -195 141q-163 0 -199 -145l-106 17q20 88 71 140q80 80 243 80q148 0 228 -65q71 -58 71 -158q0 -161 -168 -216q189 -36 189 -212q0 -103 -75 -170 q-88 -80 -243 -80q-176 0 -255 62q-75 61 -86 180zM611 -36l687 1503h121l-689 -1503h-119zM1144 157v96l448 592h116v-598h90v-90h-90v-173h-99v173h-465zM1250 247h357v471z" />
<glyph unicode="&#xbf;" horiz-adv-x="1028" vert-adv-y="1404" d="M100 -69q0 181 152 316q53 48 140 105q67 42 84 67q28 39 28 100v110h130v-150q0 -85 -48 -134q-26 -27 -134 -97l-9 -7q-88 -57 -129 -103q-77 -83 -77 -195q0 -257 289 -257q181 0 260 122q31 48 57 131l124 -20q-86 -343 -458 -343q-186 0 -296 92q-113 94 -113 263z M482 880v245h175v-245h-175z" />
<glyph unicode="&#xc0;" horiz-adv-x="1330" vert-adv-y="1404" d="M0 0l576 1513h181l574 -1513h-153l-150 404h-741l-153 -404h-134zM333 524h648l-320 861zM419 1892h150l161 -266h-120z" />
<glyph unicode="&#xc1;" horiz-adv-x="1330" vert-adv-y="1404" d="M0 0l576 1513h181l574 -1513h-153l-150 404h-741l-153 -404h-134zM333 524h648l-320 861zM603 1626l160 266h150l-190 -266h-120z" />
<glyph unicode="&#xc2;" horiz-adv-x="1330" vert-adv-y="1404" d="M0 0l576 1513h181l574 -1513h-153l-150 404h-741l-153 -404h-134zM333 524h648l-320 861zM359 1626l233 266h140l233 -266h-130l-173 176l-173 -176h-130z" />
<glyph unicode="&#xc3;" horiz-adv-x="1330" vert-adv-y="1404" d="M0 0l576 1513h181l574 -1513h-153l-150 404h-741l-153 -404h-134zM297 1691q47 178 189 178q70 0 160 -46l66 -35q63 -32 107 -32q65 0 94 98l98 -23q-23 -86 -74 -135q-46 -45 -113 -45q-65 0 -163 49l-63 32q-65 32 -101 32q-66 0 -102 -96zM333 524h648l-320 861z" />
<glyph unicode="&#xc4;" horiz-adv-x="1330" vert-adv-y="1404" d="M0 0l576 1513h181l574 -1513h-153l-150 404h-741l-153 -404h-134zM333 524h648l-320 861zM437 1654v205h134v-205h-134zM762 1654v205h135v-205h-135z" />
<glyph unicode="&#xc5;" horiz-adv-x="1330" vert-adv-y="1404" d="M0 0l565 1486q-130 46 -130 197q0 108 69 164q59 48 165 48q127 0 187 -77q41 -53 41 -138q0 -106 -70 -162q-24 -21 -61 -32l565 -1486h-153l-150 404h-741l-153 -404h-134zM333 524h648l-320 861zM519 1682q0 -68 48 -106q37 -30 97 -30q68 0 111 40q37 35 37 99 q0 62 -42 99q-41 35 -106 35q-79 0 -119 -52q-26 -33 -26 -85z" />
<glyph unicode="&#xc6;" horiz-adv-x="2225" vert-adv-y="1404" d="M-20 0l1018 1513h1116v-126h-875v-552h830v-126h-830v-583h906v-126h-1047v404h-694l-272 -404h-152zM484 524h614v863h-35z" />
<glyph unicode="&#xc7;" horiz-adv-x="1434" vert-adv-y="1404" d="M96 743q0 380 178 595q177 211 485 211q251 0 402 -125q135 -113 180 -319l-141 -37q-41 150 -117 233q-115 126 -323 126q-260 0 -394 -207q-117 -178 -117 -481q0 -291 123 -464q136 -187 382 -187q241 0 367 168q75 99 101 256l145 -22q-111 -526 -618 -526 q-265 0 -433 158q-220 207 -220 621zM488 -385l190 266h121l-161 -266h-150z" />
<glyph unicode="&#xc8;" horiz-adv-x="1278" vert-adv-y="1404" d="M151 0v1513h1015v-126h-875v-552h831v-126h-831v-583h908v-126h-1048zM476 1892h150l161 -266h-120z" />
<glyph unicode="&#xc9;" horiz-adv-x="1278" vert-adv-y="1404" d="M151 0v1513h1015v-126h-875v-552h831v-126h-831v-583h908v-126h-1048zM569 1626l160 266h150l-190 -266h-120z" />
<glyph unicode="&#xca;" horiz-adv-x="1278" vert-adv-y="1404" d="M151 0v1513h1015v-126h-875v-552h831v-126h-831v-583h908v-126h-1048zM361 1626l233 266h140l233 -266h-130l-173 176l-173 -176h-130z" />
<glyph unicode="&#xcb;" horiz-adv-x="1278" vert-adv-y="1404" d="M151 0v1513h1015v-126h-875v-552h831v-126h-831v-583h908v-126h-1048zM437 1654v205h134v-205h-134zM762 1654v205h135v-205h-135z" />
<glyph unicode="&#xcc;" horiz-adv-x="441" vert-adv-y="1404" d="M-26 1892h150l161 -266h-120zM150 0v1513h140v-1513h-140z" />
<glyph unicode="&#xcd;" horiz-adv-x="441" vert-adv-y="1404" d="M151 0v1513h140v-1513h-140zM159 1626l160 266h150l-190 -266h-120z" />
<glyph unicode="&#xce;" horiz-adv-x="441" vert-adv-y="1404" d="M-88 1626l233 266h140l233 -266h-130l-173 176l-173 -176h-130zM151 0v1513h140v-1513h-140z" />
<glyph unicode="&#xcf;" horiz-adv-x="441" vert-adv-y="1404" d="M-6 1653v205h134v-205h-134zM151 0v1513h140v-1513h-140zM319 1653v205h135v-205h-135z" />
<glyph unicode="&#xd0;" horiz-adv-x="1432" vert-adv-y="1404" d="M0 709v120h151v684h455q731 0 731 -745q0 -386 -186 -577t-545 -191h-455v709h-151zM291 126h325q298 0 443 184q127 158 127 452q0 625 -570 625h-325v-558h341v-120h-341v-583z" />
<glyph unicode="&#xd1;" horiz-adv-x="1443" vert-adv-y="1404" d="M151 0v1513h186l815 -1333v1333h141v-1513h-186l-816 1335v-1335h-140zM381 1691q47 178 189 178q70 0 160 -46l66 -35q63 -32 107 -32q65 0 94 98l98 -23q-23 -86 -74 -135q-46 -45 -113 -45q-65 0 -163 49l-63 32q-65 32 -101 32q-66 0 -102 -96z" />
<glyph unicode="&#xd2;" horiz-adv-x="1575" vert-adv-y="1404" d="M96 757q0 375 186 586q184 206 505 206q322 0 505 -206q187 -212 187 -586t-187 -585q-184 -208 -500 -208q-292 0 -473 169q-223 212 -223 624zM249 757q0 -291 136 -474q147 -195 398 -195q234 0 378 161q166 184 166 508q0 293 -137 472q-148 196 -403 196t-402 -196 q-136 -180 -136 -472zM565 1892h150l161 -266h-120z" />
<glyph unicode="&#xd3;" horiz-adv-x="1575" vert-adv-y="1404" d="M96 757q0 375 186 586q184 206 505 206q322 0 505 -206q187 -212 187 -586t-187 -585q-184 -208 -500 -208q-292 0 -473 169q-223 212 -223 624zM249 757q0 -291 136 -474q147 -195 398 -195q234 0 378 161q166 184 166 508q0 293 -137 472q-148 196 -403 196t-402 -196 q-136 -180 -136 -472zM717 1626l160 266h150l-190 -266h-120z" />
<glyph unicode="&#xd4;" horiz-adv-x="1575" vert-adv-y="1404" d="M96 757q0 375 186 586q184 206 505 206q322 0 505 -206q187 -212 187 -586t-187 -585q-184 -208 -500 -208q-292 0 -473 169q-223 212 -223 624zM249 757q0 -291 136 -474q147 -195 398 -195q234 0 378 161q166 184 166 508q0 293 -137 472q-148 196 -403 196t-402 -196 q-136 -180 -136 -472zM481 1626l233 266h140l233 -266h-130l-173 176l-173 -176h-130z" />
<glyph unicode="&#xd5;" horiz-adv-x="1575" vert-adv-y="1404" d="M96 757q0 375 186 586q184 206 505 206q322 0 505 -206q187 -212 187 -586t-187 -585q-184 -208 -500 -208q-292 0 -473 169q-223 212 -223 624zM249 757q0 -291 136 -474q147 -195 398 -195q234 0 378 161q166 184 166 508q0 293 -137 472q-148 196 -403 196t-402 -196 q-136 -180 -136 -472zM435 1691q47 178 189 178q70 0 160 -46l66 -35q63 -32 107 -32q65 0 94 98l98 -23q-23 -86 -74 -135q-46 -45 -113 -45q-65 0 -163 49l-63 32q-65 32 -101 32q-66 0 -102 -96z" />
<glyph unicode="&#xd6;" horiz-adv-x="1575" vert-adv-y="1404" d="M96 757q0 375 186 586q184 206 505 206q322 0 505 -206q187 -212 187 -586t-187 -585q-184 -208 -500 -208q-292 0 -473 169q-223 212 -223 624zM249 757q0 -291 136 -474q147 -195 398 -195q234 0 378 161q166 184 166 508q0 293 -137 472q-148 196 -403 196t-402 -196 q-136 -180 -136 -472zM552 1654v205h134v-205h-134zM877 1654v205h135v-205h-135z" />
<glyph unicode="&#xd7;" horiz-adv-x="1170" vert-adv-y="1404" d="M161 335l349 381l-349 382l82 76l343 -375l343 375l82 -76l-349 -382l349 -381l-82 -76l-343 375l-343 -375z" />
<glyph unicode="&#xd8;" horiz-adv-x="1575" vert-adv-y="1404" d="M96 756q0 375 186 587q184 206 505 206q208 0 373 -96l131 205l100 -66l-135 -213q223 -219 223 -621q0 -375 -187 -586q-184 -208 -505 -208q-210 0 -370 94l-130 -202l-101 66l135 210q-225 218 -225 624zM245 757q0 -307 155 -500l688 1084q-133 90 -301 90 q-259 0 -406 -195q-136 -182 -136 -479zM488 172q126 -90 298 -90q234 0 378 161q167 185 167 515q0 308 -155 498z" />
<glyph unicode="&#xd9;" horiz-adv-x="1411" vert-adv-y="1404" d="M140 568v945h141v-933q0 -265 117 -385q103 -107 310 -107q204 0 307 107q115 120 115 385v933h140v-945q0 -604 -560 -604q-570 0 -570 604zM530 1892h150l161 -266h-120z" />
<glyph unicode="&#xda;" horiz-adv-x="1411" vert-adv-y="1404" d="M140 568v945h141v-933q0 -265 117 -385q103 -107 310 -107q204 0 307 107q115 120 115 385v933h140v-945q0 -604 -560 -604q-570 0 -570 604zM599 1626l160 266h150l-190 -266h-120z" />
<glyph unicode="&#xdb;" horiz-adv-x="1411" vert-adv-y="1404" d="M140 568v945h141v-933q0 -265 117 -385q103 -107 310 -107q204 0 307 107q115 120 115 385v933h140v-945q0 -604 -560 -604q-570 0 -570 604zM401 1626l233 266h140l233 -266h-130l-173 176l-173 -176h-130z" />
<glyph unicode="&#xdc;" horiz-adv-x="1411" vert-adv-y="1404" d="M140 568v945h141v-933q0 -265 117 -385q103 -107 310 -107q204 0 307 107q115 120 115 385v933h140v-945q0 -604 -560 -604q-570 0 -570 604zM473 1654v205h134v-205h-134zM798 1654v205h135v-205h-135z" />
<glyph unicode="&#xdd;" horiz-adv-x="1198" vert-adv-y="1404" d="M0 1513h155l449 -799l446 799h149l-531 -933v-580h-140v580zM529 1626l160 266h150l-190 -266h-120z" />
<glyph unicode="&#xde;" horiz-adv-x="1268" vert-adv-y="1404" d="M151 0v1513h140v-289h460q247 0 366 -149q91 -114 91 -301q0 -205 -133 -326q-133 -123 -365 -123h-419v-325h-140zM291 446h431q172 0 263 104q74 84 74 232q0 175 -114 259q-83 61 -217 61h-437v-656z" />
<glyph unicode="&#xdf;" horiz-adv-x="1135" vert-adv-y="1404" d="M130 0v1092q0 233 137 346q116 96 306 96q187 0 302 -102q94 -83 94 -230q0 -255 -266 -357q183 -18 272 -129q80 -100 80 -288q0 -198 -127 -324q-121 -122 -311 -122q-93 0 -169 16l8 117q53 -17 129 -17q160 0 249 94q85 89 85 243q0 166 -89 246q-107 96 -355 96h-19 v116h21q126 0 216 52q142 83 142 254q0 124 -91 184q-67 44 -188 44q-297 0 -297 -359v-1068h-129z" />
<glyph unicode="&#xe0;" horiz-adv-x="999" vert-adv-y="1404" d="M73 269q0 173 112 263q83 67 242 90l339 50v87q0 229 -256 229q-140 0 -211 -70q-49 -47 -80 -139l-115 29q87 288 413 288q199 0 295 -97q83 -84 83 -233v-586q0 -73 28 -180h-126q-1 2 -3 11q-1 3 -4 11q-15 38 -15 129q-89 -112 -180 -154q-70 -33 -201 -33 q-137 0 -224 75q-97 84 -97 230zM205 273q0 -101 62 -153q53 -46 149 -46q125 0 217 61q133 88 133 252v175l-343 -54q-218 -35 -218 -235zM340 1513h150l161 -266h-121z" />
<glyph unicode="&#xe1;" horiz-adv-x="999" vert-adv-y="1404" d="M73 269q0 173 112 263q83 67 242 90l339 50v87q0 229 -256 229q-140 0 -211 -70q-49 -47 -80 -139l-115 29q87 288 413 288q199 0 295 -97q83 -84 83 -233v-586q0 -73 28 -180h-126q-1 2 -3 11q-1 3 -4 11q-15 38 -15 129q-89 -112 -180 -154q-70 -33 -201 -33 q-137 0 -224 75q-97 84 -97 230zM205 273q0 -101 62 -153q53 -46 149 -46q125 0 217 61q133 88 133 252v175l-343 -54q-218 -35 -218 -235zM413 1247l161 266h150l-190 -266h-121z" />
<glyph unicode="&#xe2;" horiz-adv-x="999" vert-adv-y="1404" d="M73 269q0 173 112 263q83 67 242 90l339 50v87q0 229 -256 229q-140 0 -211 -70q-49 -47 -80 -139l-115 29q87 288 413 288q199 0 295 -97q83 -84 83 -233v-586q0 -73 28 -180h-126q-1 2 -3 11q-1 3 -4 11q-15 38 -15 129q-89 -112 -180 -154q-70 -33 -201 -33 q-137 0 -224 75q-97 84 -97 230zM205 273q0 -101 62 -153q53 -46 149 -46q125 0 217 61q133 88 133 252v175l-343 -54q-218 -35 -218 -235zM218 1247l233 266h140l234 -266h-131l-172 176l-174 -176h-130z" />
<glyph unicode="&#xe3;" horiz-adv-x="999" vert-adv-y="1404" d="M73 269q0 173 112 263q83 67 242 90l339 50v87q0 229 -256 229q-140 0 -211 -70q-49 -47 -80 -139l-115 29q87 288 413 288q199 0 295 -97q83 -84 83 -233v-586q0 -73 28 -180h-126q-1 2 -3 11q-1 3 -4 11q-15 38 -15 129q-89 -112 -180 -154q-70 -33 -201 -33 q-137 0 -224 75q-97 84 -97 230zM153 1312q46 178 190 178q70 0 159 -46l67 -35q62 -32 107 -32q63 0 94 98l98 -24q-23 -84 -75 -134q-47 -45 -113 -45q-65 0 -163 49l-63 31q-65 33 -102 33q-66 0 -101 -96zM205 273q0 -101 62 -153q53 -46 149 -46q125 0 217 61 q133 88 133 252v175l-343 -54q-218 -35 -218 -235z" />
<glyph unicode="&#xe4;" horiz-adv-x="999" vert-adv-y="1404" d="M73 269q0 173 112 263q83 67 242 90l339 50v87q0 229 -256 229q-140 0 -211 -70q-49 -47 -80 -139l-115 29q87 288 413 288q199 0 295 -97q83 -84 83 -233v-586q0 -73 28 -180h-126q-1 2 -3 11q-1 3 -4 11q-15 38 -15 129q-89 -112 -180 -154q-70 -33 -201 -33 q-137 0 -224 75q-97 84 -97 230zM205 273q0 -101 62 -153q53 -46 149 -46q125 0 217 61q133 88 133 252v175l-343 -54q-218 -35 -218 -235zM288 1277v205h134v-205h-134zM613 1277v205h134v-205h-134z" />
<glyph unicode="&#xe5;" horiz-adv-x="999" vert-adv-y="1404" d="M73 269q0 173 112 263q83 67 242 90l339 50v87q0 229 -256 229q-140 0 -211 -70q-49 -47 -80 -139l-115 29q87 288 413 288q199 0 295 -97q83 -84 83 -233v-586q0 -73 28 -180h-126q-1 2 -3 11q-1 3 -4 11q-15 38 -15 129q-89 -112 -180 -154q-70 -33 -201 -33 q-137 0 -224 75q-97 84 -97 230zM205 273q0 -101 62 -153q53 -46 149 -46q125 0 217 61q133 88 133 252v175l-343 -54q-218 -35 -218 -235zM299 1380q0 103 66 157q55 45 157 45q120 0 177 -74q39 -50 39 -131q0 -100 -66 -154q-56 -45 -151 -45q-101 0 -158 49 q-64 53 -64 153zM384 1381q0 -64 44 -99q33 -28 91 -28q62 0 101 37q34 32 34 92q0 70 -56 102q-36 20 -81 20q-59 0 -99 -36q-34 -30 -34 -88z" />
<glyph unicode="&#xe6;" horiz-adv-x="1767" vert-adv-y="1404" d="M73 269q0 173 112 263q83 67 242 90l341 50v69q0 247 -263 247q-135 0 -206 -70q-49 -47 -80 -139l-115 29q87 288 410 288q150 0 239 -56q76 -49 116 -147q118 203 373 203q222 0 346 -146q108 -130 108 -341v-21v-22v-13v-14q0 -18 -2 -31h-803q4 -178 70 -287 q88 -145 267 -145q160 0 250 104q41 47 75 147l121 -44q-106 -319 -445 -319q-291 0 -396 233q-75 -121 -179 -177q-101 -56 -246 -56q-144 0 -236 75q-99 83 -99 230zM205 275q0 -115 81 -167q54 -34 145 -34q133 0 229 73q108 83 108 240v175l-345 -54q-218 -35 -218 -233 zM893 609h668q0 148 -62 245q-85 136 -261 136q-184 0 -279 -154q-57 -95 -66 -227z" />
<glyph unicode="&#xe7;" horiz-adv-x="1026" vert-adv-y="1404" d="M80 530q0 254 114 403q123 163 355 163q334 0 412 -319l-128 -38q-30 118 -83 172q-72 75 -206 75q-165 0 -251 -134q-76 -118 -76 -322q0 -208 73 -320q86 -134 257 -134q168 0 245 122q36 56 57 145l124 -36q-101 -343 -422 -343q-210 0 -332 133q-139 150 -139 433z M311 -385l190 266h121l-161 -266h-150z" />
<glyph unicode="&#xe8;" horiz-adv-x="1093" vert-adv-y="1404" d="M80 526q0 249 122 403q130 167 363 167q226 0 348 -146q108 -131 108 -341v-21v-22v-13v-14q0 -18 -2 -31h-802q5 -180 70 -287q87 -145 267 -145q157 0 244 98q42 48 81 153l121 -44q-37 -111 -107 -186q-125 -133 -337 -133q-207 0 -333 131q-143 151 -143 431z M219 609h668q-1 151 -62 245q-87 136 -262 136q-184 0 -278 -154q-58 -95 -66 -227zM376 1513h150l161 -266h-121z" />
<glyph unicode="&#xe9;" horiz-adv-x="1093" vert-adv-y="1404" d="M80 526q0 249 122 403q130 167 363 167q226 0 348 -146q108 -131 108 -341v-21v-22v-13v-14q0 -18 -2 -31h-802q5 -180 70 -287q87 -145 267 -145q157 0 244 98q42 48 81 153l121 -44q-37 -111 -107 -186q-125 -133 -337 -133q-207 0 -333 131q-143 151 -143 431z M219 609h668q-1 151 -62 245q-87 136 -262 136q-184 0 -278 -154q-58 -95 -66 -227zM458 1247l161 266h150l-190 -266h-121z" />
<glyph unicode="&#xea;" horiz-adv-x="1093" vert-adv-y="1404" d="M80 526q0 249 122 403q130 167 363 167q226 0 348 -146q108 -131 108 -341v-21v-22v-13v-14q0 -18 -2 -31h-802q5 -180 70 -287q87 -145 267 -145q157 0 244 98q42 48 81 153l121 -44q-37 -111 -107 -186q-125 -133 -337 -133q-207 0 -333 131q-143 151 -143 431z M219 609h668q-1 151 -62 245q-87 136 -262 136q-184 0 -278 -154q-58 -95 -66 -227zM267 1247l233 266h140l234 -266h-131l-172 176l-174 -176h-130z" />
<glyph unicode="&#xeb;" horiz-adv-x="1093" vert-adv-y="1404" d="M80 526q0 249 122 403q130 167 363 167q226 0 348 -146q108 -131 108 -341v-21v-22v-13v-14q0 -18 -2 -31h-802q5 -180 70 -287q87 -145 267 -145q157 0 244 98q42 48 81 153l121 -44q-37 -111 -107 -186q-125 -133 -337 -133q-207 0 -333 131q-143 151 -143 431z M219 609h668q-1 151 -62 245q-87 136 -262 136q-184 0 -278 -154q-58 -95 -66 -227zM340 1277v205h134v-205h-134zM665 1277v205h134v-205h-134z" />
<glyph unicode="&#xec;" horiz-adv-x="409" vert-adv-y="1404" d="M-43 1513h150l161 -266h-121zM140 0v1059h129v-1059h-129z" />
<glyph unicode="&#xed;" horiz-adv-x="409" vert-adv-y="1404" d="M140 0v1059h129v-1059h-129zM141 1247l161 266h150l-190 -266h-121z" />
<glyph unicode="&#xee;" horiz-adv-x="409" vert-adv-y="1404" d="M-99 1247l233 266h140l234 -266h-131l-172 176l-174 -176h-130zM140 0v1059h129v-1059h-129z" />
<glyph unicode="&#xef;" horiz-adv-x="409" vert-adv-y="1404" d="M-24 1277v205h135v-205h-135zM140 0v1059h129v-1059h-129zM302 1277v205h134v-205h-134z" />
<glyph unicode="&#xf0;" horiz-adv-x="1118" vert-adv-y="1404" d="M80 473q0 231 116 368q124 147 349 147q118 0 212 -47q48 -24 80 -56q-69 209 -213 365l-199 -148l-54 84l183 137q-89 83 -190 144l63 82q126 -69 226 -156l182 137l56 -83l-167 -122q130 -142 196 -274q118 -235 118 -503q0 -281 -119 -429q-123 -155 -361 -155 q-211 0 -337 119q-141 135 -141 390zM217 473q0 -180 77 -282q89 -117 263 -117q158 0 248 98q95 105 95 305q0 181 -81 283q-90 117 -266 117q-171 0 -259 -118q-77 -105 -77 -286z" />
<glyph unicode="&#xf1;" horiz-adv-x="1107" vert-adv-y="1404" d="M130 0v1059h129v-184q59 103 122 150q95 71 242 71q167 0 263 -100q91 -96 91 -259v-737h-128v703q0 278 -256 278q-162 0 -256 -148q-78 -125 -78 -303v-530h-129zM201 1312q46 178 190 178q70 0 159 -46l67 -35q62 -32 107 -32q63 0 94 98l98 -24q-23 -84 -75 -134 q-47 -45 -113 -45q-65 0 -163 49l-63 31q-65 33 -102 33q-66 0 -101 -96z" />
<glyph unicode="&#xf2;" horiz-adv-x="1116" vert-adv-y="1404" d="M80 530q0 256 117 405q127 161 361 161q233 0 360 -161q118 -151 118 -405q0 -255 -118 -405q-127 -161 -356 -161q-215 0 -340 132q-142 151 -142 434zM217 526q0 -200 77 -318q89 -134 261 -134q166 0 258 123q87 114 87 337q0 200 -80 318q-90 134 -261 134 q-192 0 -281 -158q-61 -111 -61 -302zM364 1513h150l161 -266h-121z" />
<glyph unicode="&#xf3;" horiz-adv-x="1116" vert-adv-y="1404" d="M80 530q0 256 117 405q127 161 361 161q233 0 360 -161q118 -151 118 -405q0 -255 -118 -405q-127 -161 -356 -161q-215 0 -340 132q-142 151 -142 434zM217 526q0 -200 77 -318q89 -134 261 -134q166 0 258 123q87 114 87 337q0 200 -80 318q-90 134 -261 134 q-192 0 -281 -158q-61 -111 -61 -302zM457 1247l161 266h150l-190 -266h-121z" />
<glyph unicode="&#xf4;" horiz-adv-x="1116" vert-adv-y="1404" d="M80 530q0 256 117 405q127 161 361 161q233 0 360 -161q118 -151 118 -405q0 -255 -118 -405q-127 -161 -356 -161q-215 0 -340 132q-142 151 -142 434zM217 526q0 -200 77 -318q89 -134 261 -134q166 0 258 123q87 114 87 337q0 200 -80 318q-90 134 -261 134 q-192 0 -281 -158q-61 -111 -61 -302zM255 1247l233 266h140l234 -266h-131l-172 176l-174 -176h-130z" />
<glyph unicode="&#xf5;" horiz-adv-x="1116" vert-adv-y="1404" d="M80 530q0 256 117 405q127 161 361 161q233 0 360 -161q118 -151 118 -405q0 -255 -118 -405q-127 -161 -356 -161q-215 0 -340 132q-142 151 -142 434zM209 1312q46 178 190 178q70 0 159 -46l67 -35q62 -32 107 -32q63 0 94 98l98 -24q-23 -84 -75 -134 q-47 -45 -113 -45q-65 0 -163 49l-63 31q-65 33 -102 33q-66 0 -101 -96zM217 526q0 -200 77 -318q89 -134 261 -134q166 0 258 123q87 114 87 337q0 200 -80 318q-90 134 -261 134q-192 0 -281 -158q-61 -111 -61 -302z" />
<glyph unicode="&#xf6;" horiz-adv-x="1116" vert-adv-y="1404" d="M80 530q0 256 117 405q127 161 361 161q233 0 360 -161q118 -151 118 -405q0 -255 -118 -405q-127 -161 -356 -161q-215 0 -340 132q-142 151 -142 434zM217 526q0 -200 77 -318q89 -134 261 -134q166 0 258 123q87 114 87 337q0 200 -80 318q-90 134 -261 134 q-192 0 -281 -158q-61 -111 -61 -302zM339 1277v205h134v-205h-134zM664 1277v205h134v-205h-134z" />
<glyph unicode="&#xf7;" horiz-adv-x="1170" vert-adv-y="1404" d="M50 661v111h1068v-111h-1068zM504 235v213h162v-213h-162zM504 986v213h162v-213h-162z" />
<glyph unicode="&#xf8;" horiz-adv-x="1116" vert-adv-y="1404" d="M80 528q0 257 117 407q127 161 361 161q151 0 261 -70l98 152l85 -52l-107 -165q141 -155 141 -431q0 -255 -118 -405q-127 -161 -359 -161q-148 0 -260 68l-98 -153l-84 52l103 165q-140 160 -140 432zM211 530q0 -205 78 -327l468 726q-87 61 -200 61q-178 0 -267 -133 q-79 -118 -79 -327zM362 128q78 -57 196 -57q167 0 259 120q89 116 89 344q0 193 -79 320z" />
<glyph unicode="&#xf9;" horiz-adv-x="1107" vert-adv-y="1404" d="M130 323v736h129v-701q0 -127 57 -198q65 -84 196 -84q163 0 257 150q80 126 80 302v531h128v-1059h-128v186q-59 -104 -124 -151q-96 -71 -245 -71q-127 0 -215 62q-135 96 -135 297zM363 1513h150l161 -266h-121z" />
<glyph unicode="&#xfa;" horiz-adv-x="1107" vert-adv-y="1404" d="M130 323v736h129v-701q0 -127 57 -198q65 -84 196 -84q163 0 257 150q80 126 80 302v531h128v-1059h-128v186q-59 -104 -124 -151q-96 -71 -245 -71q-127 0 -215 62q-135 96 -135 297zM457 1247l161 266h150l-190 -266h-121z" />
<glyph unicode="&#xfb;" horiz-adv-x="1107" vert-adv-y="1404" d="M130 323v736h129v-701q0 -127 57 -198q65 -84 196 -84q163 0 257 150q80 126 80 302v531h128v-1059h-128v186q-59 -104 -124 -151q-96 -71 -245 -71q-127 0 -215 62q-135 96 -135 297zM250 1247l233 266h140l234 -266h-131l-172 176l-174 -176h-130z" />
<glyph unicode="&#xfc;" horiz-adv-x="1107" vert-adv-y="1404" d="M130 323v736h129v-701q0 -127 57 -198q65 -84 196 -84q163 0 257 150q80 126 80 302v531h128v-1059h-128v186q-59 -104 -124 -151q-96 -71 -245 -71q-127 0 -215 62q-135 96 -135 297zM336 1277v205h134v-205h-134zM661 1277v205h134v-205h-134z" />
<glyph unicode="&#xfd;" horiz-adv-x="969" vert-adv-y="1404" d="M0 1059h138l370 -883l333 883h128l-479 -1270q-38 -100 -98 -151q-62 -54 -161 -54h-11q-79 0 -158 25l24 108q67 -18 117 -18q75 0 118 42q32 32 58 98l65 167zM408 1247l161 266h150l-190 -266h-121z" />
<glyph unicode="&#xfe;" horiz-adv-x="1135" vert-adv-y="1404" d="M130 -385v1898h129v-624q126 207 368 207q207 0 322 -155q106 -145 106 -395q0 -260 -109 -412q-122 -170 -348 -170q-215 0 -339 187v-536h-129zM255 519q0 -188 75 -305q88 -138 250 -138q144 0 229 89q110 113 110 362q0 457 -322 457q-173 0 -265 -146 q-77 -125 -77 -319z" />
<glyph unicode="&#xff;" horiz-adv-x="969" vert-adv-y="1404" d="M0 1059h138l370 -883l333 883h128l-479 -1270q-38 -100 -98 -151q-62 -54 -161 -54h-11q-79 0 -158 25l24 108q67 -18 117 -18q75 0 118 42q32 32 58 98l65 167zM254 1277v205h134v-205h-134zM579 1277v205h134v-205h-134z" />
<glyph unicode="&#x100;" horiz-adv-x="1330" vert-adv-y="1404" d="M0 0l576 1513h181l574 -1513h-153l-150 404h-741l-153 -404h-134zM333 524h648l-320 861zM372 1694v110h591v-110h-591z" />
<glyph unicode="&#x101;" horiz-adv-x="999" vert-adv-y="1404" d="M73 269q0 173 112 263q83 67 242 90l339 50v87q0 229 -256 229q-140 0 -211 -70q-49 -47 -80 -139l-115 29q87 288 413 288q199 0 295 -97q83 -84 83 -233v-586q0 -73 28 -180h-126q-1 2 -3 11q-1 3 -4 11q-15 38 -15 129q-89 -112 -180 -154q-70 -33 -201 -33 q-137 0 -224 75q-97 84 -97 230zM205 273q0 -101 62 -153q53 -46 149 -46q125 0 217 61q133 88 133 252v175l-343 -54q-218 -35 -218 -235zM245 1317v110h537v-110h-537z" />
<glyph unicode="&#x102;" horiz-adv-x="1330" vert-adv-y="1404" d="M0 0l576 1513h181l574 -1513h-153l-150 404h-741l-153 -404h-134zM333 524h648l-320 861zM361 1859h116q47 -106 193 -106q144 0 187 106h114q-50 -206 -305 -206q-256 0 -305 206z" />
<glyph unicode="&#x103;" horiz-adv-x="999" vert-adv-y="1404" d="M73 269q0 173 112 263q83 67 242 90l339 50v87q0 229 -256 229q-140 0 -211 -70q-49 -47 -80 -139l-115 29q87 288 413 288q199 0 295 -97q83 -84 83 -233v-586q0 -73 28 -180h-126q-1 2 -3 11q-1 3 -4 11q-15 38 -15 129q-89 -112 -180 -154q-70 -33 -201 -33 q-137 0 -224 75q-97 84 -97 230zM205 273q0 -101 62 -153q53 -46 149 -46q125 0 217 61q133 88 133 252v175l-343 -54q-218 -35 -218 -235zM209 1483h117q18 -44 64 -74q50 -32 129 -32q146 0 186 106h115q-52 -206 -305 -206q-258 0 -306 206z" />
<glyph unicode="&#x104;" horiz-adv-x="1330" vert-adv-y="1404" d="M0 0l576 1513h181l574 -1513h-47q-5 -4 -11 -9q-80 -64 -80 -143q0 -73 75 -73q41 0 101 37v-97q-57 -36 -122 -36q-95 0 -139 61q-24 35 -24 79q0 103 123 181h-29l-150 404h-741l-153 -404h-134zM333 524h648l-320 861z" />
<glyph unicode="&#x105;" horiz-adv-x="999" vert-adv-y="1404" d="M73 269q0 173 112 263q83 67 242 90l339 50v87q0 229 -256 229q-140 0 -211 -70q-49 -47 -80 -139l-115 29q87 288 413 288q199 0 295 -97q83 -84 83 -233v-586q0 -73 28 -180h-25q-6 -4 -12 -9q-80 -64 -80 -143q0 -73 75 -73q42 0 101 37v-97q-57 -36 -122 -36 q-94 0 -139 61q-24 35 -24 79q0 103 123 181h-23q-1 2 -3 11q-1 3 -4 11q-15 38 -15 129q-89 -112 -180 -154q-70 -33 -201 -33q-137 0 -224 75q-97 84 -97 230zM205 273q0 -101 62 -153q53 -46 149 -46q125 0 217 61q133 88 133 252v175l-343 -54q-218 -35 -218 -235z" />
<glyph unicode="&#x106;" horiz-adv-x="1434" vert-adv-y="1404" d="M96 743q0 380 178 595q177 211 485 211q251 0 402 -125q135 -113 180 -319l-141 -37q-41 150 -117 233q-115 126 -323 126q-260 0 -394 -207q-117 -178 -117 -481q0 -291 123 -464q136 -187 382 -187q241 0 367 168q75 99 101 256l145 -22q-111 -526 -618 -526 q-265 0 -433 158q-220 207 -220 621zM653 1626l160 266h150l-190 -266h-120z" />
<glyph unicode="&#x107;" horiz-adv-x="1026" vert-adv-y="1404" d="M80 530q0 254 114 403q123 163 355 163q334 0 412 -319l-128 -38q-30 118 -83 172q-72 75 -206 75q-165 0 -251 -134q-76 -118 -76 -322q0 -208 73 -320q86 -134 257 -134q168 0 245 122q36 56 57 145l124 -36q-101 -343 -422 -343q-210 0 -332 133q-139 150 -139 433z M454 1247l161 266h150l-190 -266h-121z" />
<glyph unicode="&#x108;" horiz-adv-x="1434" vert-adv-y="1404" d="M96 743q0 380 178 595q177 211 485 211q251 0 402 -125q135 -113 180 -319l-141 -37q-41 150 -117 233q-115 126 -323 126q-260 0 -394 -207q-117 -178 -117 -481q0 -291 123 -464q136 -187 382 -187q241 0 367 168q75 99 101 256l145 -22q-111 -526 -618 -526 q-265 0 -433 158q-220 207 -220 621zM441 1636l233 266h140l233 -266h-130l-173 176l-173 -176h-130z" />
<glyph unicode="&#x109;" horiz-adv-x="1026" vert-adv-y="1404" d="M80 530q0 254 114 403q123 163 355 163q334 0 412 -319l-128 -38q-30 118 -83 172q-72 75 -206 75q-165 0 -251 -134q-76 -118 -76 -322q0 -208 73 -320q86 -134 257 -134q168 0 245 122q36 56 57 145l124 -36q-101 -343 -422 -343q-210 0 -332 133q-139 150 -139 433z M234 1247l233 266h140l234 -266h-131l-172 176l-174 -176h-130z" />
<glyph unicode="&#x10a;" horiz-adv-x="1434" vert-adv-y="1404" d="M96 743q0 380 178 595q177 211 485 211q251 0 402 -125q135 -113 180 -319l-141 -37q-41 150 -117 233q-115 126 -323 126q-260 0 -394 -207q-117 -178 -117 -481q0 -291 123 -464q136 -187 382 -187q241 0 367 168q75 99 101 256l145 -22q-111 -526 -618 -526 q-265 0 -433 158q-220 207 -220 621zM691 1651v211h134v-211h-134z" />
<glyph unicode="&#x10b;" horiz-adv-x="1026" vert-adv-y="1404" d="M80 530q0 254 114 403q123 163 355 163q334 0 412 -319l-128 -38q-30 118 -83 172q-72 75 -206 75q-165 0 -251 -134q-76 -118 -76 -322q0 -208 73 -320q86 -134 257 -134q168 0 245 122q36 56 57 145l124 -36q-101 -343 -422 -343q-210 0 -332 133q-139 150 -139 433z M474 1274v211h135v-211h-135z" />
<glyph unicode="&#x10c;" horiz-adv-x="1434" vert-adv-y="1404" d="M96 743q0 380 178 595q177 211 485 211q251 0 402 -125q135 -113 180 -319l-141 -37q-41 150 -117 233q-115 126 -323 126q-260 0 -394 -207q-117 -178 -117 -481q0 -291 123 -464q136 -187 382 -187q241 0 367 168q75 99 101 256l145 -22q-111 -526 -618 -526 q-265 0 -433 158q-220 207 -220 621zM443 1892h130l173 -176l173 176h130l-233 -266h-140z" />
<glyph unicode="&#x10d;" horiz-adv-x="1026" vert-adv-y="1404" d="M80 530q0 254 114 403q123 163 355 163q334 0 412 -319l-128 -38q-30 118 -83 172q-72 75 -206 75q-165 0 -251 -134q-76 -118 -76 -322q0 -208 73 -320q86 -134 257 -134q168 0 245 122q36 56 57 145l124 -36q-101 -343 -422 -343q-210 0 -332 133q-139 150 -139 433z M239 1513h130l174 -176l172 176h131l-234 -266h-140z" />
<glyph unicode="&#x10e;" horiz-adv-x="1432" vert-adv-y="1404" d="M151 0v1513h455q731 0 731 -745q0 -386 -186 -577t-545 -191h-455zM291 126h325q298 0 443 184q127 158 127 452q0 625 -570 625h-325v-1261zM357 1892h130l173 -176l173 176h130l-233 -266h-140z" />
<glyph unicode="&#x10f;" horiz-adv-x="1228" vert-adv-y="1404" d="M80 512q0 260 110 413q122 171 345 171q214 0 342 -189v606h128v-1513h-128v167q-126 -203 -367 -203q-188 0 -300 126q-130 144 -130 422zM217 527q0 -451 319 -451q159 0 250 120q95 124 95 340q0 191 -76 309q-92 139 -258 139q-155 0 -240 -112q-90 -117 -90 -345z M1112 1206v307h128l-30 -307h-98z" />
<glyph unicode="&#x110;" horiz-adv-x="1432" vert-adv-y="1404" d="M0 709v120h151v684h455q731 0 731 -745q0 -386 -186 -577t-545 -191h-455v709h-151zM291 126h325q298 0 443 184q127 158 127 452q0 625 -570 625h-325v-558h341v-120h-341v-583z" />
<glyph unicode="&#x111;" horiz-adv-x="1135" vert-adv-y="1404" d="M80 512q0 260 110 413q122 171 345 171q214 0 342 -189v326h-331v110h331v170h128v-170h132v-110h-132v-1233h-128v167q-126 -203 -369 -203q-206 0 -321 154q-107 143 -107 394zM217 527q0 -451 319 -451q159 0 250 120q95 124 95 340q0 191 -76 309q-92 139 -258 139 q-155 0 -240 -112q-90 -117 -90 -345z" />
<glyph unicode="&#x112;" horiz-adv-x="1278" vert-adv-y="1404" d="M151 0v1513h1015v-126h-875v-552h831v-126h-831v-583h908v-126h-1048zM365 1694v110h591v-110h-591z" />
<glyph unicode="&#x113;" horiz-adv-x="1093" vert-adv-y="1404" d="M80 526q0 249 122 403q130 167 363 167q226 0 348 -146q108 -131 108 -341v-21v-22v-13v-14q0 -18 -2 -31h-802q5 -180 70 -287q87 -145 267 -145q157 0 244 98q42 48 81 153l121 -44q-37 -111 -107 -186q-125 -133 -337 -133q-207 0 -333 131q-143 151 -143 431z M219 609h668q-1 151 -62 245q-87 136 -262 136q-184 0 -278 -154q-58 -95 -66 -227zM298 1317v110h537v-110h-537z" />
<glyph unicode="&#x116;" horiz-adv-x="1278" vert-adv-y="1404" d="M151 0v1513h1015v-126h-875v-552h831v-126h-831v-583h908v-126h-1048zM607 1652v211h134v-211h-134z" />
<glyph unicode="&#x117;" horiz-adv-x="1093" vert-adv-y="1404" d="M80 526q0 249 122 403q130 167 363 167q226 0 348 -146q108 -131 108 -341v-21v-22v-13v-14q0 -18 -2 -31h-802q5 -180 70 -287q87 -145 267 -145q157 0 244 98q42 48 81 153l121 -44q-37 -111 -107 -186q-125 -133 -337 -133q-207 0 -333 131q-143 151 -143 431z M219 609h668q-1 151 -62 245q-87 136 -262 136q-184 0 -278 -154q-58 -95 -66 -227zM502 1275v211h135v-211h-135z" />
<glyph unicode="&#x118;" horiz-adv-x="1278" vert-adv-y="1404" d="M151 0v1513h1015v-126h-875v-552h831v-126h-831v-583h908v-126h-79q-5 -4 -11 -9q-80 -63 -80 -143q0 -73 75 -73q43 0 100 37v-97q-54 -36 -120 -36q-94 0 -139 61q-25 35 -25 79q0 104 124 181h-893z" />
<glyph unicode="&#x119;" horiz-adv-x="1093" vert-adv-y="1404" d="M80 526q0 249 122 403q130 167 363 167q226 0 348 -146q108 -131 108 -341v-21v-22v-13v-14q0 -18 -2 -31h-802q5 -180 70 -287q87 -145 267 -145q158 0 244 98q43 48 81 153l121 -44q-86 -265 -344 -311q-59 -59 -59 -125q0 -73 75 -73q42 0 101 38v-97 q-56 -37 -121 -37q-94 0 -139 61q-25 36 -25 79q0 76 76 146q-181 0 -298 93q-186 148 -186 469zM219 609h668q-1 151 -62 245q-86 136 -262 136q-184 0 -278 -154q-58 -95 -66 -227z" />
<glyph unicode="&#x11a;" horiz-adv-x="1278" vert-adv-y="1404" d="M151 0v1513h1015v-126h-875v-552h831v-126h-831v-583h908v-126h-1048zM383 1892h130l173 -176l173 176h130l-233 -266h-140z" />
<glyph unicode="&#x11b;" horiz-adv-x="1093" vert-adv-y="1404" d="M80 526q0 249 122 403q130 167 363 167q226 0 348 -146q108 -131 108 -341v-21v-22v-13v-14q0 -18 -2 -31h-802q5 -180 70 -287q87 -145 267 -145q157 0 244 98q42 48 81 153l121 -44q-37 -111 -107 -186q-125 -133 -337 -133q-207 0 -333 131q-143 151 -143 431z M219 609h668q-1 151 -62 245q-87 136 -262 136q-184 0 -278 -154q-58 -95 -66 -227zM264 1513h130l174 -176l172 176h131l-234 -266h-140z" />
<glyph unicode="&#x11e;" horiz-adv-x="1451" vert-adv-y="1404" d="M96 742q0 381 178 596q177 211 486 211q247 0 399 -122q127 -103 176 -291l-140 -38q-52 166 -158 250q-102 79 -281 79q-256 0 -390 -207q-117 -178 -117 -482q0 -296 121 -465q133 -185 377 -185q190 0 315 92q137 101 137 268v166h-245v125h385v-739h-90l-41 161 q-183 -197 -463 -197q-265 0 -432 158q-217 206 -217 620zM448 1859h116q47 -106 193 -106q144 0 187 106h114q-50 -206 -305 -206q-256 0 -305 206z" />
<glyph unicode="&#x11f;" horiz-adv-x="1135" vert-adv-y="1404" d="M80 514q0 260 110 412q122 170 347 170q220 0 340 -187v150h128v-1013q0 -265 -126 -371q-106 -91 -328 -91q-220 0 -336 101q-69 58 -98 152l111 44q32 -88 92 -130q78 -54 230 -54q136 0 208 44q50 33 79 80q40 67 40 209v159q-127 -207 -371 -207q-206 0 -319 145 q-107 138 -107 387zM217 529q0 -435 320 -435q158 0 249 113q95 118 95 334q0 219 -100 339q-86 104 -237 104q-153 0 -237 -110q-90 -117 -90 -345zM262 1483h117q18 -44 64 -74q50 -32 129 -32q146 0 186 106h115q-52 -206 -305 -206q-258 0 -306 206z" />
<glyph unicode="&#x120;" horiz-adv-x="1451" vert-adv-y="1404" d="M96 742q0 381 178 596q177 211 486 211q247 0 399 -122q127 -103 176 -291l-140 -38q-52 166 -158 250q-102 79 -281 79q-256 0 -390 -207q-117 -178 -117 -482q0 -296 121 -465q133 -185 377 -185q190 0 315 92q137 101 137 268v166h-245v125h385v-739h-90l-41 161 q-183 -197 -463 -197q-265 0 -432 158q-217 206 -217 620zM688 1651v211h134v-211h-134z" />
<glyph unicode="&#x121;" horiz-adv-x="1135" vert-adv-y="1404" d="M80 514q0 260 110 412q122 170 347 170q220 0 340 -187v150h128v-1013q0 -265 -126 -371q-106 -91 -328 -91q-220 0 -336 101q-69 58 -98 152l111 44q32 -88 92 -130q78 -54 230 -54q136 0 208 44q50 33 79 80q40 67 40 209v159q-127 -207 -371 -207q-206 0 -319 145 q-107 138 -107 387zM217 529q0 -435 320 -435q158 0 249 113q95 118 95 334q0 219 -100 339q-86 104 -237 104q-153 0 -237 -110q-90 -117 -90 -345zM499 1273v211h135v-211h-135z" />
<glyph unicode="&#x122;" horiz-adv-x="1451" vert-adv-y="1404" d="M96 742q0 381 178 596q177 211 486 211q247 0 399 -122q127 -103 176 -291l-140 -38q-52 166 -158 250q-102 79 -281 79q-256 0 -390 -207q-117 -178 -117 -482q0 -296 121 -465q133 -185 377 -185q190 0 315 92q137 101 137 268v166h-245v125h385v-739h-90l-41 161 q-183 -197 -463 -197q-265 0 -432 158q-217 206 -217 620zM539 -385l190 266h120l-160 -266h-150z" />
<glyph unicode="&#x123;" horiz-adv-x="1135" vert-adv-y="1404" d="M80 514q0 260 110 412q122 170 347 170q220 0 340 -187v150h128v-1013q0 -265 -126 -371q-106 -91 -328 -91q-220 0 -336 101q-69 58 -98 152l111 44q32 -88 92 -130q78 -54 230 -54q136 0 208 44q50 33 79 80q40 67 40 209v159q-127 -207 -371 -207q-206 0 -319 145 q-107 138 -107 387zM217 529q0 -435 320 -435q158 0 249 113q95 118 95 334q0 219 -100 339q-86 104 -237 104q-153 0 -237 -110q-90 -117 -90 -345zM436 1247l190 266h121l-161 -266h-150z" />
<glyph unicode="&#x126;" horiz-adv-x="1457" vert-adv-y="1404" d="M22 1229v110h129v174h140v-174h875v174h140v-174h146v-110h-146v-1229h-140v741h-875v-741h-140v1229h-129zM291 867h875v362h-875v-362z" />
<glyph unicode="&#x127;" horiz-adv-x="1107" vert-adv-y="1404" d="M18 1282v110h112v121h129v-121h306v-110h-306v-403q60 101 126 149q92 68 238 68q167 0 263 -100q91 -96 91 -259v-737h-128v703q0 278 -256 278q-162 0 -255 -148q-79 -125 -79 -303v-530h-129v1282h-112z" />
<glyph unicode="&#x12a;" horiz-adv-x="441" vert-adv-y="1404" d="M-73 1694v110h591v-110h-591zM151 0v1513h140v-1513h-140z" />
<glyph unicode="&#x12b;" horiz-adv-x="409" vert-adv-y="1404" d="M-65 1317v110h537v-110h-537zM140 0v1059h129v-1059h-129z" />
<glyph unicode="&#x12e;" horiz-adv-x="441" vert-adv-y="1404" d="M74 -182q0 104 123 182h-46v1513h140v-1513h-17q-5 -5 -11 -9q-81 -62 -81 -144q0 -73 76 -73q42 0 101 38v-97q-56 -37 -119 -37q-73 0 -125 47q-41 36 -41 93z" />
<glyph unicode="&#x12f;" horiz-adv-x="409" vert-adv-y="1404" d="M52 -181q0 102 123 181h78q-92 -73 -92 -152q0 -73 75 -73q42 0 101 37v-97q-57 -36 -121 -36q-95 0 -140 61q-24 35 -24 79zM140 0v1059h129v-1059h-129zM140 1308v205h129v-205h-129z" />
<glyph unicode="&#x130;" horiz-adv-x="441" vert-adv-y="1404" d="M151 0v1513h140v-1513h-140zM154 1652v211h134v-211h-134z" />
<glyph unicode="&#x131;" horiz-adv-x="409" vert-adv-y="1404" d="M140 0v1059h129v-1059h-129z" />
<glyph unicode="&#x136;" horiz-adv-x="1332" vert-adv-y="1404" d="M151 0v1513h140v-754l779 754h171l-595 -586l687 -927h-181l-606 827l-255 -245v-582h-140zM469 -385l190 266h120l-160 -266h-150z" />
<glyph unicode="&#x137;" horiz-adv-x="980" vert-adv-y="1404" d="M130 0v1513h129v-913l492 459h164l-396 -371l456 -688h-158l-392 600l-166 -158v-442h-129zM284 -385l190 266h120l-160 -266h-150z" />
<glyph unicode="&#x139;" horiz-adv-x="1166" vert-adv-y="1404" d="M151 0v1513h140v-1387h835v-126h-975zM161 1626l160 266h150l-190 -266h-120z" />
<glyph unicode="&#x13a;" horiz-adv-x="409" vert-adv-y="1404" d="M140 0v1513h129v-1513h-129zM142 1626l161 266h150l-190 -266h-121z" />
<glyph unicode="&#x13b;" horiz-adv-x="1166" vert-adv-y="1404" d="M151 0v1513h140v-1387h835v-126h-975zM421 -385l190 266h120l-160 -266h-150z" />
<glyph unicode="&#x13c;" horiz-adv-x="409" vert-adv-y="1404" d="M-41 -385l190 266h120l-160 -266h-150zM139 0v1513h129v-1513h-129z" />
<glyph unicode="&#x13d;" horiz-adv-x="1166" vert-adv-y="1404" d="M151 0v1513h140v-1387h835v-126h-975zM726 1206v307h128l-29 -307h-99z" />
<glyph unicode="&#x13e;" horiz-adv-x="510" vert-adv-y="1404" d="M140 0v1513h129v-1513h-129zM386 1206v307h128l-30 -307h-98z" />
<glyph unicode="&#x141;" horiz-adv-x="1166" vert-adv-y="1404" d="M0 492v148l151 111v762h140v-660l323 237v-148l-323 -237v-579h835v-126h-975v602z" />
<glyph unicode="&#x142;" horiz-adv-x="409" vert-adv-y="1404" d="M0 560v122l140 103v728h129v-632l141 103v-121l-141 -104v-759h-129v664z" />
<glyph unicode="&#x143;" horiz-adv-x="1443" vert-adv-y="1404" d="M151 0v1513h186l815 -1333v1333h141v-1513h-186l-816 1335v-1335h-140zM651 1626l160 266h150l-190 -266h-120z" />
<glyph unicode="&#x144;" horiz-adv-x="1107" vert-adv-y="1404" d="M130 0v1059h129v-184q59 103 122 150q95 71 242 71q167 0 263 -100q91 -96 91 -259v-737h-128v703q0 278 -256 278q-162 0 -256 -148q-78 -125 -78 -303v-530h-129zM472 1247l161 266h150l-190 -266h-121z" />
<glyph unicode="&#x145;" horiz-adv-x="1443" vert-adv-y="1404" d="M151 0v1513h186l815 -1333v1333h141v-1513h-186l-816 1335v-1335h-140zM524 -385l190 266h120l-160 -266h-150z" />
<glyph unicode="&#x146;" horiz-adv-x="1107" vert-adv-y="1404" d="M130 0v1059h129v-184q59 103 122 150q95 71 242 71q167 0 263 -100q91 -96 91 -259v-737h-128v703q0 278 -256 278q-162 0 -256 -148q-78 -125 -78 -303v-530h-129zM344 -385l190 266h120l-160 -266h-150z" />
<glyph unicode="&#x147;" horiz-adv-x="1443" vert-adv-y="1404" d="M151 0v1513h186l815 -1333v1333h141v-1513h-186l-816 1335v-1335h-140zM434 1892h130l173 -176l173 176h130l-233 -266h-140z" />
<glyph unicode="&#x148;" horiz-adv-x="1107" vert-adv-y="1404" d="M130 0v1059h129v-184q59 103 122 150q95 71 242 71q167 0 263 -100q91 -96 91 -259v-737h-128v703q0 278 -256 278q-162 0 -256 -148q-78 -125 -78 -303v-530h-129zM250 1513h130l174 -176l172 176h131l-234 -266h-140z" />
<glyph unicode="&#x14c;" horiz-adv-x="1575" vert-adv-y="1404" d="M96 757q0 375 186 586q184 206 505 206q322 0 505 -206q187 -212 187 -586t-187 -585q-184 -208 -500 -208q-292 0 -473 169q-223 212 -223 624zM249 757q0 -291 136 -474q147 -195 398 -195q234 0 378 161q166 184 166 508q0 293 -137 472q-148 196 -403 196t-402 -196 q-136 -180 -136 -472zM494 1694v110h591v-110h-591z" />
<glyph unicode="&#x14d;" horiz-adv-x="1116" vert-adv-y="1404" d="M80 530q0 256 117 405q127 161 361 161q233 0 360 -161q118 -151 118 -405q0 -255 -118 -405q-127 -161 -356 -161q-215 0 -340 132q-142 151 -142 434zM217 526q0 -200 77 -318q89 -134 261 -134q166 0 258 123q87 114 87 337q0 200 -80 318q-90 134 -261 134 q-192 0 -281 -158q-61 -111 -61 -302zM297 1317v110h537v-110h-537z" />
<glyph unicode="&#x150;" horiz-adv-x="1575" vert-adv-y="1404" d="M96 757q0 375 186 586q184 206 505 206q322 0 505 -206q187 -212 187 -586t-187 -585q-184 -208 -500 -208q-292 0 -473 169q-223 212 -223 624zM249 757q0 -291 136 -474q147 -195 398 -195q234 0 378 161q166 184 166 508q0 293 -137 472q-148 196 -403 196t-402 -196 q-136 -180 -136 -472zM614 1626l90 266h123l-112 -266h-101zM843 1626l91 266h122l-113 -266h-100z" />
<glyph unicode="&#x151;" horiz-adv-x="1116" vert-adv-y="1404" d="M80 530q0 256 117 405q127 161 361 161q233 0 360 -161q118 -151 118 -405q0 -255 -118 -405q-127 -161 -356 -161q-215 0 -340 132q-142 151 -142 434zM217 526q0 -200 77 -318q89 -134 261 -134q166 0 258 123q87 114 87 337q0 200 -80 318q-90 134 -261 134 q-192 0 -281 -158q-61 -111 -61 -302zM392 1247l91 266h122l-112 -266h-101zM622 1247l90 266h122l-112 -266h-100z" />
<glyph unicode="&#x152;" horiz-adv-x="2450" vert-adv-y="1404" d="M96 756q0 373 186 586q184 207 503 207q227 0 383 -109q84 -60 155 -166v239h1015v-126h-879v-552h835v-126h-835v-583h912v-126h-1048v239q-80 -117 -177 -179q-149 -96 -359 -96q-287 0 -468 169q-223 212 -223 623zM249 755q0 -291 133 -472q145 -195 399 -195 q246 0 392 182q150 187 150 490q0 284 -136 467q-148 198 -403 198q-257 0 -402 -196q-133 -180 -133 -474z" />
<glyph unicode="&#x153;" horiz-adv-x="1903" vert-adv-y="1404" d="M80 530q0 255 117 405q127 161 360 161q288 0 406 -257q51 105 123 165q112 92 289 92q250 0 368 -176q48 -70 71 -181q17 -80 17 -155v-20v-22v-14v-14q0 -19 -2 -30h-803q9 -169 71 -268q88 -142 260 -142q105 0 191 52q97 59 136 179l122 -44q-115 -297 -450 -297 q-275 0 -395 255q-116 -255 -402 -255q-212 0 -337 132q-142 151 -142 434zM217 526q0 -200 77 -318q89 -134 261 -134q166 0 258 123q87 114 87 337q0 200 -80 318q-90 134 -261 134q-192 0 -281 -158q-61 -111 -61 -302zM1028 584h668q-5 406 -329 406q-181 0 -272 -152 q-59 -100 -67 -254z" />
<glyph unicode="&#x154;" horiz-adv-x="1354" vert-adv-y="1404" d="M151 0v1513h613q238 0 360 -115q119 -110 119 -314q0 -156 -88 -276q-70 -98 -198 -144l330 -664h-165l-303 638q-15 -2 -26 -2h-15h-16h-471v-636h-140zM291 759h458q180 0 268 93q77 82 77 231q0 173 -115 251q-85 57 -230 57h-458v-632zM515 1626l160 266h150 l-190 -266h-120z" />
<glyph unicode="&#x155;" horiz-adv-x="637" vert-adv-y="1404" d="M130 0v1059h129v-186q54 104 123 155q60 44 152 44q56 0 104 -13l-14 -111q-34 11 -88 11q-127 0 -196 -92q-81 -108 -81 -323v-544h-129zM220 1247l161 266h150l-190 -266h-121z" />
<glyph unicode="&#x156;" horiz-adv-x="1354" vert-adv-y="1404" d="M151 0v1513h613q238 0 360 -115q119 -110 119 -314q0 -156 -88 -276q-70 -98 -198 -144l330 -664h-165l-303 638q-15 -2 -26 -2h-15h-16h-471v-636h-140zM291 759h458q180 0 268 93q77 82 77 231q0 173 -115 251q-85 57 -230 57h-458v-632zM442 -385l190 266h120 l-160 -266h-150z" />
<glyph unicode="&#x157;" horiz-adv-x="637" vert-adv-y="1404" d="M-38 -385l190 266h120l-160 -266h-150zM130 0v1059h129v-186q54 104 123 155q60 44 152 44q56 0 104 -13l-14 -111q-34 11 -88 11q-127 0 -196 -92q-81 -108 -81 -323v-544h-129z" />
<glyph unicode="&#x158;" horiz-adv-x="1354" vert-adv-y="1404" d="M151 0v1513h613q238 0 360 -115q119 -110 119 -314q0 -156 -88 -276q-70 -98 -198 -144l330 -664h-165l-303 638q-15 -2 -26 -2h-15h-16h-471v-636h-140zM291 759h458q180 0 268 93q77 82 77 231q0 173 -115 251q-85 57 -230 57h-458v-632zM341 1892h130l173 -176 l173 176h130l-233 -266h-140z" />
<glyph unicode="&#x159;" horiz-adv-x="637" vert-adv-y="1404" d="M45 1513h130l174 -176l172 176h131l-234 -266h-140zM130 0v1059h129v-186q54 104 123 155q60 44 152 44q56 0 104 -13l-14 -111q-34 11 -88 11q-127 0 -196 -92q-81 -108 -81 -323v-544h-129z" />
<glyph unicode="&#x15a;" horiz-adv-x="1312" vert-adv-y="1404" d="M60 402l139 33q42 -150 103 -217q113 -128 345 -128q418 0 418 290q0 128 -76 199q-71 67 -219 95l-256 50q-410 81 -410 412q0 184 128 294q139 119 396 119q264 0 404 -114q110 -90 161 -267l-132 -42q-49 139 -123 205q-107 96 -310 96q-190 0 -289 -79 q-90 -72 -90 -204q0 -117 71 -185q72 -66 222 -96l293 -56q199 -39 291 -143q94 -104 94 -274q0 -193 -131 -302q-148 -124 -436 -124q-273 0 -420 125q-118 101 -173 313zM550 1626l160 266h150l-190 -266h-120z" />
<glyph unicode="&#x15b;" horiz-adv-x="969" vert-adv-y="1404" d="M46 291l119 30q33 -116 80 -167q76 -81 232 -81q130 0 204 49q74 51 74 147q0 82 -47 128q-45 43 -140 63l-187 38q-295 61 -295 297q0 139 111 223q102 78 274 78q324 0 406 -288l-115 -31q-38 117 -116 169q-67 44 -184 44q-129 0 -194 -56q-55 -47 -55 -133 q0 -78 47 -122q48 -44 159 -67l203 -40q265 -53 265 -302q0 -149 -120 -233q-105 -73 -285 -73q-204 0 -314 101q-80 71 -122 226zM369 1247l161 266h150l-190 -266h-121z" />
<glyph unicode="&#x15e;" horiz-adv-x="1312" vert-adv-y="1404" d="M60 402l139 33q42 -150 103 -217q113 -128 345 -128q418 0 418 290q0 128 -76 199q-71 67 -219 95l-256 50q-410 81 -410 412q0 184 128 294q139 119 396 119q264 0 404 -114q110 -90 161 -267l-132 -42q-49 139 -123 205q-107 96 -310 96q-190 0 -289 -79 q-90 -72 -90 -204q0 -117 71 -185q72 -66 222 -96l293 -56q199 -39 291 -143q94 -104 94 -274q0 -193 -131 -302q-148 -124 -436 -124q-273 0 -420 125q-118 101 -173 313zM442 -385l190 266h121l-161 -266h-150z" />
<glyph unicode="&#x15f;" horiz-adv-x="969" vert-adv-y="1404" d="M46 291l119 30q33 -116 80 -167q76 -81 232 -81q130 0 204 49q74 51 74 147q0 82 -47 128q-45 43 -140 63l-187 38q-295 61 -295 297q0 139 111 223q102 78 274 78q324 0 406 -288l-115 -31q-38 117 -116 169q-67 44 -184 44q-129 0 -194 -56q-55 -47 -55 -133 q0 -78 47 -122q48 -44 159 -67l203 -40q265 -53 265 -302q0 -149 -120 -233q-105 -73 -285 -73q-204 0 -314 101q-80 71 -122 226zM284 -385l190 266h121l-161 -266h-150z" />
<glyph unicode="&#x160;" horiz-adv-x="1312" vert-adv-y="1404" d="M60 402l139 33q42 -150 103 -217q113 -128 345 -128q418 0 418 290q0 128 -76 199q-71 67 -219 95l-256 50q-410 81 -410 412q0 184 128 294q139 119 396 119q264 0 404 -114q110 -90 161 -267l-132 -42q-49 139 -123 205q-107 96 -310 96q-190 0 -289 -79 q-90 -72 -90 -204q0 -117 71 -185q72 -66 222 -96l293 -56q199 -39 291 -143q94 -104 94 -274q0 -193 -131 -302q-148 -124 -436 -124q-273 0 -420 125q-118 101 -173 313zM348 1892h130l173 -176l173 176h130l-233 -266h-140z" />
<glyph unicode="&#x161;" horiz-adv-x="969" vert-adv-y="1404" d="M46 291l119 30q33 -116 80 -167q76 -81 232 -81q130 0 204 49q74 51 74 147q0 82 -47 128q-45 43 -140 63l-187 38q-295 61 -295 297q0 139 111 223q102 78 274 78q324 0 406 -288l-115 -31q-38 117 -116 169q-67 44 -184 44q-129 0 -194 -56q-55 -47 -55 -133 q0 -78 47 -122q48 -44 159 -67l203 -40q265 -53 265 -302q0 -149 -120 -233q-105 -73 -285 -73q-204 0 -314 101q-80 71 -122 226zM167 1513h130l174 -176l172 176h131l-234 -266h-140z" />
<glyph unicode="&#x162;" horiz-adv-x="1340" vert-adv-y="1404" d="M50 1387v126h1241v-126h-550v-1387h-141v1387h-550zM427 -385l190 266h120l-160 -266h-150z" />
<glyph unicode="&#x163;" horiz-adv-x="626" vert-adv-y="1404" d="M56 954v105h145v302h128v-302h231v-105h-231v-707q0 -85 33 -120q27 -29 100 -29q57 0 108 9l10 -115q-107 -12 -164 -12q-96 0 -146 41q-69 55 -69 192v741h-145zM84 -385l190 266h120l-160 -266h-150z" />
<glyph unicode="&#x164;" horiz-adv-x="1340" vert-adv-y="1404" d="M50 1387v126h1241v-126h-550v-1387h-141v1387h-550zM369 1892h130l173 -176l173 176h130l-233 -266h-140z" />
<glyph unicode="&#x165;" horiz-adv-x="626" vert-adv-y="1404" d="M56 954v105h145v302h128v-302h231v-105h-231v-707q0 -85 33 -120q27 -29 100 -29q57 0 108 9l10 -115q-107 -12 -164 -12q-96 0 -146 41q-69 55 -69 192v741h-145zM453 1206v307h128l-30 -307h-98z" />
<glyph unicode="&#x16a;" horiz-adv-x="1411" vert-adv-y="1404" d="M140 568v945h141v-933q0 -265 117 -385q103 -107 310 -107q204 0 307 107q115 120 115 385v933h140v-945q0 -604 -560 -604q-570 0 -570 604zM412 1694v110h591v-110h-591z" />
<glyph unicode="&#x16b;" horiz-adv-x="1107" vert-adv-y="1404" d="M130 323v736h129v-701q0 -127 57 -198q65 -84 196 -84q163 0 257 150q80 126 80 302v531h128v-1059h-128v186q-59 -104 -124 -151q-96 -71 -245 -71q-127 0 -215 62q-135 96 -135 297zM285 1317v110h537v-110h-537z" />
<glyph unicode="&#x16e;" horiz-adv-x="1411" vert-adv-y="1404" d="M140 568v945h141v-933q0 -265 117 -385q103 -107 310 -107q204 0 307 107q115 120 115 385v933h140v-945q0 -604 -560 -604q-570 0 -570 604zM472 1683q0 107 69 164q58 48 166 48q126 0 186 -77q41 -53 41 -138q0 -106 -70 -162q-58 -48 -159 -48q-105 0 -166 51 q-67 57 -67 162zM557 1682q0 -68 48 -106q36 -30 97 -30q67 0 110 40q38 35 38 99q0 62 -43 99q-41 35 -105 35q-80 0 -120 -52q-25 -33 -25 -85z" />
<glyph unicode="&#x16f;" horiz-adv-x="1107" vert-adv-y="1404" d="M130 323v736h129v-701q0 -127 57 -198q65 -84 196 -84q163 0 257 150q80 126 80 302v531h128v-1059h-128v186q-59 -104 -124 -151q-96 -71 -245 -71q-127 0 -215 62q-135 96 -135 297zM343 1380q0 103 66 157q55 45 157 45q120 0 177 -74q39 -50 39 -131q0 -100 -66 -154 q-56 -45 -151 -45q-101 0 -158 49q-64 53 -64 153zM428 1381q0 -64 44 -99q33 -28 91 -28q62 0 101 37q34 32 34 92q0 70 -56 102q-36 20 -81 20q-59 0 -99 -36q-34 -30 -34 -88z" />
<glyph unicode="&#x170;" horiz-adv-x="1411" vert-adv-y="1404" d="M140 568v945h141v-933q0 -265 117 -385q103 -107 310 -107q204 0 307 107q115 120 115 385v933h140v-945q0 -604 -560 -604q-570 0 -570 604zM515 1626l90 266h123l-112 -266h-101zM744 1626l91 266h122l-113 -266h-100z" />
<glyph unicode="&#x171;" horiz-adv-x="1107" vert-adv-y="1404" d="M130 323v736h129v-701q0 -127 57 -198q65 -84 196 -84q163 0 257 150q80 126 80 302v531h128v-1059h-128v186q-59 -104 -124 -151q-96 -71 -245 -71q-127 0 -215 62q-135 96 -135 297zM384 1247l91 266h122l-112 -266h-101zM614 1247l90 266h122l-112 -266h-100z" />
<glyph unicode="&#x172;" horiz-adv-x="1411" vert-adv-y="1404" d="M140 568v945h141v-933q0 -265 117 -385q103 -107 311 -107q204 0 306 107q115 120 115 385v933h140v-945q0 -324 -161 -473q-105 -99 -290 -124q-57 -58 -57 -124q0 -72 76 -72q42 0 101 37v-97q-57 -36 -122 -36q-94 0 -139 61q-24 35 -24 79q0 75 76 145h-22 q-568 0 -568 604z" />
<glyph unicode="&#x173;" horiz-adv-x="1107" vert-adv-y="1404" d="M130 323v736h129v-701q0 -127 57 -198q65 -84 196 -84q163 0 257 150q80 126 80 302v531h128v-1059h-20q-5 -4 -11 -9q-81 -64 -81 -143q0 -73 76 -73q42 0 101 37v-97q-56 -36 -122 -36q-94 0 -139 61q-24 35 -24 79q0 103 123 181h-31v186q-59 -104 -124 -151 q-96 -71 -245 -71q-127 0 -215 62q-135 96 -135 297z" />
<glyph unicode="&#x178;" horiz-adv-x="1198" vert-adv-y="1404" d="M0 1513h155l449 -799l446 799h149l-531 -933v-580h-140v580zM380 1654v205h134v-205h-134zM705 1654v205h135v-205h-135z" />
<glyph unicode="&#x179;" horiz-adv-x="1227" vert-adv-y="1404" d="M74 0v128l914 1259h-884v126h1040v-128l-913 -1259h929v-126h-1086zM531 1626l160 266h150l-190 -266h-120z" />
<glyph unicode="&#x17a;" horiz-adv-x="903" vert-adv-y="1404" d="M60 0v104l618 850h-592v105h735v-103l-620 -849h642v-107h-783zM369 1247l161 266h150l-190 -266h-121z" />
<glyph unicode="&#x17b;" horiz-adv-x="1227" vert-adv-y="1404" d="M74 0v128l914 1259h-884v126h1040v-128l-913 -1259h929v-126h-1086zM561 1652v211h134v-211h-134z" />
<glyph unicode="&#x17c;" horiz-adv-x="903" vert-adv-y="1404" d="M60 0v104l618 850h-592v105h735v-103l-620 -849h642v-107h-783zM395 1273v211h135v-211h-135z" />
<glyph unicode="&#x17d;" horiz-adv-x="1227" vert-adv-y="1404" d="M74 0v128l914 1259h-884v126h1040v-128l-913 -1259h929v-126h-1086zM330 1892h130l173 -176l173 176h130l-233 -266h-140z" />
<glyph unicode="&#x17e;" horiz-adv-x="903" vert-adv-y="1404" d="M60 0v104l618 850h-592v105h735v-103l-620 -849h642v-107h-783zM152 1513h130l174 -176l172 176h131l-234 -266h-140z" />
<glyph unicode="&#x18f;" horiz-adv-x="1540" vert-adv-y="1404" d="M77 733q0 29 3 90h3l-1 1h1224q-9 213 -109 370q-148 231 -428 231q-198 0 -326 -115q-69 -61 -158 -176l-115 93q98 135 194 205q162 117 404 117q322 0 505 -206q187 -212 187 -585q0 -375 -186 -586q-184 -208 -505 -208q-288 0 -467 169q-108 102 -166 258 q-59 161 -59 342zM234 667q22 -210 108 -348q146 -231 425 -231q257 0 404 196q115 151 134 392h-1071l1 -10z" />
<glyph unicode="&#x192;" horiz-adv-x="869" vert-adv-y="1404" d="M-147 -402l19 109q59 -10 99 -10q79 0 125 42q38 36 55 131l165 927h-132v107h151l65 358q29 161 120 225q69 47 187 47q56 0 120 -9l-19 -112q-52 6 -93 6q-83 0 -126 -45q-43 -44 -61 -139l-61 -331h219v-107h-236l-165 -939q-18 -105 -61 -166q-73 -108 -243 -108 q-59 0 -128 14z" />
<glyph unicode="&#x259;" horiz-adv-x="1116" vert-adv-y="1404" d="M80 514q0 25 4 77h814q-9 140 -63 237q-88 158 -276 158q-111 0 -184 -50q-41 -29 -98 -106l-103 76q73 89 121 119q111 71 263 71q233 0 360 -161q118 -151 118 -405q0 -255 -118 -405q-127 -161 -358 -161q-213 0 -338 132q-70 76 -106 187t-36 231zM219 465 q11 -141 60 -233q88 -158 278 -158q191 0 280 159q48 85 60 232h-678z" />
<glyph unicode="&#x2c6;" horiz-adv-x="794" vert-adv-y="1404" d="M94 1247l233 266h140l234 -266h-131l-172 176l-174 -176h-130z" />
<glyph unicode="&#x2c7;" horiz-adv-x="794" vert-adv-y="1404" d="M94 1513h130l174 -176l172 176h131l-234 -266h-140z" />
<glyph unicode="&#x2c9;" horiz-adv-x="794" vert-adv-y="1404" d="M128 1317v110h537v-110h-537z" />
<glyph unicode="&#x2d8;" horiz-adv-x="794" vert-adv-y="1404" d="M92 1483h117q18 -44 64 -74q50 -32 129 -32q146 0 186 106h115q-52 -206 -305 -206q-258 0 -306 206z" />
<glyph unicode="&#x2d9;" horiz-adv-x="794" vert-adv-y="1404" d="M329 1275v211h135v-211h-135z" />
<glyph unicode="&#x2da;" horiz-adv-x="794" vert-adv-y="1404" d="M178 1380q0 103 66 157q55 45 157 45q120 0 177 -74q39 -50 39 -131q0 -100 -66 -154q-56 -45 -151 -45q-101 0 -158 49q-64 53 -64 153zM263 1381q0 -64 44 -99q33 -28 91 -28q62 0 101 37q34 32 34 92q0 70 -56 102q-36 20 -81 20q-59 0 -99 -36q-34 -30 -34 -88z" />
<glyph unicode="&#x2db;" horiz-adv-x="1330" vert-adv-y="1404" d="M1084 -181q0 102 123 181h78q-92 -73 -92 -152q0 -73 75 -73q42 0 101 37v-97q-57 -36 -121 -36q-95 0 -140 61q-24 35 -24 79z" />
<glyph unicode="&#x2dc;" horiz-adv-x="794" vert-adv-y="1404" d="M40 1312q46 178 190 178q70 0 159 -46l67 -35q62 -32 107 -32q63 0 94 98l98 -24q-23 -84 -75 -134q-47 -45 -113 -45q-65 0 -163 49l-63 31q-65 33 -102 33q-66 0 -101 -96z" />
<glyph unicode="&#x2dd;" horiz-adv-x="794" vert-adv-y="1404" d="M172 1247l91 266h122l-112 -266h-101zM402 1247l90 266h122l-112 -266h-100z" />
<glyph unicode="&#x37e;" horiz-adv-x="455" vert-adv-y="1404" d="M86 -299q131 139 131 275v24h-77v245h176v-235q0 -203 -165 -372zM140 814v245h176v-245h-176z" />
<glyph unicode="&#x384;" horiz-adv-x="464" vert-adv-y="1404" d="M149 1352v161h167v-161l-34 -419h-97z" />
<glyph unicode="&#x385;" horiz-adv-x="760" vert-adv-y="1404" d="M150 1277v205h134v-205h-134zM304 1687v96h154v-96l-31 -251h-90zM475 1277v205h135v-205h-135z" />
<glyph unicode="&#x386;" horiz-adv-x="1330" vert-adv-y="1404" d="M0 0l576 1513h181l574 -1513h-153l-150 404h-741l-153 -404h-134zM117 1352v161h167v-161l-34 -419h-97zM333 524h648l-320 861z" />
<glyph unicode="&#x387;" horiz-adv-x="455" vert-adv-y="1404" d="M140 594v245h176v-245h-176z" />
<glyph unicode="&#x388;" horiz-adv-x="1342" vert-adv-y="1404" d="M-20 1352v161h167v-161l-34 -419h-97zM214 0v1513h1015v-126h-875v-552h831v-126h-831v-583h908v-126h-1048z" />
<glyph unicode="&#x389;" horiz-adv-x="1519" vert-adv-y="1404" d="M-20 1352v161h167v-161l-34 -419h-97zM214 0v1513h140v-646h875v646h140v-1513h-140v741h-875v-741h-140z" />
<glyph unicode="&#x38a;" horiz-adv-x="504" vert-adv-y="1404" d="M-20 1352v161h167v-161l-34 -419h-97zM214 0v1513h140v-1513h-140z" />
<glyph unicode="&#x38c;" horiz-adv-x="1650" vert-adv-y="1404" d="M-20 1352v161h167v-161l-34 -419h-97zM170 757q0 375 186 586q184 206 505 206q322 0 505 -206q187 -212 187 -586t-187 -585q-184 -208 -500 -208q-292 0 -473 169q-223 212 -223 624zM323 757q0 -291 136 -474q147 -195 398 -195q234 0 378 161q166 184 166 508 q0 293 -137 472q-148 196 -403 196t-402 -196q-136 -180 -136 -472z" />
<glyph unicode="&#x38e;" horiz-adv-x="1378" vert-adv-y="1404" d="M-20 1352v161h167v-161l-34 -419h-97zM180 1513h155l449 -799l446 799h149l-531 -933v-580h-140v580z" />
<glyph unicode="&#x38f;" horiz-adv-x="1641" vert-adv-y="1404" d="M-20 1352v161h167v-161l-34 -419h-97zM171 790q0 323 173 530q194 229 518 229t516 -229q174 -207 174 -530q0 -246 -103 -422q-102 -174 -270 -240h366v-128h-576v160q130 27 228 107q203 165 203 510q0 282 -133 455q-76 97 -195 149q-99 44 -210 44q-163 0 -297 -92 q-142 -98 -202 -282q-40 -124 -40 -274q0 -378 243 -539q85 -57 190 -78v-160h-577v128h365q-82 33 -151 94q-222 198 -222 568z" />
<glyph unicode="&#x390;" horiz-adv-x="430" vert-adv-y="1404" d="M-15 1277v205h134v-205h-134zM139 1687v96h154v-96l-31 -251h-90zM151 0v1059h129v-1059h-129zM310 1277v205h135v-205h-135z" />
<glyph unicode="&#x391;" horiz-adv-x="1330" vert-adv-y="1404" d="M0 0l576 1513h181l574 -1513h-153l-150 404h-741l-153 -404h-134zM333 524h648l-320 861z" />
<glyph unicode="&#x392;" horiz-adv-x="1358" vert-adv-y="1404" d="M151 0v1513h579q465 0 465 -361q0 -148 -75 -236q-43 -51 -118 -93q122 -39 186 -107q91 -98 91 -278q0 -438 -551 -438h-577zM291 122h418q197 0 298 67q119 80 119 252q0 177 -123 253q-89 55 -260 55h-452v-627zM291 871h397q356 0 356 261q0 147 -90 206 q-80 53 -245 53h-418v-520z" />
<glyph unicode="&#x393;" horiz-adv-x="1166" vert-adv-y="1404" d="M151 0v1513h975v-126h-835v-1387h-140z" />
<glyph unicode="&#x394;" horiz-adv-x="1330" vert-adv-y="1404" d="M0 0l576 1513h181l574 -1513h-1331zM183 128h948l-470 1257z" />
<glyph unicode="&#x395;" horiz-adv-x="1278" vert-adv-y="1404" d="M151 0v1513h1015v-126h-875v-552h831v-126h-831v-583h908v-126h-1048z" />
<glyph unicode="&#x396;" horiz-adv-x="1227" vert-adv-y="1404" d="M74 0v128l914 1259h-884v126h1040v-128l-913 -1259h929v-126h-1086z" />
<glyph unicode="&#x397;" horiz-adv-x="1457" vert-adv-y="1404" d="M151 0v1513h140v-646h875v646h140v-1513h-140v741h-875v-741h-140z" />
<glyph unicode="&#x398;" horiz-adv-x="1575" vert-adv-y="1404" d="M96 750q0 374 186 585q184 208 505 208q322 0 505 -208q187 -211 187 -585t-187 -585q-184 -208 -500 -208q-292 0 -473 169q-223 212 -223 624zM249 750q0 -291 136 -474q147 -195 398 -195q234 0 378 161q166 184 166 508q0 293 -137 473q-148 195 -403 195t-402 -195 q-136 -181 -136 -473zM432 709v126h712v-126h-712z" />
<glyph unicode="&#x399;" horiz-adv-x="441" vert-adv-y="1404" d="M151 0v1513h140v-1513h-140z" />
<glyph unicode="&#x39a;" horiz-adv-x="1332" vert-adv-y="1404" d="M151 0v1513h140v-754l779 754h171l-595 -586l687 -927h-181l-606 827l-255 -245v-582h-140z" />
<glyph unicode="&#x39b;" horiz-adv-x="1330" vert-adv-y="1404" d="M0 0l576 1513h181l574 -1513h-153l-517 1385l-527 -1385h-134z" />
<glyph unicode="&#x39c;" horiz-adv-x="1780" vert-adv-y="1404" d="M151 0v1513h244l486 -1362l520 1362h229v-1513h-136v1393l-531 -1393h-178l-498 1407v-1407h-136z" />
<glyph unicode="&#x39d;" horiz-adv-x="1443" vert-adv-y="1404" d="M151 0v1513h186l815 -1333v1333h141v-1513h-186l-816 1335v-1335h-140z" />
<glyph unicode="&#x39e;" horiz-adv-x="1405" vert-adv-y="1404" d="M151 0v126h1103v-126h-1103zM171 1387v126h1064v-126h-1064zM241 709v126h923v-126h-923z" />
<glyph unicode="&#x39f;" horiz-adv-x="1575" vert-adv-y="1404" d="M96 757q0 375 186 586q184 206 505 206q322 0 505 -206q187 -212 187 -586t-187 -585q-184 -208 -500 -208q-292 0 -473 169q-223 212 -223 624zM249 757q0 -291 136 -474q147 -195 398 -195q234 0 378 161q166 184 166 508q0 293 -137 472q-148 196 -403 196t-402 -196 q-136 -180 -136 -472z" />
<glyph unicode="&#x3a0;" horiz-adv-x="1443" vert-adv-y="1404" d="M151 0v1513h1142v-1513h-141v1387h-861v-1387h-140z" />
<glyph unicode="&#x3a1;" horiz-adv-x="1278" vert-adv-y="1404" d="M151 0v1513h609q219 0 341 -120q117 -117 117 -327q0 -208 -131 -329q-134 -123 -367 -123h-429v-614h-140zM291 735h442q168 0 259 102q78 87 78 234q0 174 -115 259q-83 61 -216 61h-448v-656z" />
<glyph unicode="&#x3a3;" horiz-adv-x="1223" vert-adv-y="1404" d="M58 0v128l519 640l-433 619v126h1004v-126h-816l433 -619l-520 -640h934v-128h-1121z" />
<glyph unicode="&#x3a4;" horiz-adv-x="1340" vert-adv-y="1404" d="M50 1387v126h1241v-126h-550v-1387h-141v1387h-550z" />
<glyph unicode="&#x3a5;" horiz-adv-x="1198" vert-adv-y="1404" d="M0 1513h155l449 -799l446 799h149l-531 -933v-580h-140v580z" />
<glyph unicode="&#x3a6;" horiz-adv-x="1580" vert-adv-y="1404" d="M30 757q0 204 104 361q182 274 587 277v118h139v-118q260 -2 433 -120q138 -94 205 -252q53 -123 53 -266q0 -204 -104 -362q-181 -273 -587 -276v-119h-139v119q-259 2 -432 119q-138 95 -206 252q-53 122 -53 267zM182 757q0 -316 229 -444q123 -69 310 -70v1027 q-215 -1 -349 -94q-190 -133 -190 -419zM860 243q217 1 349 94q190 133 190 420q0 315 -228 443q-123 69 -311 70v-1027z" />
<glyph unicode="&#x3a7;" horiz-adv-x="1196" vert-adv-y="1404" d="M0 0l521 781l-485 732h161l403 -618l409 618h145l-482 -720l525 -793h-159l-446 678l-448 -678h-144z" />
<glyph unicode="&#x3a8;" horiz-adv-x="1525" vert-adv-y="1404" d="M96 1023v490h140v-521q0 -100 19 -182q27 -125 137 -207q115 -88 301 -94v1004h140v-1004q239 8 362 152q74 85 90 229q5 48 5 102v521h140v-490q0 -126 -19 -227q-53 -278 -338 -372q-113 -36 -240 -41v-383h-140v383q-307 12 -463 178q-110 118 -129 341q-5 56 -5 121z " />
<glyph unicode="&#x3a9;" horiz-adv-x="1574" vert-adv-y="1404" d="M97 790q0 323 173 530q194 229 518 229t516 -229q174 -207 174 -530q0 -246 -103 -422q-102 -174 -270 -240h366v-128h-576v160q130 27 228 107q203 165 203 510q0 282 -133 455q-76 97 -195 149q-99 44 -210 44q-163 0 -297 -92q-142 -98 -202 -282q-40 -124 -40 -274 q0 -378 243 -539q85 -57 190 -78v-160h-577v128h365q-82 33 -151 94q-222 198 -222 568z" />
<glyph unicode="&#x3aa;" horiz-adv-x="441" vert-adv-y="1404" d="M-6 1653v205h134v-205h-134zM151 0v1513h140v-1513h-140zM319 1653v205h135v-205h-135z" />
<glyph unicode="&#x3ab;" horiz-adv-x="1198" vert-adv-y="1404" d="M0 1513h155l449 -799l446 799h149l-531 -933v-580h-140v580zM380 1654v205h134v-205h-134zM705 1654v205h135v-205h-135z" />
<glyph unicode="&#x3ac;" horiz-adv-x="1222" vert-adv-y="1404" d="M80 532q0 202 80 345q119 219 366 219q191 0 303 -150q51 -67 92 -190l60 310h139l-127 -504l149 -562h-139l-88 328q-86 -194 -174 -270q-101 -87 -239 -87q-150 0 -256 95q-78 71 -123 195q-43 122 -43 271zM217 522q0 -244 103 -359q74 -83 176 -83q86 0 150 49 q87 67 152 207q22 48 44 116q26 86 25 90q-36 149 -66 218q-103 226 -287 226q-146 0 -224 -133q-73 -127 -73 -331zM514 1479v96h154v-96l-30 -251h-90z" />
<glyph unicode="&#x3ad;" horiz-adv-x="998" vert-adv-y="1404" d="M67 298q0 194 197 252q-55 22 -89 58q-70 76 -70 185q0 159 133 243q95 60 236 60q216 0 334 -131q65 -72 91 -193l-128 -38q-18 104 -77 165q-85 87 -228 87q-89 0 -144 -38q-81 -56 -81 -162q0 -121 102 -166q46 -20 142 -20h96v-107h-96l-60 1q-107 0 -163 -51 q-59 -53 -59 -141q0 -102 78 -165q72 -58 185 -58q244 0 325 253l123 -35q-108 -327 -449 -327q-192 0 -301 102q-97 90 -97 226zM403 1479v96h154v-96l-31 -251h-90z" />
<glyph unicode="&#x3ae;" horiz-adv-x="1100" vert-adv-y="1404" d="M126 0v1059h129v-184q60 103 122 150q95 71 242 71q167 0 263 -100q91 -96 91 -259v-1085h-128v1051q0 278 -256 278q-162 0 -256 -148q-78 -125 -78 -303v-530h-129zM464 1479v96h153v-96l-30 -251h-90z" />
<glyph unicode="&#x3af;" horiz-adv-x="435" vert-adv-y="1404" d="M140 1479v96h154v-96l-30 -251h-91zM154 0v1059h128v-1059h-128z" />
<glyph unicode="&#x3b0;" horiz-adv-x="1100" vert-adv-y="1404" d="M126 323v736h129v-701q0 -287 295 -287t295 287v701h128v-736q0 -210 -145 -303q-52 -34 -134 -49q-78 -15 -140 -15q-428 0 -428 367zM320 1277v205h134v-205h-134zM474 1687v96h154v-96l-31 -251h-90zM645 1277v205h135v-205h-135z" />
<glyph unicode="&#x3b1;" horiz-adv-x="1222" vert-adv-y="1404" d="M80 532q0 202 80 345q119 219 366 219q191 0 303 -150q51 -67 92 -190l60 303h139l-127 -497l149 -562h-139l-88 328q-86 -194 -174 -270q-101 -87 -239 -87q-150 0 -256 95q-78 71 -123 195q-43 122 -43 271zM217 522q0 -244 103 -359q74 -83 176 -83q86 0 150 49 q87 67 152 207q22 48 44 116q26 86 25 90q-36 149 -66 218q-103 226 -287 226q-146 0 -224 -133q-73 -127 -73 -331z" />
<glyph unicode="&#x3b2;" horiz-adv-x="1158" vert-adv-y="1404" d="M148 -348v1440q0 233 136 346q117 96 307 96q186 0 302 -102q94 -83 94 -230q0 -256 -267 -357q184 -18 273 -129q80 -100 80 -288q0 -198 -127 -324q-122 -122 -314 -122q-100 0 -164 26q-103 43 -192 161v-517h-128zM276 579q0 -84 2 -106.5t13 -61.5q47 -174 144 -248 q82 -65 179 -65q92 0 170 42q153 83 153 295q0 166 -89 246q-108 96 -355 96h-20v116h22q125 0 215 52q143 83 143 254q0 124 -92 184q-66 44 -188 44q-297 0 -297 -359v-489z" />
<glyph unicode="&#x3b3;" horiz-adv-x="891" vert-adv-y="1404" d="M0 1059h138l310 -906l315 906h129l-379 -1076v-331h-131v331z" />
<glyph unicode="&#x3b4;" horiz-adv-x="1116" vert-adv-y="1404" d="M80 530q0 297 156 447q123 119 329 119l-354 323v94h778v-107h-588l418 -377q72 -61 99 -94q118 -148 118 -405q0 -255 -118 -405q-127 -161 -358 -161q-213 0 -338 132q-142 151 -142 434zM217 526q0 -200 77 -318q89 -134 261 -134q166 0 258 123q87 114 87 337 q0 200 -80 318q-90 134 -261 134q-192 0 -281 -158q-61 -111 -61 -302z" />
<glyph unicode="&#x3b5;" horiz-adv-x="998" vert-adv-y="1404" d="M67 298q0 194 197 252q-55 22 -89 58q-70 76 -70 185q0 159 133 243q95 60 236 60q216 0 334 -131q65 -72 91 -193l-128 -38q-18 104 -77 165q-85 87 -228 87q-89 0 -144 -38q-81 -56 -81 -162q0 -121 102 -166q46 -20 142 -20h96v-107h-96l-60 1q-107 0 -163 -51 q-59 -53 -59 -141q0 -102 78 -165q72 -58 185 -58q244 0 325 253l123 -35q-108 -327 -449 -327q-192 0 -301 102q-97 90 -97 226z" />
<glyph unicode="&#x3b6;" horiz-adv-x="929" vert-adv-y="1404" d="M85 467q0 245 144 453q101 145 279 299q88 77 218 177h-596v117h778v-106q-326 -258 -472 -428q-217 -251 -217 -510q0 -219 135 -316q87 -62 228 -62h5h99q183 0 183 -129q0 -109 -121 -310h-145q109 188 109 260q0 36 -26 50q-17 8 -57 8h-60q-198 0 -315 94 q-169 133 -169 403z" />
<glyph unicode="&#x3b7;" horiz-adv-x="1100" vert-adv-y="1404" d="M126 0v1059h129v-184q60 103 122 150q95 71 242 71q167 0 263 -100q91 -96 91 -259v-1085h-128v1051q0 278 -256 278q-162 0 -256 -148q-78 -125 -78 -303v-530h-129z" />
<glyph unicode="&#x3b8;" horiz-adv-x="1144" vert-adv-y="1404" d="M80 739q0 778 491 778q493 0 493 -778q0 -779 -491 -779q-227 0 -349 161q-144 190 -144 618zM220 686q12 -610 352 -610q201 0 286 203q49 120 62 305q2 28 5 102h-705zM220 804h705q-12 596 -354 596q-339 0 -351 -596z" />
<glyph unicode="&#x3b9;" horiz-adv-x="398" vert-adv-y="1404" d="M135 0v1059h129v-1059h-129z" />
<glyph unicode="&#x3ba;" horiz-adv-x="1023" vert-adv-y="1404" d="M134 0v1059h129v-546l526 546h171l-446 -444l463 -615h-157l-394 528l-163 -162v-366h-129z" />
<glyph unicode="&#x3bb;" horiz-adv-x="933" vert-adv-y="1404" d="M-14 0l403 1089l-154 424h138l558 -1513h-151l-326 933l-322 -933h-146z" />
<glyph unicode="&#x3bc;" horiz-adv-x="1107" vert-adv-y="1404" d="M130 -348v1407h129v-701q0 -127 57 -198q65 -84 196 -84q163 0 257 150q80 126 80 302v531h128v-1059h-128v186q-55 -97 -117 -148q-92 -74 -219 -74q-101 0 -169 39q-43 23 -85 76v-427h-129z" />
<glyph unicode="&#x3bd;" horiz-adv-x="934" vert-adv-y="1404" d="M0 1059h134l335 -967l339 967h127l-373 -1059h-193z" />
<glyph unicode="&#x3be;" horiz-adv-x="875" vert-adv-y="1404" d="M75 408q0 208 130 321q97 84 252 93q-77 19 -127 61q-103 86 -103 237q0 184 155 276h-286v117h779v-106q-70 1 -91 1q-145 0 -212 -12q-108 -21 -165 -105q-47 -69 -47 -162q0 -173 146 -238q69 -31 179 -31h23v-116h-146h-4q-39 4 -116 -12q-119 -22 -180 -117 q-56 -84 -56 -204q0 -206 143 -280q59 -30 129 -37q54 -5 73 -3h2h100q184 0 184 -128q0 -109 -123 -311h-146q112 188 112 260q0 36 -27 50q-17 8 -58 8h-59q-159 0 -256 52q-102 53 -158 164q-47 94 -47 222z" />
<glyph unicode="&#x3bf;" horiz-adv-x="1116" vert-adv-y="1404" d="M80 530q0 256 117 405q127 161 361 161q233 0 360 -161q118 -151 118 -405q0 -255 -118 -405q-127 -161 -356 -161q-215 0 -340 132q-142 151 -142 434zM217 526q0 -200 77 -318q89 -134 261 -134q166 0 258 123q87 114 87 337q0 200 -80 318q-90 134 -261 134 q-192 0 -281 -158q-61 -111 -61 -302z" />
<glyph unicode="&#x3c0;" horiz-adv-x="1058" vert-adv-y="1404" d="M20 953v106h1019v-106h-157v-953h-128v953h-449v-953h-129v953h-156z" />
<glyph unicode="&#x3c1;" horiz-adv-x="1116" vert-adv-y="1404" d="M80 522v20q0 243 118 393q126 161 360 161q233 0 360 -161q118 -151 118 -405q0 -255 -118 -405q-127 -161 -358 -161q-224 0 -350 147v-459h-129v842zM217 526q0 -200 77 -318q89 -134 261 -134q166 0 258 123q87 114 87 337q0 200 -80 318q-90 134 -261 134 q-192 0 -281 -158q-61 -111 -61 -302z" />
<glyph unicode="&#x3c2;" horiz-adv-x="1033" vert-adv-y="1404" d="M71 525q0 243 122 399q134 172 371 172q197 0 320 -132q63 -66 94 -194l-127 -38q-21 107 -78 167q-85 87 -220 87q-172 0 -263 -134q-83 -123 -83 -314q0 -273 147 -388q88 -69 228 -69h5h100q183 0 183 -126q0 -106 -121 -303h-146q110 183 110 254q0 35 -27 49 q-17 8 -57 8h-59q-202 0 -327 109q-172 151 -172 453z" />
<glyph unicode="&#x3c3;" horiz-adv-x="1116" vert-adv-y="1404" d="M80 530q0 255 117 404q126 162 361 162h481v-107h-172q169 -164 169 -459q0 -255 -118 -405q-127 -161 -358 -161q-213 0 -338 132q-142 151 -142 434zM217 526q0 -200 77 -318q89 -134 261 -134q166 0 258 123q87 114 87 337q0 200 -80 318q-90 134 -261 134 q-192 0 -281 -158q-61 -111 -61 -302z" />
<glyph unicode="&#x3c4;" horiz-adv-x="831" vert-adv-y="1404" d="M20 953v106h791v-106h-332v-953h-128v953h-331z" />
<glyph unicode="&#x3c5;" horiz-adv-x="1107" vert-adv-y="1404" d="M130 323v736h129v-701q0 -287 295 -287t295 287v701h128v-736q0 -210 -145 -303q-52 -34 -134 -49q-78 -15 -140 -15q-428 0 -428 367z" />
<glyph unicode="&#x3c6;" horiz-adv-x="1322" vert-adv-y="1404" d="M80 526q0 355 238 498l64 -104q-165 -114 -165 -390q0 -274 163 -392q91 -66 217 -65v1020q58 3 85 3q251 0 387 -121q173 -151 173 -445q0 -362 -254 -503q-119 -64 -263 -64v-311h-128v311q-146 0 -265 64q-252 141 -252 499zM725 73q149 0 245 86q135 122 135 370 q0 273 -161 391q-90 67 -219 66v-913z" />
<glyph unicode="&#x3c7;" horiz-adv-x="930" vert-adv-y="1404" d="M-14 -348l407 734l-364 673h152l285 -535l288 535h154l-368 -673l404 -734h-154l-326 600l-322 -600h-156z" />
<glyph unicode="&#x3c8;" horiz-adv-x="1287" vert-adv-y="1404" d="M113 460v599h128v-600q0 -171 77 -265q92 -113 262 -120v985h128v-985q171 7 262 120q77 94 77 265v600h128v-599l1 -40q0 -149 -70 -259q-97 -157 -288 -189q-49 -8 -110 -11v-309h-128v309q-110 5 -179 28q-142 48 -220 172q-56 90 -66 215q-2 25 -2 84z" />
<glyph unicode="&#x3c9;" horiz-adv-x="1313" vert-adv-y="1404" d="M69 479q0 213 78 373q59 118 139 207h143q-105 -127 -143 -196q-86 -157 -86 -359q0 -187 53 -295q61 -124 167 -124q105 0 149 117q24 64 24 210v286h128v-286q0 -158 30 -224q45 -103 143 -103q106 0 167 124q53 108 53 294q0 214 -98 380q-35 61 -131 176h143 q90 -99 152 -234q66 -144 66 -345q0 -286 -122 -418q-85 -92 -217 -92q-171 0 -232 151q-14 35 -18 72q-5 -41 -18 -72q-62 -151 -232 -151q-148 0 -237 117q-101 133 -101 392z" />
<glyph unicode="&#x3ca;" horiz-adv-x="462" vert-adv-y="1404" d="M2 1277v205h134v-205h-134zM167 0v1059h129v-1059h-129zM327 1277v205h135v-205h-135z" />
<glyph unicode="&#x3cb;" horiz-adv-x="1107" vert-adv-y="1404" d="M130 323v736h129v-701q0 -287 295 -287t295 287v701h128v-736q0 -210 -145 -303q-52 -34 -134 -49q-78 -15 -140 -15q-428 0 -428 367zM324 1277v205h134v-205h-134zM649 1277v205h134v-205h-134z" />
<glyph unicode="&#x3cc;" horiz-adv-x="1116" vert-adv-y="1404" d="M80 530q0 256 117 405q127 161 361 161q233 0 360 -161q118 -151 118 -405q0 -255 -118 -405q-127 -161 -356 -161q-215 0 -340 132q-142 151 -142 434zM217 526q0 -200 77 -318q89 -134 261 -134q166 0 258 123q87 114 87 337q0 200 -80 318q-90 134 -261 134 q-192 0 -281 -158q-61 -111 -61 -302zM481 1479v96h154v-96l-30 -251h-91z" />
<glyph unicode="&#x3cd;" horiz-adv-x="1100" vert-adv-y="1404" d="M126 323v736h129v-701q0 -287 295 -287t295 287v701h128v-736q0 -210 -145 -303q-52 -34 -134 -49q-78 -15 -140 -15q-428 0 -428 367zM471 1479v96h154v-96l-30 -251h-90z" />
<glyph unicode="&#x3ce;" horiz-adv-x="1313" vert-adv-y="1404" d="M69 479q0 213 78 373q59 118 139 207h143q-105 -127 -143 -196q-86 -157 -86 -359q0 -187 53 -295q61 -124 167 -124q105 0 149 117q24 64 24 210v286h128v-286q0 -158 30 -224q45 -103 143 -103q106 0 167 124q53 108 53 294q0 214 -98 380q-35 61 -131 176h143 q90 -99 152 -234q66 -144 66 -345q0 -286 -122 -418q-85 -92 -217 -92q-171 0 -232 151q-14 35 -18 72q-5 -41 -18 -72q-62 -151 -232 -151q-148 0 -237 117q-101 133 -101 392zM578 1479v96h154v-96l-30 -251h-90z" />
<glyph unicode="&#x3d1;" horiz-adv-x="1123" vert-adv-y="1404" d="M15 560v117h254v-312q0 -115 35 -176q58 -98 181 -98q176 0 266 193q86 182 86 468q0 46 -3 96q-159 0 -232 9q-220 26 -334 139q-96 95 -96 230q0 146 96 230q84 76 212 76q223 0 349 -192q73 -112 110 -257q8 -32 22 -119l1 -7h91v-109h-80q4 -46 4 -102 q0 -254 -66 -439q-121 -337 -424 -337q-198 0 -292 135q-60 84 -60 249v206h-120zM312 1225q0 -151 163 -221q112 -48 281 -48l67 1q-24 152 -75 253q-57 113 -145 166q-57 34 -119 34q-78 0 -125 -52t-47 -133z" />
<glyph unicode="&#x3d5;" horiz-adv-x="1322" vert-adv-y="1404" d="M80 547q0 368 252 511q118 67 261 67v217h136v-217q143 0 261 -67q252 -143 252 -511q0 -369 -252 -512q-117 -66 -261 -65v-318h-136v318q-144 -1 -261 65q-252 144 -252 512zM217 547q0 -277 161 -395q91 -67 215 -66v922q-145 0 -243 -89q-133 -122 -133 -372zM729 86 q145 -1 243 89q133 123 133 372q0 276 -161 395q-91 66 -215 66v-922z" />
<glyph unicode="&#x401;" horiz-adv-x="1278" vert-adv-y="1404" d="M151 0v1513h1015v-126h-875v-552h831v-126h-831v-583h908v-126h-1048zM408 1654v205h134v-205h-134zM733 1654v205h135v-205h-135z" />
<glyph unicode="&#x402;" horiz-adv-x="1362" vert-adv-y="1404" d="M11 1387v126h863v-126h-361v-526q129 160 366 160q224 0 338 -165q56 -82 68 -173q8 -60 8 -146v-242q0 -80 -15 -124q-23 -67 -96 -120q-74 -51 -178 -51h-236v128h235q60 0 85 11q41 20 57 54q7 18 7 76v272q0 355 -292 355q-216 0 -308 -156q-36 -61 -38 -142 q-1 -19 -1 -50v-548h-142v1387h-360z" />
<glyph unicode="&#x403;" horiz-adv-x="1074" vert-adv-y="1404" d="M151 0v1513h888v-126h-748v-1387h-140zM475 1626l160 266h150l-190 -266h-120z" />
<glyph unicode="&#x404;" horiz-adv-x="1434" vert-adv-y="1404" d="M96 742q0 381 178 595q178 212 485 212q251 0 402 -125q136 -113 181 -319l-142 -37q-40 150 -116 233q-116 126 -324 126q-295 0 -426 -263q-65 -132 -80 -323h672v-122h-676q5 -250 101 -409q133 -222 404 -222q241 0 367 167q75 99 101 256l145 -21 q-112 -526 -619 -526q-265 0 -433 158q-220 207 -220 620z" />
<glyph unicode="&#x405;" horiz-adv-x="1312" vert-adv-y="1404" d="M60 402l139 33q42 -150 103 -217q113 -128 345 -128q418 0 418 290q0 128 -76 199q-71 67 -219 95l-256 50q-410 81 -410 412q0 184 128 294q139 119 396 119q264 0 404 -114q110 -90 161 -267l-132 -42q-49 139 -123 205q-107 96 -310 96q-190 0 -289 -79 q-90 -72 -90 -204q0 -117 71 -185q72 -66 222 -96l293 -56q199 -39 291 -143q94 -104 94 -274q0 -193 -131 -302q-148 -124 -436 -124q-273 0 -420 125q-118 101 -173 313z" />
<glyph unicode="&#x406;" horiz-adv-x="441" vert-adv-y="1404" d="M151 0v1513h140v-1513h-140z" />
<glyph unicode="&#x407;" horiz-adv-x="441" vert-adv-y="1404" d="M-9 1654v205h134v-205h-134zM151 0v1513h140v-1513h-140zM316 1654v205h135v-205h-135z" />
<glyph unicode="&#x408;" horiz-adv-x="1120" vert-adv-y="1404" d="M60 421l137 19q14 -153 76 -239q84 -115 241 -115q325 0 325 366v1061h140v-1051q0 -256 -131 -385q-117 -113 -324 -113q-223 0 -348 146q-96 113 -116 311z" />
<glyph unicode="&#x409;" horiz-adv-x="2060" vert-adv-y="1404" d="M54 1v127q82 9 122 41q109 83 143 303q36 234 36 523v518h764v-660h411q168 0 258 -40q218 -98 218 -387q0 -219 -125 -327q-74 -65 -164 -82q-82 -17 -187 -17h-551v1385h-498v-429q0 -166 -20 -363q-36 -349 -170 -492q-57 -61 -142 -85q-32 -10 -95 -15zM1119 128h348 q204 0 292 72q93 74 93 226t-93 227q-56 45 -132 58q-73 13 -160 13h-348v-596z" />
<glyph unicode="&#x40a;" horiz-adv-x="2249" vert-adv-y="1404" d="M151 0v1513h140v-646h875v646h140v-660h411q169 0 259 -40q218 -98 218 -387q0 -219 -125 -327q-63 -54 -143 -76.5t-209 -22.5h-551v741h-875v-741h-140zM1306 128h349q203 0 292 72q93 74 93 226t-93 227q-57 45 -132 58q-74 13 -160 13h-349v-596z" />
<glyph unicode="&#x40b;" horiz-adv-x="1353" vert-adv-y="1404" d="M11 1387v126h863v-126h-361v-560q127 159 367 159q147 0 250 -74q109 -78 143 -228q20 -85 20 -226v-458h-141v458q0 181 -48 274q-64 128 -244 128q-186 0 -284 -120q-40 -50 -54 -105q-9 -37 -9 -121v-514h-142v1387h-360z" />
<glyph unicode="&#x40c;" horiz-adv-x="1227" vert-adv-y="1404" d="M151 0v1513h140v-646h160l475 646h172l-526 -704l576 -809h-172l-528 739h-157v-739h-140zM544 1626l160 266h150l-190 -266h-120z" />
<glyph unicode="&#x40e;" horiz-adv-x="994" vert-adv-y="1404" d="M0 1513h152l372 -906l339 906h139l-492 -1303q-80 -211 -269 -211h-13q-82 0 -161 25l25 111q69 -18 120 -18q77 0 122 44q33 32 59 100l64 168zM230 1859h116q47 -106 193 -106q144 0 187 106h114q-50 -206 -305 -206q-256 0 -305 206z" />
<glyph unicode="&#x40f;" horiz-adv-x="1351" vert-adv-y="1404" d="M151 0v1513h140v-1385h769v1385h140v-1513h-454v-311h-140v311h-455z" />
<glyph unicode="&#x410;" horiz-adv-x="1330" vert-adv-y="1404" d="M0 0l576 1513h181l574 -1513h-153l-150 404h-741l-153 -404h-134zM333 524h648l-320 861z" />
<glyph unicode="&#x411;" horiz-adv-x="1257" vert-adv-y="1404" d="M151 0v1513h853v-126h-713v-534h412q168 0 257 -40q219 -98 219 -387q0 -219 -125 -327q-75 -65 -164 -82q-82 -17 -187 -17h-552zM291 128h349q204 0 292 72q93 74 93 226t-93 227q-56 45 -132 58q-73 13 -160 13h-349v-596z" />
<glyph unicode="&#x412;" horiz-adv-x="1358" vert-adv-y="1404" d="M151 0v1513h579q465 0 465 -361q0 -148 -75 -236q-43 -51 -118 -93q122 -39 186 -107q91 -98 91 -278q0 -438 -551 -438h-577zM291 122h418q197 0 298 67q119 80 119 252q0 177 -123 253q-89 55 -260 55h-452v-627zM291 871h397q356 0 356 261q0 147 -90 206 q-80 53 -245 53h-418v-520z" />
<glyph unicode="&#x413;" horiz-adv-x="1078" vert-adv-y="1404" d="M151 0v1513h888v-126h-748v-1387h-140z" />
<glyph unicode="&#x414;" horiz-adv-x="1440" vert-adv-y="1404" d="M8 128q85 -1 142 59q113 117 182 398q31 123 43 235q11 105 11 274v419h897v-1385h105v-439h-140v311h-1100v-311h-140v439zM263 128h880v1257h-630v-329q0 -346 -83 -603q-53 -167 -111 -255q-21 -33 -56 -70z" />
<glyph unicode="&#x415;" horiz-adv-x="1278" vert-adv-y="1404" d="M151 0v1513h1015v-126h-875v-552h831v-126h-831v-583h908v-126h-1048z" />
<glyph unicode="&#x416;" horiz-adv-x="1875" vert-adv-y="1404" d="M12 0l575 809l-525 704h171l476 -646h159v646h140v-646h160l475 646h172l-525 -704l575 -809h-172l-528 739h-157v-739h-140v739h-157l-528 -739h-171z" />
<glyph unicode="&#x417;" horiz-adv-x="1265" vert-adv-y="1404" d="M110 379l142 21q18 -147 89 -223q93 -99 283 -99q175 0 275 68q119 80 119 236q0 200 -175 274q-98 41 -267 43v120q170 7 282 77q129 78 129 234q0 134 -89 205q-86 68 -254 68q-298 0 -361 -289l-139 20q78 379 513 379q246 0 373 -113q109 -96 109 -262 q0 -177 -129 -278q-72 -56 -191 -96q179 -22 272 -127q80 -91 80 -245q0 -185 -122 -300q-138 -128 -418 -128q-474 0 -521 415z" />
<glyph unicode="&#x418;" horiz-adv-x="1443" vert-adv-y="1404" d="M151 0v1513h140v-1333l815 1333h187v-1513h-141v1335l-816 -1335h-185z" />
<glyph unicode="&#x419;" horiz-adv-x="1443" vert-adv-y="1404" d="M151 0v1513h140v-1333l815 1333h187v-1513h-141v1335l-816 -1335h-185zM418 1859h116q47 -106 193 -106q144 0 187 106h114q-50 -206 -305 -206q-256 0 -305 206z" />
<glyph unicode="&#x41a;" horiz-adv-x="1147" vert-adv-y="1404" d="M151 0v1513h140v-646h160l475 646h172l-526 -704l576 -809h-172l-528 739h-157v-739h-140z" />
<glyph unicode="&#x41b;" horiz-adv-x="1354" vert-adv-y="1404" d="M8 1v127q82 9 122 41q109 83 143 303q36 234 36 523v518h896v-1513h-140v1385h-630v-429q0 -166 -20 -363q-36 -348 -170 -492q-57 -61 -142 -85q-32 -10 -95 -15z" />
<glyph unicode="&#x41c;" horiz-adv-x="1780" vert-adv-y="1404" d="M151 0v1513h244l486 -1362l520 1362h229v-1513h-136v1393l-531 -1393h-178l-498 1407v-1407h-136z" />
<glyph unicode="&#x41d;" horiz-adv-x="1457" vert-adv-y="1404" d="M151 0v1513h140v-646h875v646h140v-1513h-140v741h-875v-741h-140z" />
<glyph unicode="&#x41e;" horiz-adv-x="1575" vert-adv-y="1404" d="M96 757q0 375 186 586q184 206 505 206q322 0 505 -206q187 -212 187 -586t-187 -585q-184 -208 -500 -208q-292 0 -473 169q-223 212 -223 624zM249 757q0 -291 136 -474q147 -195 398 -195q234 0 378 161q166 184 166 508q0 293 -137 472q-148 196 -403 196t-402 -196 q-136 -180 -136 -472z" />
<glyph unicode="&#x41f;" horiz-adv-x="1349" vert-adv-y="1404" d="M151 0v1513h1048v-1513h-141v1385h-767v-1385h-140z" />
<glyph unicode="&#x420;" horiz-adv-x="1278" vert-adv-y="1404" d="M151 0v1513h609q219 0 341 -120q117 -117 117 -327q0 -208 -131 -329q-134 -123 -367 -123h-429v-614h-140zM291 735h442q168 0 259 102q78 87 78 234q0 174 -115 259q-83 61 -216 61h-448v-656z" />
<glyph unicode="&#x421;" horiz-adv-x="1434" vert-adv-y="1404" d="M96 743q0 380 178 595q177 211 485 211q251 0 402 -125q135 -113 180 -319l-141 -37q-41 150 -117 233q-115 126 -323 126q-260 0 -394 -207q-117 -178 -117 -481q0 -291 123 -464q136 -187 382 -187q241 0 367 168q75 99 101 256l145 -22q-111 -526 -618 -526 q-265 0 -433 158q-220 207 -220 621z" />
<glyph unicode="&#x422;" horiz-adv-x="1340" vert-adv-y="1404" d="M50 1387v126h1241v-126h-550v-1387h-141v1387h-550z" />
<glyph unicode="&#x423;" horiz-adv-x="994" vert-adv-y="1404" d="M-3 1513h152l372 -906l339 906h139l-492 -1303q-80 -211 -269 -211h-13q-82 0 -161 25l25 111q69 -18 120 -18q77 0 122 44q33 32 59 100l64 168z" />
<glyph unicode="&#x424;" horiz-adv-x="1580" vert-adv-y="1404" d="M30 757q0 204 104 361q182 274 587 277v118h139v-118q260 -2 433 -120q138 -94 205 -252q53 -123 53 -266q0 -204 -104 -362q-181 -273 -587 -276v-119h-139v119q-259 2 -432 119q-138 95 -206 252q-53 122 -53 267zM182 757q0 -316 229 -444q123 -69 310 -70v1027 q-215 -1 -349 -94q-190 -133 -190 -419zM860 243q217 1 349 94q190 133 190 420q0 315 -228 443q-123 69 -311 70v-1027z" />
<glyph unicode="&#x425;" horiz-adv-x="1196" vert-adv-y="1404" d="M0 0l521 781l-485 732h161l403 -618l409 618h145l-482 -720l525 -793h-159l-446 678l-448 -678h-144z" />
<glyph unicode="&#x426;" horiz-adv-x="1349" vert-adv-y="1404" d="M151 0v1513h140v-1385h767v1385h141v-1385h105v-439h-140v311h-1013z" />
<glyph unicode="&#x427;" horiz-adv-x="1258" vert-adv-y="1404" d="M80 1055v458h140v-458q0 -133 34 -206q62 -134 249 -164q73 -12 168 -12q123 0 296 44v796h140v-1513h-140v587q-190 -39 -313 -39q-274 0 -407 94q-106 75 -142 195q-25 82 -25 218z" />
<glyph unicode="&#x428;" horiz-adv-x="1826" vert-adv-y="1404" d="M151 0v1513h140v-1385h552v1385h140v-1385h553v1385h140v-1513h-1525z" />
<glyph unicode="&#x429;" horiz-adv-x="1821" vert-adv-y="1404" d="M151 0v1513h140v-1385h550v1385h140v-1385h550v1385h140v-1385h105v-439h-140v311h-1485z" />
<glyph unicode="&#x42a;" horiz-adv-x="1537" vert-adv-y="1404" d="M6 1387v126h580v-126v-534h411q169 0 258 -40q219 -98 219 -387q0 -219 -126 -327q-74 -65 -164 -82q-82 -17 -187 -17h-551v1387h-440zM586 128h349q203 0 292 72q93 74 93 226t-93 227q-56 45 -132 58q-74 13 -160 13h-349v-596z" />
<glyph unicode="&#x42b;" horiz-adv-x="1643" vert-adv-y="1404" d="M151 0v1513h140v-660h411q169 0 258 -40q219 -98 219 -387q0 -219 -125 -327q-75 -65 -165 -82q-82 -17 -187 -17h-551zM291 128h349q203 0 292 72q93 74 93 226t-93 227q-57 45 -132 58q-74 13 -160 13h-349v-596zM1352 0v1513h141v-1513h-141z" />
<glyph unicode="&#x42c;" horiz-adv-x="1257" vert-adv-y="1404" d="M151 0v1513h140v-660h411q169 0 258 -40q219 -98 219 -387q0 -219 -125 -327q-75 -65 -165 -82q-82 -17 -187 -17h-551zM291 128h349q203 0 292 72q93 74 93 226t-93 227q-57 45 -132 58q-74 13 -160 13h-349v-596z" />
<glyph unicode="&#x42d;" horiz-adv-x="1434" vert-adv-y="1404" d="M68 487l145 22q28 -168 110 -269q127 -155 358 -155q281 0 414 239q86 157 91 393h-676v128h672q-17 205 -90 342q-133 243 -418 243q-222 0 -339 -144q-64 -80 -101 -215l-140 38q47 216 194 329q148 114 388 114q308 0 484 -211q180 -214 180 -597q0 -436 -239 -641 q-165 -142 -415 -142q-507 0 -618 526z" />
<glyph unicode="&#x42e;" horiz-adv-x="2058" vert-adv-y="1404" d="M151 0v1513h140v-641h309q26 263 149 429q183 248 537 248q322 0 504 -207q188 -211 188 -585t-188 -585q-183 -208 -503 -208q-322 0 -506 208q-178 202 -186 567l-304 5v-744h-140zM748 757q0 -292 136 -474q147 -195 398 -195q234 0 378 161q166 184 166 508 q0 292 -137 472q-148 196 -403 196t-402 -196q-136 -181 -136 -472z" />
<glyph unicode="&#x42f;" horiz-adv-x="1354" vert-adv-y="1404" d="M68 0l329 664q-134 49 -206 156q-79 117 -79 264q0 204 118 314q123 115 360 115h613v-1513h-140v636h-471h-16h-14q-11 0 -27 2l-303 -638h-164zM261 1083q0 -149 76 -231q88 -93 269 -93h457v632h-457q-145 0 -231 -57q-114 -78 -114 -251z" />
<glyph unicode="&#x430;" horiz-adv-x="999" vert-adv-y="1404" d="M73 269q0 173 112 263q83 67 242 90l339 50v87q0 229 -256 229q-140 0 -211 -70q-49 -47 -80 -139l-115 29q87 288 413 288q199 0 295 -97q83 -84 83 -233v-586q0 -73 28 -180h-126q-1 2 -3 11q-1 3 -4 11q-15 38 -15 129q-89 -112 -180 -154q-70 -33 -201 -33 q-137 0 -224 75q-97 84 -97 230zM205 273q0 -101 62 -153q53 -46 149 -46q125 0 217 61q133 88 133 252v175l-343 -54q-218 -35 -218 -235z" />
<glyph unicode="&#x431;" horiz-adv-x="1116" vert-adv-y="1404" d="M74 608q0 213 55 359q38 100 121 180q74 71 173 102q49 15 150 31q146 23 180 34q74 24 93 95q8 31 10 104h111q-3 -62 -9 -95q-13 -74 -65 -130q-48 -52 -154 -72q-13 -3 -175 -26q-132 -20 -194 -62q-84 -57 -133 -147q-18 -35 -44 -109q54 93 96 129q111 95 274 95 q228 0 355 -161q118 -151 118 -405q0 -255 -118 -405q-126 -161 -358 -161q-236 0 -362 161q-124 157 -124 483zM218 526q0 -200 77 -318q88 -134 260 -134q166 0 259 123q86 114 86 337q0 200 -80 318q-89 134 -261 134q-191 0 -280 -158q-61 -111 -61 -302z" />
<glyph unicode="&#x432;" horiz-adv-x="1044" vert-adv-y="1404" d="M159 0v1059h433q116 0 175 -25q83 -35 121 -113q28 -57 28 -126q0 -167 -154 -232q202 -59 202 -263q0 -145 -97 -226q-59 -49 -129 -61q-65 -13 -146 -13h-433zM287 106h305q118 0 174 46q60 49 60 151q0 103 -60 151q-56 46 -174 46h-305v-394zM287 606h277 q121 0 174 54q46 47 46 119q0 75 -46 121q-53 54 -174 54h-277v-348z" />
<glyph unicode="&#x433;" horiz-adv-x="839" vert-adv-y="1404" d="M151 0v1059h637v-105h-509v-954h-128z" />
<glyph unicode="&#x434;" horiz-adv-x="1076" vert-adv-y="1404" d="M0 101q77 0 122 20q95 43 155 253q39 132 39 368v317h616v-958h90v-412h-128v305h-766v-305h-128v412zM267 101h537v852h-378v-233q0 -234 -46 -399q-31 -112 -113 -220z" />
<glyph unicode="&#x435;" horiz-adv-x="1093" vert-adv-y="1404" d="M80 526q0 249 122 403q130 167 363 167q226 0 348 -146q108 -131 108 -341v-21v-22v-13v-14q0 -18 -2 -31h-802q5 -180 70 -287q87 -145 267 -145q157 0 244 98q42 48 81 153l121 -44q-37 -111 -107 -186q-125 -133 -337 -133q-207 0 -333 131q-143 151 -143 431z M219 609h668q-1 151 -62 245q-87 136 -262 136q-184 0 -278 -154q-58 -95 -66 -227z" />
</font>
</defs>
</svg>
