<?xml version="1.0" encoding="utf-8"?>
<!-- Generator: Adobe Illustrator 21.1.0, SVG Export Plug-In . SVG Version: 6.00 Build 0)  -->
<svg version="1.1" id="Ebene_1" xmlns="http://www.w3.org/2000/svg" xmlns:xlink="http://www.w3.org/1999/xlink" x="0px" y="0px"
	 viewBox="0 0 197.6 118.2" style="enable-background:new 0 0 197.6 118.2;" xml:space="preserve">
<style type="text/css">
	.st0{fill:#FFFFFF;}
	.st1{fill:#E5D38F;}
</style>
<polygon class="st0" points="156.1,110.8 157,113.6 160,113.6 157.6,115.3 158.5,118.2 156.1,116.4 153.7,118.2 154.6,115.3 
	152.2,113.6 155.2,113.6 "/>
<polygon class="st0" points="168.6,110.8 169.5,113.6 172.4,113.6 170,115.3 171,118.2 168.6,116.4 166.2,118.2 167.1,115.3 
	164.7,113.6 167.7,113.6 "/>
<polygon class="st0" points="181.1,110.8 182,113.6 184.9,113.6 182.5,115.3 183.5,118.2 181.1,116.4 178.7,118.2 179.6,115.3 
	177.2,113.6 180.2,113.6 "/>
<polygon class="st0" points="193.7,110.8 194.6,113.6 197.6,113.6 195.2,115.3 196.1,118.2 193.7,116.4 191.3,118.2 192.2,115.3 
	189.8,113.6 192.8,113.6 "/>
<g>
	<path class="st0" d="M193.7,109.4c0.4,0,1,0.2,1,0.2l1.7-2.3L195,108c-0.3,0.2-0.6,0.1-0.7-0.2l-0.5-1.8l-0.5,1.8
		c-0.1,0.3-0.5,0.4-0.7,0.2l-1.5-0.9l1.7,2.5C192.7,109.6,193.3,109.4,193.7,109.4"/>
	<polygon class="st1" points="96.3,14.8 98.2,0 100.2,14.8 109.2,2.9 103.6,16.7 117.3,10.9 105.5,20.1 120.3,21.9 105.5,23.9 
		117.4,32.9 103.6,27.3 109.4,41.1 100.3,29.3 98.4,44.1 96.4,29.3 87.4,41.2 93,27.4 79.3,33.2 91.1,24 76.2,22.2 91,20.1 
		79.1,11.1 92.9,16.8 87.2,3 	"/>
	<polygon class="st0" points="13.8,97.1 9,97.1 0,59.5 5.3,59.5 11.3,88.3 16.9,59.5 22.2,59.5 	"/>
	<rect x="103.8" y="59.5" class="st0" width="4.7" height="37.6"/>
	<rect x="115.3" y="59.5" class="st0" width="4.7" height="37.6"/>
	<rect x="45.7" y="59.5" class="st0" width="4.7" height="37.6"/>
	<path class="st0" d="M41.1,92.8c-0.8,0.9-1,1-1.3,1c-0.2,0-0.8,0-0.8-2.2v-15c0-5.6-2.8-8.3-8.5-8.3c-5.3,0-8.3,3.1-8.3,7
		c0,0.6,0.1,1.4,0.2,1.9H27c0,0-0.3-0.9-0.3-1.8c0-2,1.4-3.2,3.8-3.2c1.7,0,3.7,0.5,3.7,4.1v1.1c0,1.8-1.4,2.7-3.4,3.4
		c-6,2-9.5,3.9-9.3,9.9c0.1,4,2.5,7,5.9,7c2.8,0,5.4-1.2,7-4c0.3,2.1,1.8,4,4.1,4c1.7,0,3.4-0.9,4.8-3.2L41.1,92.8z M34.4,88
		c0,2.4-2.5,6.2-5.4,5.8c-1.5-0.2-2.7-1.3-2.6-3.7c0-3.7,2.8-5.3,6.5-6.9c0,0,1.6-0.6,1.6-1.2V88z"/>
	<path class="st0" d="M144.1,92.8c-0.8,0.9-1,1-1.3,1c-0.2,0-0.8,0-0.8-2.2v-15c0-5.6-2.8-8.3-8.5-8.3c-5.3,0-8.3,3.1-8.3,7
		c0,0.6,0.1,1.4,0.2,1.9h4.5c0,0-0.3-0.9-0.3-1.8c0-2,1.4-3.2,3.8-3.2c1.7,0,3.7,0.5,3.7,4.1v1.1c0,1.8-1.4,2.7-3.4,3.4
		c-6,2-9.5,3.9-9.3,9.9c0.1,4,2.5,7,5.9,7c2.8,0,5.4-1.2,7-4c0.3,2.1,1.8,4,4.1,4c1.7,0,3.5-0.9,4.8-3.2L144.1,92.8z M137.4,88
		c0,2.4-2.5,6.2-5.4,5.8c-1.5-0.2-2.7-1.3-2.6-3.7c0-3.7,2.8-5.3,6.5-6.9c0,0,1.6-0.6,1.6-1.2V88z"/>
	<path class="st0" d="M94.3,87.7c-0.5,5.5-2.7,6.2-4.4,6.2c-4.2,0-4.8-4.9-5-10.1h14l0-1c-0.1-2.8-0.1-6.6-2.1-10.1
		c-1.5-2.7-4.2-4.4-7.1-4.4c-6.1,0-10.1,5.9-10.1,14.9c0,9,4,14.5,10.4,14.5c3,0,5.7-1.6,7.2-4.3c0.9-1.5,1.4-3.1,1.6-5.7H94.3z
		 M89.7,72.1c1.8,0,4,0.9,4.3,7.8h-9C85.2,76.2,86.2,72.1,89.7,72.1"/>
	<path class="st0" d="M67,68.1c-1.9,0-3.7,1-5,2.9V59.5h-4.8v37.8h2.5l1.2-2.5c1.6,1.9,3.6,2.9,5.8,2.9c6.2,0,9.3-5.2,9.3-15.5
		C76.1,73.6,72.5,68.1,67,68.1 M66.5,93.6L66.5,93.6C66.4,93.6,66.4,93.6,66.5,93.6c-0.1,0-0.1,0-0.2,0v0c-3-0.2-4.5-3.8-4.5-11
		c0-4.7,0.8-10.4,4.4-10.4c0.1,0,0.1,0,0.2,0c0.1,0,0.1,0,0.2,0c3.7,0,4.4,5.6,4.4,10.4C71,89.8,69.5,93.4,66.5,93.6"/>
	<rect x="152.2" y="59.5" class="st0" width="4.8" height="37.5"/>
	<path class="st0" d="M177.3,97.2h-4.4V77c0-4.4-1.3-4.4-2-4.4c-1.1,0-2.7,1.5-3.7,3.9v20.6h-4.4V69.2h4.4l-0.2,3.4
		c1.4-2.6,3-3.6,4.2-3.6c3.5-0.2,6,3,6,7.4v19.6V97.2z"/>
	<path class="st0" d="M197.6,97.2h-4.4V77c0-4.4-1.3-4.4-2-4.4c-1.1,0-2.7,1.5-3.7,3.9v20.6h-4.4V69.2h4.4l-0.2,3.4
		c1.4-2.6,3-3.6,4.2-3.6c3.5-0.2,6,3,6,7.4v19.6V97.2z"/>
	<path class="st0" d="M120.6,106.9c0.5-0.2,1.1-0.2,1.6-0.2c1,0,1.7,0.2,2.2,0.8c0.5,0.6,0.7,1.3,0.7,2.2c0,1.5-0.6,2.4-1.6,2.9v0
		c0.7,0.3,1.1,1.1,1.3,2.6c0.2,1.6,0.4,2.5,0.5,2.9h-1.1c-0.1-0.3-0.3-1.4-0.5-2.8c-0.2-1.6-0.6-2.1-1.6-2.1h-0.4v5h-1.1V106.9z
		 M121.7,112.1h0.5c1.1,0,1.8-0.9,1.8-2.3c0-1.3-0.5-2.1-1.7-2.2c-0.2,0-0.4,0-0.6,0.1V112.1z"/>
	<path class="st0" d="M131.5,116.7c0.2,0.2,0.7,0.4,1.1,0.4c0.6,0,1-0.5,1-1.2c0-0.6-0.2-1-0.9-1.6c-0.9-0.7-1.4-1.4-1.4-2.3
		c0-1.3,0.8-2.3,1.9-2.3c0.6,0,1,0.2,1.3,0.4l-0.3,1c-0.3-0.2-0.6-0.4-0.9-0.4c-0.6,0-0.9,0.5-0.9,1c0,0.6,0.2,0.9,0.9,1.4
		c0.8,0.6,1.4,1.4,1.4,2.5c0,1.6-1,2.4-2.1,2.4c-0.5,0-1.1-0.2-1.4-0.5L131.5,116.7z"/>
	<path class="st0" d="M140.2,114c0,3.2-1.3,4.2-2.3,4.2c-1.3,0-2.3-1.3-2.3-4.2c0-3,1.1-4.2,2.3-4.2
		C139.2,109.8,140.2,111.1,140.2,114 M136.7,114c0,1.4,0.2,3.2,1.2,3.2c1,0,1.1-1.9,1.1-3.2c0-1.2-0.2-3.2-1.2-3.2
		C136.9,110.8,136.7,112.7,136.7,114"/>
	<path class="st0" d="M141.4,112c0-0.7,0-1.5-0.1-2.1h1l0.1,1.3h0c0.2-0.8,0.8-1.4,1.5-1.4c0.1,0,0.2,0,0.2,0v1.3
		c-0.1,0-0.1,0-0.2,0c-0.7,0-1.2,0.8-1.3,1.7c0,0.2,0,0.5,0,0.7v4.5h-1.1V112z"/>
	<path class="st0" d="M146.8,107.7v2.2h1.3v1h-1.3v4.9c0,1.1,0.3,1.4,0.7,1.4c0.2,0,0.3,0,0.5-0.1l0,1c-0.2,0.1-0.5,0.1-0.8,0.1
		c-0.4,0-0.8-0.1-1.1-0.5c-0.3-0.4-0.4-0.9-0.4-2.1v-4.7h-0.9v-1h0.9v-1.8L146.8,107.7z"/>
	<path class="st0" d="M129.6,115.4c-0.1,1.6-0.7,1.8-1.1,1.8c-1.1,0-1.3-1.4-1.3-2.9h3.6l0-0.3c0-0.8,0-1.9-0.5-2.9
		c-0.4-0.8-1.1-1.3-1.8-1.3c-1.6,0-2.6,1.7-2.6,4.3c0,2.6,1,4.2,2.7,4.2c0.8,0,1.5-0.5,1.9-1.2c0.2-0.4,0.4-0.9,0.4-1.6H129.6z
		 M128.4,110.9c0.5,0,1,0.3,1.1,2.2h-2.3C127.2,112.1,127.5,110.9,128.4,110.9"/>
</g>
<g>
</g>
<g>
</g>
<g>
</g>
<g>
</g>
<g>
</g>
<g>
</g>
</svg>
